<svg width="26" height="38" viewBox="0 0 26 38" fill="none" xmlns="http://www.w3.org/2000/svg">
<path d="M13.0206 18.1864C11.7976 18.1864 10.6248 17.7006 9.76001 16.8358C8.89525 15.9711 8.40943 14.7982 8.40943 13.5753C8.40943 12.3523 8.89525 11.1795 9.76001 10.3147C10.6248 9.44993 11.7976 8.96412 13.0206 8.96412C14.2435 8.96412 15.4164 9.44993 16.2811 10.3147C17.1459 11.1795 17.6317 12.3523 17.6317 13.5753C17.6317 14.1808 17.5124 14.7804 17.2807 15.3399C17.049 15.8993 16.7093 16.4076 16.2811 16.8358C15.853 17.264 15.3446 17.6037 14.7852 17.8354C14.2257 18.0671 13.6261 18.1864 13.0206 18.1864ZM13.0206 0.664062C9.59631 0.664062 6.3123 2.02435 3.89098 4.44567C1.46966 6.86699 0.109375 10.151 0.109375 13.5753C0.109375 23.2587 13.0206 37.5532 13.0206 37.5532C13.0206 37.5532 25.9318 23.2587 25.9318 13.5753C25.9318 10.151 24.5715 6.86699 22.1502 4.44567C19.7289 2.02435 16.4448 0.664063 13.0206 0.664062Z" fill="#FFF6EE"/>
<path d="M13.0206 18.1864C11.7976 18.1864 10.6248 17.7006 9.76001 16.8358C8.89525 15.9711 8.40943 14.7982 8.40943 13.5753C8.40943 12.3523 8.89525 11.1795 9.76001 10.3147C10.6248 9.44993 11.7976 8.96412 13.0206 8.96412C14.2435 8.96412 15.4164 9.44993 16.2811 10.3147C17.1459 11.1795 17.6317 12.3523 17.6317 13.5753C17.6317 14.1808 17.5124 14.7804 17.2807 15.3399C17.049 15.8993 16.7093 16.4076 16.2811 16.8358C15.853 17.264 15.3446 17.6037 14.7852 17.8354C14.2257 18.0671 13.6261 18.1864 13.0206 18.1864ZM13.0206 0.664062C9.59631 0.664062 6.3123 2.02435 3.89098 4.44567C1.46966 6.86699 0.109375 10.151 0.109375 13.5753C0.109375 23.2587 13.0206 37.5532 13.0206 37.5532C13.0206 37.5532 25.9318 23.2587 25.9318 13.5753C25.9318 10.151 24.5715 6.86699 22.1502 4.44567C19.7289 2.02435 16.4448 0.664063 13.0206 0.664062Z" fill="url(#paint0_linear_26_1925)"/>
<path d="M13.0206 18.1864C11.7976 18.1864 10.6248 17.7006 9.76001 16.8358C8.89525 15.9711 8.40943 14.7982 8.40943 13.5753C8.40943 12.3523 8.89525 11.1795 9.76001 10.3147C10.6248 9.44993 11.7976 8.96412 13.0206 8.96412C14.2435 8.96412 15.4164 9.44993 16.2811 10.3147C17.1459 11.1795 17.6317 12.3523 17.6317 13.5753C17.6317 14.1808 17.5124 14.7804 17.2807 15.3399C17.049 15.8993 16.7093 16.4076 16.2811 16.8358C15.853 17.264 15.3446 17.6037 14.7852 17.8354C14.2257 18.0671 13.6261 18.1864 13.0206 18.1864ZM13.0206 0.664062C9.59631 0.664062 6.3123 2.02435 3.89098 4.44567C1.46966 6.86699 0.109375 10.151 0.109375 13.5753C0.109375 23.2587 13.0206 37.5532 13.0206 37.5532C13.0206 37.5532 25.9318 23.2587 25.9318 13.5753C25.9318 10.151 24.5715 6.86699 22.1502 4.44567C19.7289 2.02435 16.4448 0.664063 13.0206 0.664062Z" fill="#DEC58C"/>
<path d="M13.0206 18.1864C11.7976 18.1864 10.6248 17.7006 9.76001 16.8358C8.89525 15.9711 8.40943 14.7982 8.40943 13.5753C8.40943 12.3523 8.89525 11.1795 9.76001 10.3147C10.6248 9.44993 11.7976 8.96412 13.0206 8.96412C14.2435 8.96412 15.4164 9.44993 16.2811 10.3147C17.1459 11.1795 17.6317 12.3523 17.6317 13.5753C17.6317 14.1808 17.5124 14.7804 17.2807 15.3399C17.049 15.8993 16.7093 16.4076 16.2811 16.8358C15.853 17.264 15.3446 17.6037 14.7852 17.8354C14.2257 18.0671 13.6261 18.1864 13.0206 18.1864ZM13.0206 0.664062C9.59631 0.664062 6.3123 2.02435 3.89098 4.44567C1.46966 6.86699 0.109375 10.151 0.109375 13.5753C0.109375 23.2587 13.0206 37.5532 13.0206 37.5532C13.0206 37.5532 25.9318 23.2587 25.9318 13.5753C25.9318 10.151 24.5715 6.86699 22.1502 4.44567C19.7289 2.02435 16.4448 0.664063 13.0206 0.664062Z" fill="url(#paint1_linear_26_1925)"/>
<path d="M13.0206 18.1864C11.7976 18.1864 10.6248 17.7006 9.76001 16.8358C8.89525 15.9711 8.40943 14.7982 8.40943 13.5753C8.40943 12.3523 8.89525 11.1795 9.76001 10.3147C10.6248 9.44993 11.7976 8.96412 13.0206 8.96412C14.2435 8.96412 15.4164 9.44993 16.2811 10.3147C17.1459 11.1795 17.6317 12.3523 17.6317 13.5753C17.6317 14.1808 17.5124 14.7804 17.2807 15.3399C17.049 15.8993 16.7093 16.4076 16.2811 16.8358C15.853 17.264 15.3446 17.6037 14.7852 17.8354C14.2257 18.0671 13.6261 18.1864 13.0206 18.1864ZM13.0206 0.664062C9.59631 0.664062 6.3123 2.02435 3.89098 4.44567C1.46966 6.86699 0.109375 10.151 0.109375 13.5753C0.109375 23.2587 13.0206 37.5532 13.0206 37.5532C13.0206 37.5532 25.9318 23.2587 25.9318 13.5753C25.9318 10.151 24.5715 6.86699 22.1502 4.44567C19.7289 2.02435 16.4448 0.664063 13.0206 0.664062Z" fill="url(#paint2_linear_26_1925)"/>
<path d="M13.0206 18.1864C11.7976 18.1864 10.6248 17.7006 9.76001 16.8358C8.89525 15.9711 8.40943 14.7982 8.40943 13.5753C8.40943 12.3523 8.89525 11.1795 9.76001 10.3147C10.6248 9.44993 11.7976 8.96412 13.0206 8.96412C14.2435 8.96412 15.4164 9.44993 16.2811 10.3147C17.1459 11.1795 17.6317 12.3523 17.6317 13.5753C17.6317 14.1808 17.5124 14.7804 17.2807 15.3399C17.049 15.8993 16.7093 16.4076 16.2811 16.8358C15.853 17.264 15.3446 17.6037 14.7852 17.8354C14.2257 18.0671 13.6261 18.1864 13.0206 18.1864ZM13.0206 0.664062C9.59631 0.664062 6.3123 2.02435 3.89098 4.44567C1.46966 6.86699 0.109375 10.151 0.109375 13.5753C0.109375 23.2587 13.0206 37.5532 13.0206 37.5532C13.0206 37.5532 25.9318 23.2587 25.9318 13.5753C25.9318 10.151 24.5715 6.86699 22.1502 4.44567C19.7289 2.02435 16.4448 0.664063 13.0206 0.664062Z" fill="#0B1F1F"/>
<path d="M13.0206 18.1864C11.7976 18.1864 10.6248 17.7006 9.76001 16.8358C8.89525 15.9711 8.40943 14.7982 8.40943 13.5753C8.40943 12.3523 8.89525 11.1795 9.76001 10.3147C10.6248 9.44993 11.7976 8.96412 13.0206 8.96412C14.2435 8.96412 15.4164 9.44993 16.2811 10.3147C17.1459 11.1795 17.6317 12.3523 17.6317 13.5753C17.6317 14.1808 17.5124 14.7804 17.2807 15.3399C17.049 15.8993 16.7093 16.4076 16.2811 16.8358C15.853 17.264 15.3446 17.6037 14.7852 17.8354C14.2257 18.0671 13.6261 18.1864 13.0206 18.1864ZM13.0206 0.664062C9.59631 0.664062 6.3123 2.02435 3.89098 4.44567C1.46966 6.86699 0.109375 10.151 0.109375 13.5753C0.109375 23.2587 13.0206 37.5532 13.0206 37.5532C13.0206 37.5532 25.9318 23.2587 25.9318 13.5753C25.9318 10.151 24.5715 6.86699 22.1502 4.44567C19.7289 2.02435 16.4448 0.664063 13.0206 0.664062Z" fill="#1A213A"/>
<defs>
<linearGradient id="paint0_linear_26_1925" x1="-245.269" y1="-225.883" x2="44.7114" y2="-201.321" gradientUnits="userSpaceOnUse">
<stop stop-color="#AA851B"/>
<stop offset="1" stop-color="#F7CD93"/>
</linearGradient>
<linearGradient id="paint1_linear_26_1925" x1="0.109375" y1="19.1086" x2="25.9318" y2="19.1086" gradientUnits="userSpaceOnUse">
<stop stop-color="#FFFFE3"/>
<stop offset="0.41" stop-color="#DEC48F"/>
<stop offset="1" stop-color="#F4E5B1"/>
</linearGradient>
<linearGradient id="paint2_linear_26_1925" x1="13.0206" y1="0.664062" x2="13.0206" y2="37.5532" gradientUnits="userSpaceOnUse">
<stop stop-color="#1E3D3C"/>
<stop offset="1" stop-color="#173433"/>
</linearGradient>
</defs>
</svg>
