<svg width="299" height="62" viewBox="0 0 299 62" fill="none" xmlns="http://www.w3.org/2000/svg">
<path d="M0.999159 0.987793H16.866C19.2564 0.987793 21.3351 1.19564 23.0673 1.64601C24.8341 2.06174 26.2891 2.65069 27.467 3.41286C28.6103 4.17502 29.4764 5.07575 30.0307 6.11507C30.585 7.18903 30.8621 8.33226 30.8621 9.61408C30.8621 11.277 30.4118 12.6974 29.4764 13.9099C28.541 15.1225 27.1552 16.0232 25.2845 16.6122C27.6056 17.0625 29.4417 17.9979 30.7582 19.3836C32.1093 20.7348 32.7675 22.467 32.7675 24.5802C32.7675 27.3864 31.5897 29.6036 29.2685 31.2665C26.982 32.8947 23.3098 33.6916 18.2864 33.6916H0.999159V0.987793ZM7.78935 18.7601V30.1925H18.2864C20.6076 30.1925 22.409 29.7421 23.6562 28.8068C24.9034 27.8714 25.527 26.4856 25.527 24.6149C25.527 22.6402 24.9034 21.1505 23.6562 20.2151C22.409 19.2451 20.6076 18.7601 18.2864 18.7601H7.78935ZM16.9007 15.261C21.4044 15.261 23.6562 13.3903 23.6562 9.64874C23.6562 7.98584 23.0673 6.73865 21.924 5.87255C20.8154 4.97181 19.1179 4.52144 16.866 4.52144H7.7547V15.261H16.9007ZM47.0061 22.2591H61.4873L54.4892 4.97183H54.0042L47.0061 22.2591ZM59.5818 0.987793L72.8851 33.6569H66.1642L63.0809 25.7235H45.3432L42.2599 33.6569H35.539L48.8423 0.987793H59.5818ZM83.4168 33.6916H76.6612V1.02242H83.4168V33.6916ZM105.381 0.987793C108.187 0.987793 110.716 1.33422 113.003 2.06174C115.289 2.75462 117.264 3.7593 118.892 5.14506C120.555 6.53081 121.802 8.22833 122.738 10.2723C123.638 12.2817 124.089 14.6374 124.089 17.305C124.089 19.9726 123.638 22.363 122.738 24.407C121.837 26.4163 120.555 28.1139 118.892 29.4996C117.264 30.8854 115.324 31.9247 113.003 32.6176C110.716 33.3105 108.187 33.6569 105.381 33.6569H89.9645V0.987793H105.381ZM96.72 4.52144V30.1925H105.346C106.94 30.1925 108.395 29.95 109.781 29.4996C111.166 29.0146 112.379 28.2524 113.418 27.2131C114.458 26.1392 115.254 24.8227 115.843 23.1945C116.467 21.5662 116.779 19.6262 116.779 17.3743C116.779 15.1225 116.467 13.1478 115.843 11.5541C115.254 9.92588 114.458 8.60942 113.418 7.5701C112.379 6.49615 111.166 5.73398 109.781 5.28361C108.395 4.79859 106.94 4.52144 105.346 4.52144H96.72ZM136.387 22.2591H150.868L143.87 4.97183H143.385L136.387 22.2591ZM148.998 0.987793L162.301 33.6569H155.58L152.497 25.7235H134.759L131.676 33.6569H124.955L138.258 0.987793H148.998ZM181.008 31.3358C182.533 31.3358 183.918 31.1279 185.131 30.7122C186.378 30.2618 187.418 29.6382 188.318 28.7375C189.184 27.8367 189.843 26.6935 190.328 25.3424C190.813 23.9566 191.09 22.2937 191.09 20.3537V0.987793H197.845V20.3537C197.845 25.1345 196.39 28.7375 193.446 31.0932C190.501 33.449 186.344 34.6269 181.008 34.6269C175.639 34.6269 171.481 33.449 168.537 31.1279C165.627 28.7721 164.206 25.1692 164.206 20.3883V1.02242H170.962V20.3883C170.962 22.3284 171.204 23.9913 171.655 25.377C172.14 26.7628 172.832 27.8714 173.699 28.7721C174.565 29.6382 175.604 30.2964 176.817 30.7468C178.098 31.1625 179.484 31.3358 181.008 31.3358ZM231.207 30.1925V33.6916H204.358V1.02242H211.114V30.1925H231.207ZM242.189 4.52144V15.261H259.234V18.7601H242.189V30.1925H263.911V33.6916H235.434V1.02242H263.911V4.52144H242.189ZM297.723 4.52144H285.113V33.6916H278.358V4.52144H265.747V1.02242H297.723V4.52144Z" fill="white"/>
<path d="M0.999159 0.987793H16.866C19.2564 0.987793 21.3351 1.19564 23.0673 1.64601C24.8341 2.06174 26.2891 2.65069 27.467 3.41286C28.6103 4.17502 29.4764 5.07575 30.0307 6.11507C30.585 7.18903 30.8621 8.33226 30.8621 9.61408C30.8621 11.277 30.4118 12.6974 29.4764 13.9099C28.541 15.1225 27.1552 16.0232 25.2845 16.6122C27.6056 17.0625 29.4417 17.9979 30.7582 19.3836C32.1093 20.7348 32.7675 22.467 32.7675 24.5802C32.7675 27.3864 31.5897 29.6036 29.2685 31.2665C26.982 32.8947 23.3098 33.6916 18.2864 33.6916H0.999159V0.987793ZM7.78935 18.7601V30.1925H18.2864C20.6076 30.1925 22.409 29.7421 23.6562 28.8068C24.9034 27.8714 25.527 26.4856 25.527 24.6149C25.527 22.6402 24.9034 21.1505 23.6562 20.2151C22.409 19.2451 20.6076 18.7601 18.2864 18.7601H7.78935ZM16.9007 15.261C21.4044 15.261 23.6562 13.3903 23.6562 9.64874C23.6562 7.98584 23.0673 6.73865 21.924 5.87255C20.8154 4.97181 19.1179 4.52144 16.866 4.52144H7.7547V15.261H16.9007ZM47.0061 22.2591H61.4873L54.4892 4.97183H54.0042L47.0061 22.2591ZM59.5818 0.987793L72.8851 33.6569H66.1642L63.0809 25.7235H45.3432L42.2599 33.6569H35.539L48.8423 0.987793H59.5818ZM83.4168 33.6916H76.6612V1.02242H83.4168V33.6916ZM105.381 0.987793C108.187 0.987793 110.716 1.33422 113.003 2.06174C115.289 2.75462 117.264 3.7593 118.892 5.14506C120.555 6.53081 121.802 8.22833 122.738 10.2723C123.638 12.2817 124.089 14.6374 124.089 17.305C124.089 19.9726 123.638 22.363 122.738 24.407C121.837 26.4163 120.555 28.1139 118.892 29.4996C117.264 30.8854 115.324 31.9247 113.003 32.6176C110.716 33.3105 108.187 33.6569 105.381 33.6569H89.9645V0.987793H105.381ZM96.72 4.52144V30.1925H105.346C106.94 30.1925 108.395 29.95 109.781 29.4996C111.166 29.0146 112.379 28.2524 113.418 27.2131C114.458 26.1392 115.254 24.8227 115.843 23.1945C116.467 21.5662 116.779 19.6262 116.779 17.3743C116.779 15.1225 116.467 13.1478 115.843 11.5541C115.254 9.92588 114.458 8.60942 113.418 7.5701C112.379 6.49615 111.166 5.73398 109.781 5.28361C108.395 4.79859 106.94 4.52144 105.346 4.52144H96.72ZM136.387 22.2591H150.868L143.87 4.97183H143.385L136.387 22.2591ZM148.998 0.987793L162.301 33.6569H155.58L152.497 25.7235H134.759L131.676 33.6569H124.955L138.258 0.987793H148.998ZM181.008 31.3358C182.533 31.3358 183.918 31.1279 185.131 30.7122C186.378 30.2618 187.418 29.6382 188.318 28.7375C189.184 27.8367 189.843 26.6935 190.328 25.3424C190.813 23.9566 191.09 22.2937 191.09 20.3537V0.987793H197.845V20.3537C197.845 25.1345 196.39 28.7375 193.446 31.0932C190.501 33.449 186.344 34.6269 181.008 34.6269C175.639 34.6269 171.481 33.449 168.537 31.1279C165.627 28.7721 164.206 25.1692 164.206 20.3883V1.02242H170.962V20.3883C170.962 22.3284 171.204 23.9913 171.655 25.377C172.14 26.7628 172.832 27.8714 173.699 28.7721C174.565 29.6382 175.604 30.2964 176.817 30.7468C178.098 31.1625 179.484 31.3358 181.008 31.3358ZM231.207 30.1925V33.6916H204.358V1.02242H211.114V30.1925H231.207ZM242.189 4.52144V15.261H259.234V18.7601H242.189V30.1925H263.911V33.6916H235.434V1.02242H263.911V4.52144H242.189ZM297.723 4.52144H285.113V33.6916H278.358V4.52144H265.747V1.02242H297.723V4.52144Z" fill="#0B1F1F"/>
<path d="M168.956 59.261H167.327L163.239 54.0644V59.261H161.784V54.0644L157.696 59.261H156.068L160.398 53.718L156.241 48.4175H157.869L161.819 53.3715V48.4175H163.274V53.3715L167.223 48.4175H168.852L164.66 53.718L168.956 59.261Z" fill="white"/>
<path d="M168.956 59.261H167.327L163.239 54.0644V59.261H161.784V54.0644L157.696 59.261H156.068L160.398 53.718L156.241 48.4175H157.869L161.819 53.3715V48.4175H163.274V53.3715L167.223 48.4175H168.852L164.66 53.718L168.956 59.261Z" fill="#0B1F1F"/>
<path d="M177.022 59.261V51.189L171.444 59.261H170.266V48.4175H171.721V56.4895L177.299 48.4175H178.477V59.261H177.022Z" fill="white"/>
<path d="M177.022 59.261V51.189L171.444 59.261H170.266V48.4175H171.721V56.4895L177.299 48.4175H178.477V59.261H177.022Z" fill="#0B1F1F"/>
<path d="M179.831 57.9784C180.177 58.0477 180.489 58.013 180.766 57.9091C181.044 57.8052 181.251 57.632 181.425 57.3895C181.598 57.1123 181.736 56.7658 181.84 56.3155C181.944 55.8651 181.979 55.2762 181.979 54.6179V48.486H189.116V59.3295H187.661V49.8717H183.399V54.6526C183.399 55.6572 183.295 56.4541 183.122 57.0776C182.949 57.7012 182.672 58.1863 182.36 58.5327C182.048 58.8791 181.667 59.1216 181.217 59.2256C180.766 59.3295 180.316 59.3641 179.796 59.3295L179.831 57.9784Z" fill="white"/>
<path d="M179.831 57.9784C180.177 58.0477 180.489 58.013 180.766 57.9091C181.044 57.8052 181.251 57.632 181.425 57.3895C181.598 57.1123 181.736 56.7658 181.84 56.3155C181.944 55.8651 181.979 55.2762 181.979 54.6179V48.486H189.116V59.3295H187.661V49.8717H183.399V54.6526C183.399 55.6572 183.295 56.4541 183.122 57.0776C182.949 57.7012 182.672 58.1863 182.36 58.5327C182.048 58.8791 181.667 59.1216 181.217 59.2256C180.766 59.3295 180.316 59.3641 179.796 59.3295L179.831 57.9784Z" fill="#0B1F1F"/>
<path d="M190.88 53.8554C190.88 52.2964 191.434 50.9799 192.508 49.8713C193.582 48.7973 194.933 48.2431 196.492 48.2431C198.051 48.2431 199.368 48.7973 200.476 49.8713C201.55 50.9453 202.104 52.2964 202.104 53.8554C202.104 55.4143 201.55 56.7308 200.476 57.8394C199.402 58.9134 198.051 59.4677 196.492 59.4677C194.933 59.4677 193.582 58.9134 192.508 57.8394C191.434 56.7654 190.88 55.4143 190.88 53.8554ZM200.649 53.8554C200.649 52.6428 200.234 51.6381 199.437 50.8413C198.64 50.0099 197.67 49.6288 196.458 49.6288C195.28 49.6288 194.275 50.0445 193.478 50.8413C192.681 51.6728 192.3 52.6428 192.3 53.8554C192.3 55.0332 192.681 56.0379 193.478 56.8694C194.275 57.6662 195.28 58.0819 196.458 58.0819C197.635 58.0819 198.64 57.6662 199.437 56.8694C200.234 56.0379 200.649 55.0679 200.649 53.8554Z" fill="white"/>
<path d="M190.88 53.8554C190.88 52.2964 191.434 50.9799 192.508 49.8713C193.582 48.7973 194.933 48.2431 196.492 48.2431C198.051 48.2431 199.368 48.7973 200.476 49.8713C201.55 50.9453 202.104 52.2964 202.104 53.8554C202.104 55.4143 201.55 56.7308 200.476 57.8394C199.402 58.9134 198.051 59.4677 196.492 59.4677C194.933 59.4677 193.582 58.9134 192.508 57.8394C191.434 56.7654 190.88 55.4143 190.88 53.8554ZM200.649 53.8554C200.649 52.6428 200.234 51.6381 199.437 50.8413C198.64 50.0099 197.67 49.6288 196.458 49.6288C195.28 49.6288 194.275 50.0445 193.478 50.8413C192.681 51.6728 192.3 52.6428 192.3 53.8554C192.3 55.0332 192.681 56.0379 193.478 56.8694C194.275 57.6662 195.28 58.0819 196.458 58.0819C197.635 58.0819 198.64 57.6662 199.437 56.8694C200.234 56.0379 200.649 55.0679 200.649 53.8554Z" fill="#0B1F1F"/>
<path d="M210.558 59.2608V51.1887L204.981 59.2608H203.803V48.4173H205.258V56.4893L210.836 48.4173H212.013V59.2608H210.558ZM205.812 47.274V46.0961H209.97V47.274H205.812Z" fill="white"/>
<path d="M210.558 59.2608V51.1887L204.981 59.2608H203.803V48.4173H205.258V56.4893L210.836 48.4173H212.013V59.2608H210.558ZM205.812 47.274V46.0961H209.97V47.274H205.812Z" fill="#0B1F1F"/>
<path d="M226.045 59.261H224.278L219.601 54.0644V59.261H218.146V48.4175H219.601V53.3369L224.105 48.4521H225.872L221.091 53.718L226.045 59.261Z" fill="white"/>
<path d="M226.045 59.261H224.278L219.601 54.0644V59.261H218.146V48.4175H219.601V53.3369L224.105 48.4521H225.872L221.091 53.718L226.045 59.261Z" fill="#0B1F1F"/>
<path d="M225.837 53.8554C225.837 52.2964 226.391 50.9799 227.465 49.8713C228.539 48.7973 229.89 48.2431 231.449 48.2431C233.008 48.2431 234.325 48.7973 235.433 49.8713C236.507 50.9453 237.062 52.2964 237.062 53.8554C237.062 55.4143 236.507 56.7308 235.433 57.8394C234.359 58.9134 233.008 59.4677 231.449 59.4677C229.89 59.4677 228.539 58.9134 227.465 57.8394C226.391 56.7654 225.837 55.4143 225.837 53.8554ZM235.607 53.8554C235.607 52.6428 235.191 51.6381 234.394 50.8413C233.597 50.0099 232.627 49.6288 231.415 49.6288C230.237 49.6288 229.232 50.0445 228.435 50.8413C227.638 51.6728 227.257 52.6428 227.257 53.8554C227.257 55.0332 227.638 56.0379 228.435 56.8694C229.232 57.6662 230.237 58.0819 231.415 58.0819C232.592 58.0819 233.597 57.6662 234.394 56.8694C235.191 56.0379 235.607 55.0679 235.607 53.8554Z" fill="white"/>
<path d="M225.837 53.8554C225.837 52.2964 226.391 50.9799 227.465 49.8713C228.539 48.7973 229.89 48.2431 231.449 48.2431C233.008 48.2431 234.325 48.7973 235.433 49.8713C236.507 50.9453 237.062 52.2964 237.062 53.8554C237.062 55.4143 236.507 56.7308 235.433 57.8394C234.359 58.9134 233.008 59.4677 231.449 59.4677C229.89 59.4677 228.539 58.9134 227.465 57.8394C226.391 56.7654 225.837 55.4143 225.837 53.8554ZM235.607 53.8554C235.607 52.6428 235.191 51.6381 234.394 50.8413C233.597 50.0099 232.627 49.6288 231.415 49.6288C230.237 49.6288 229.232 50.0445 228.435 50.8413C227.638 51.6728 227.257 52.6428 227.257 53.8554C227.257 55.0332 227.638 56.0379 228.435 56.8694C229.232 57.6662 230.237 58.0819 231.415 58.0819C232.592 58.0819 233.597 57.6662 234.394 56.8694C235.191 56.0379 235.607 55.0679 235.607 53.8554Z" fill="#0B1F1F"/>
<path d="M248.911 48.4507V59.2942H247.456V50.8411L243.922 56.7305H243.749L240.215 50.8411V59.2942H238.76V48.4507H240.388L243.853 54.1669L247.282 48.4507H248.911Z" fill="white"/>
<path d="M248.911 48.4507V59.2942H247.456V50.8411L243.922 56.7305H243.749L240.215 50.8411V59.2942H238.76V48.4507H240.388L243.853 54.1669L247.282 48.4507H248.911Z" fill="#0B1F1F"/>
<path d="M259.059 48.4507V59.2942H257.604V49.8364H252.615V59.2942H251.16V48.4507H259.059Z" fill="white"/>
<path d="M259.059 48.4507V59.2942H257.604V49.8364H252.615V59.2942H251.16V48.4507H259.059Z" fill="#0B1F1F"/>
<path d="M260.447 57.9784C260.793 58.0477 261.105 58.013 261.382 57.9091C261.659 57.8052 261.867 57.632 262.04 57.3895C262.214 57.1123 262.352 56.7658 262.456 56.3155C262.525 55.8651 262.595 55.2762 262.595 54.6179V48.486H269.731V59.3295H268.276V49.8717H264.015V54.6526C264.015 55.6572 263.911 56.4541 263.738 57.0776C263.565 57.7012 263.288 58.1863 262.976 58.5327C262.664 58.8791 262.283 59.1216 261.832 59.2256C261.382 59.3295 260.932 59.3641 260.412 59.3295L260.447 57.9784Z" fill="white"/>
<path d="M260.447 57.9784C260.793 58.0477 261.105 58.013 261.382 57.9091C261.659 57.8052 261.867 57.632 262.04 57.3895C262.214 57.1123 262.352 56.7658 262.456 56.3155C262.525 55.8651 262.595 55.2762 262.595 54.6179V48.486H269.731V59.3295H268.276V49.8717H264.015V54.6526C264.015 55.6572 263.911 56.4541 263.738 57.0776C263.565 57.7012 263.288 58.1863 262.976 58.5327C262.664 58.8791 262.283 59.1216 261.832 59.2256C261.382 59.3295 260.932 59.3641 260.412 59.3295L260.447 57.9784Z" fill="#0B1F1F"/>
<path d="M273.47 57.9099H278.493V59.261H272.015V48.4175H278.389V49.7686H273.435V53.0944H278.008V54.4455H273.435L273.47 57.9099Z" fill="white"/>
<path d="M273.47 57.9099H278.493V59.261H272.015V48.4175H278.389V49.7686H273.435V53.0944H278.008V54.4455H273.435L273.47 57.9099Z" fill="#0B1F1F"/>
<path d="M288.127 59.261H286.361L281.684 54.0644V59.261H280.229V48.4175H281.684V53.3369L286.187 48.4521H287.954L283.173 53.718L288.127 59.261Z" fill="white"/>
<path d="M288.127 59.261H286.361L281.684 54.0644V59.261H280.229V48.4175H281.684V53.3369L286.187 48.4521H287.954L283.173 53.718L288.127 59.261Z" fill="#0B1F1F"/>
<path d="M293.566 59.4677C291.903 59.4677 290.552 58.9134 289.513 57.8394C288.439 56.7654 287.919 55.449 287.919 53.8554C287.919 52.2617 288.439 50.9453 289.513 49.8713C290.587 48.7973 291.938 48.2431 293.566 48.2431C294.051 48.2431 294.536 48.3124 294.987 48.4163C295.437 48.5549 295.887 48.7281 296.268 48.9359C296.684 49.1784 297.031 49.4209 297.377 49.7674C297.724 50.0792 298.001 50.4603 298.243 50.8413L296.996 51.5689C296.684 50.9799 296.234 50.4949 295.61 50.1485C294.987 49.802 294.328 49.6288 293.566 49.6288C292.319 49.6288 291.28 50.0445 290.518 50.8413C289.721 51.6381 289.34 52.6428 289.34 53.8554C289.34 55.0679 289.721 56.0726 290.518 56.8694C291.314 57.6662 292.319 58.0819 293.566 58.0819C294.294 58.0819 294.987 57.9087 295.61 57.5622C296.234 57.2158 296.684 56.7308 296.996 56.1419L298.243 56.8694C297.793 57.6662 297.135 58.3244 296.303 58.8094C295.506 59.2251 294.571 59.4677 293.566 59.4677Z" fill="white"/>
<path d="M293.566 59.4677C291.903 59.4677 290.552 58.9134 289.513 57.8394C288.439 56.7654 287.919 55.449 287.919 53.8554C287.919 52.2617 288.439 50.9453 289.513 49.8713C290.587 48.7973 291.938 48.2431 293.566 48.2431C294.051 48.2431 294.536 48.3124 294.987 48.4163C295.437 48.5549 295.887 48.7281 296.268 48.9359C296.684 49.1784 297.031 49.4209 297.377 49.7674C297.724 50.0792 298.001 50.4603 298.243 50.8413L296.996 51.5689C296.684 50.9799 296.234 50.4949 295.61 50.1485C294.987 49.802 294.328 49.6288 293.566 49.6288C292.319 49.6288 291.28 50.0445 290.518 50.8413C289.721 51.6381 289.34 52.6428 289.34 53.8554C289.34 55.0679 289.721 56.0726 290.518 56.8694C291.314 57.6662 292.319 58.0819 293.566 58.0819C294.294 58.0819 294.987 57.9087 295.61 57.5622C296.234 57.2158 296.684 56.7308 296.996 56.1419L298.243 56.8694C297.793 57.6662 297.135 58.3244 296.303 58.8094C295.506 59.2251 294.571 59.4677 293.566 59.4677Z" fill="#0B1F1F"/>
<path d="M8.13517 48.4507V49.8018H4.94794V59.2595H3.49289V49.8018H0.305664V48.4507H8.13517Z" fill="white"/>
<path d="M8.13517 48.4507V49.8018H4.94794V59.2595H3.49289V49.8018H0.305664V48.4507H8.13517Z" fill="#0B1F1F"/>
<path d="M17.5936 48.4507L13.7481 54.8944V55.2755H15.8614V56.5573H13.7481V59.2595H12.2931V56.5573H10.1798V55.2755H12.2931V54.8944L8.48226 48.4507H10.0759L13.0206 53.5087L15.9653 48.4507H17.5936Z" fill="white"/>
<path d="M17.5936 48.4507L13.7481 54.8944V55.2755H15.8614V56.5573H13.7481V59.2595H12.2931V56.5573H10.1798V55.2755H12.2931V54.8944L8.48226 48.4507H10.0759L13.0206 53.5087L15.9653 48.4507H17.5936Z" fill="#0B1F1F"/>
<path d="M22.8258 48.4521C23.8305 48.4521 24.6619 48.7985 25.3201 49.4568C25.9784 50.115 26.3248 50.9465 26.3248 51.9165C26.3248 52.8865 25.9784 53.718 25.3201 54.3762C24.6619 55.0344 23.8305 55.3809 22.8258 55.3809H20.3314V59.261H18.8764V48.4175H22.8258V48.4521ZM22.7911 54.0644C23.3801 54.0644 23.8651 53.8565 24.2808 53.4755C24.6619 53.0597 24.8698 52.5401 24.8698 51.9511C24.8698 51.6393 24.8351 51.3622 24.7312 51.085C24.6273 50.8079 24.4887 50.6 24.2808 50.4268C24.1076 50.2536 23.8651 50.0804 23.6226 49.9764C23.3801 49.8725 23.1029 49.8032 22.7911 49.8032H20.2968V54.0644H22.7911Z" fill="white"/>
<path d="M22.8258 48.4521C23.8305 48.4521 24.6619 48.7985 25.3201 49.4568C25.9784 50.115 26.3248 50.9465 26.3248 51.9165C26.3248 52.8865 25.9784 53.718 25.3201 54.3762C24.6619 55.0344 23.8305 55.3809 22.8258 55.3809H20.3314V59.261H18.8764V48.4175H22.8258V48.4521ZM22.7911 54.0644C23.3801 54.0644 23.8651 53.8565 24.2808 53.4755C24.6619 53.0597 24.8698 52.5401 24.8698 51.9511C24.8698 51.6393 24.8351 51.3622 24.7312 51.085C24.6273 50.8079 24.4887 50.6 24.2808 50.4268C24.1076 50.2536 23.8651 50.0804 23.6226 49.9764C23.3801 49.8725 23.1029 49.8032 22.7911 49.8032H20.2968V54.0644H22.7911Z" fill="#0B1F1F"/>
<path d="M27.1208 53.2315H28.2641V48.4507H34.3268V49.8018H29.6845V53.2315H32.7678V54.5133H29.6845V59.2595H28.2295V54.5133H27.0862L27.1208 53.2315Z" fill="white"/>
<path d="M27.1208 53.2315H28.2641V48.4507H34.3268V49.8018H29.6845V53.2315H32.7678V54.5133H29.6845V59.2595H28.2295V54.5133H27.0862L27.1208 53.2315Z" fill="#0B1F1F"/>
<path d="M35.7487 59.261V48.4175H37.2037V52.2976H39.6981C40.7027 52.2976 41.5342 52.644 42.1924 53.3023C42.8506 53.9605 43.1971 54.7919 43.1971 55.7619C43.1971 56.732 42.8506 57.5634 42.1924 58.2563C41.5342 58.9145 40.7027 59.261 39.6981 59.261H35.7487ZM37.2037 57.9099H39.6981C40.0099 57.9099 40.287 57.8406 40.5295 57.7367C40.772 57.6327 41.0145 57.4942 41.1877 57.2863C41.361 57.1131 41.5342 56.8706 41.6381 56.6281C41.7421 56.3509 41.7767 56.0737 41.7767 55.7619C41.7767 55.4501 41.7421 55.173 41.6381 54.8958C41.5342 54.6187 41.3956 54.4108 41.1877 54.2376C41.0145 54.0644 40.772 53.8912 40.5295 53.7873C40.287 53.6833 40.0099 53.614 39.6981 53.614H37.2037V57.9099ZM44.271 59.261V48.4175H45.7261V59.261H44.271Z" fill="white"/>
<path d="M35.7487 59.261V48.4175H37.2037V52.2976H39.6981C40.7027 52.2976 41.5342 52.644 42.1924 53.3023C42.8506 53.9605 43.1971 54.7919 43.1971 55.7619C43.1971 56.732 42.8506 57.5634 42.1924 58.2563C41.5342 58.9145 40.7027 59.261 39.6981 59.261H35.7487ZM37.2037 57.9099H39.6981C40.0099 57.9099 40.287 57.8406 40.5295 57.7367C40.772 57.6327 41.0145 57.4942 41.1877 57.2863C41.361 57.1131 41.5342 56.8706 41.6381 56.6281C41.7421 56.3509 41.7767 56.0737 41.7767 55.7619C41.7767 55.4501 41.7421 55.173 41.6381 54.8958C41.5342 54.6187 41.3956 54.4108 41.1877 54.2376C41.0145 54.0644 40.772 53.8912 40.5295 53.7873C40.287 53.6833 40.0099 53.614 39.6981 53.614H37.2037V57.9099ZM44.271 59.261V48.4175H45.7261V59.261H44.271Z" fill="#0B1F1F"/>
<path d="M54.7324 48.4507H56.1874V59.2942H54.7324V54.4094H49.4665V59.2942H48.0115V48.4507H49.4665V53.0583H54.7324V48.4507Z" fill="white"/>
<path d="M54.7324 48.4507H56.1874V59.2942H54.7324V54.4094H49.4665V59.2942H48.0115V48.4507H49.4665V53.0583H54.7324V48.4507Z" fill="#0B1F1F"/>
<path d="M70.4238 48.4521L66.5783 54.8958V59.261H65.1233V54.8612L61.3125 48.4175H62.9061L65.8508 53.4755L68.7955 48.4175H70.4238V48.4521Z" fill="white"/>
<path d="M70.4238 48.4521L66.5783 54.8958V59.261H65.1233V54.8612L61.3125 48.4175H62.9061L65.8508 53.4755L68.7955 48.4175H70.4238V48.4521Z" fill="#0B1F1F"/>
<path d="M78.4248 59.2608V51.1887L72.8471 59.2608H71.6692V48.4173H73.1243V56.4893L78.7019 48.4173H79.8798V59.2608H78.4248ZM73.6786 47.274V46.0961H77.8358V47.274H73.6786Z" fill="white"/>
<path d="M78.4248 59.2608V51.1887L72.8471 59.2608H71.6692V48.4173H73.1243V56.4893L78.7019 48.4173H79.8798V59.2608H78.4248ZM73.6786 47.274V46.0961H77.8358V47.274H73.6786Z" fill="#0B1F1F"/>
<path d="M93.9113 59.261H92.1445L87.4676 54.0644V59.261H86.0125V48.4175H87.4676V53.3369L91.9713 48.4521H93.7381L88.9919 53.718L93.9113 59.261Z" fill="white"/>
<path d="M93.9113 59.261H92.1445L87.4676 54.0644V59.261H86.0125V48.4175H87.4676V53.3369L91.9713 48.4521H93.7381L88.9919 53.718L93.9113 59.261Z" fill="#0B1F1F"/>
<path d="M96.6491 57.9099H101.672V59.261H95.1941V48.4175H101.569V49.7686H96.6145V53.0944H101.187V54.4455H96.6145L96.6491 57.9099Z" fill="white"/>
<path d="M96.6491 57.9099H101.672V59.261H95.1941V48.4175H101.569V49.7686H96.6145V53.0944H101.187V54.4455H96.6145L96.6491 57.9099Z" fill="#0B1F1F"/>
<path d="M114.286 48.4507H115.741V59.2942H103.408V48.4507H104.863V57.9084H108.882V48.4507H110.337V57.9084H114.356L114.286 48.4507Z" fill="white"/>
<path d="M114.286 48.4507H115.741V59.2942H103.408V48.4507H104.863V57.9084H108.882V48.4507H110.337V57.9084H114.356L114.286 48.4507Z" fill="#0B1F1F"/>
<path d="M119.48 57.9099H124.504V59.261H118.025V48.4175H124.4V49.7686H119.446V53.0944H124.019V54.4455H119.446L119.48 57.9099Z" fill="white"/>
<path d="M119.48 57.9099H124.504V59.261H118.025V48.4175H124.4V49.7686H119.446V53.0944H124.019V54.4455H119.446L119.48 57.9099Z" fill="#0B1F1F"/>
<path d="M132.956 48.4507H134.411V59.2942H132.956V54.4094H127.69V59.2942H126.235V48.4507H127.69V53.0583H132.956V48.4507Z" fill="white"/>
<path d="M132.956 48.4507H134.411V59.2942H132.956V54.4094H127.69V59.2942H126.235V48.4507H127.69V53.0583H132.956V48.4507Z" fill="#0B1F1F"/>
<path d="M136.7 48.4507H138.155V59.2942H136.7V48.4507Z" fill="white"/>
<path d="M136.7 48.4507H138.155V59.2942H136.7V48.4507Z" fill="#0B1F1F"/>
<path d="M147.785 46.337H146.33V61.3724H147.785V46.337Z" fill="white"/>
<path d="M147.785 46.337H146.33V61.3724H147.785V46.337Z" fill="#0B1F1F"/>
</svg>
