<svg width="42" height="39" viewBox="0 0 42 39" fill="none" xmlns="http://www.w3.org/2000/svg">
<path d="M23.6221 9.32129C23.6993 9.41028 23.7617 9.52437 23.7881 9.67285L23.6572 9.77832L23.5078 9.59473L23.4199 9.48633C23.4366 9.47275 23.5107 9.41184 23.6221 9.32129ZM39.7939 1.16797C39.0278 1.32988 38.2957 1.56521 37.6016 1.875L37.4492 1.16797H39.7939Z" fill="#664638"/>
<path d="M23.6221 9.32129C23.6993 9.41028 23.7617 9.52437 23.7881 9.67285L23.6572 9.77832L23.5078 9.59473L23.4199 9.48633C23.4366 9.47275 23.5107 9.41184 23.6221 9.32129ZM39.7939 1.16797C39.0278 1.32988 38.2957 1.56521 37.6016 1.875L37.4492 1.16797H39.7939Z" fill="#664638"/>
<path d="M23.6221 9.32129C23.6993 9.41028 23.7617 9.52437 23.7881 9.67285L23.6572 9.77832L23.5078 9.59473L23.4199 9.48633C23.4366 9.47275 23.5107 9.41184 23.6221 9.32129ZM39.7939 1.16797C39.0278 1.32988 38.2957 1.56521 37.6016 1.875L37.4492 1.16797H39.7939Z" stroke="#664638" stroke-width="1.20329"/>
</svg>
