<svg width="42" height="35" viewBox="0 0 42 35" fill="none" xmlns="http://www.w3.org/2000/svg">
<mask id="path-1-inside-1_28_323" fill="white">
<path fill-rule="evenodd" clip-rule="evenodd" d="M1.45009 0.41714C1.22025 0.53104 1.05574 0.696462 0.945143 0.924929L0.857422 1.10609L0.85834 17.4911L0.859259 33.876L0.944433 34.0639C1.04606 34.2881 1.15474 34.4119 1.37932 34.5593L1.54633 34.669L1.88035 34.6691L2.21436 34.6693L2.33962 34.5886C2.54884 34.4539 2.69756 34.3021 2.7923 34.1265L2.8824 33.9595L2.89434 31.903L2.90628 29.8465L6.42239 29.8571L9.9385 29.8678L9.95938 31.9137L9.98025 33.9595L10.0509 34.1057C10.1433 34.2969 10.2757 34.4376 10.4813 34.5634L10.6483 34.6655L10.9645 34.6674L11.2807 34.6693L11.4812 34.544L11.6816 34.4188L11.8011 34.2518L11.9206 34.0848L11.9629 33.8599L12.0052 33.635V18.0045V2.37406H15.4291H18.8529L18.8423 6.66075L18.8317 10.9474L18.5394 11.0386C17.2178 11.4506 16.1429 12.5147 15.7057 13.8437C15.5608 14.284 15.5128 14.622 15.5142 15.192L15.5153 15.6721L15.5716 15.9875C15.7692 17.0953 16.445 18.1154 17.4245 18.7843C17.8829 19.0974 18.2265 19.2412 19.0405 19.4611L19.2075 19.5062L19.8337 19.5077L20.46 19.5091L20.8781 19.3982C21.3908 19.2623 21.8533 19.0527 22.3087 18.7502L22.6543 18.5205L22.9691 18.1858C23.6153 17.4989 23.9724 16.7946 24.1347 15.887L24.2082 15.4756L24.1851 15.0311C24.1311 13.9959 23.7903 13.1207 23.14 12.3476L22.8973 12.0591L22.5293 11.778C22.0144 11.3847 21.6308 11.1801 21.1072 11.0196L20.8776 10.9491L20.8669 6.66162L20.8563 2.37406H24.7185H28.5808V6.66735V10.9607L28.3707 11.0091C28.2551 11.0358 28.0767 11.0959 27.9742 11.1426C27.8717 11.1893 27.7421 11.2448 27.6862 11.2661C27.6303 11.2873 27.4188 11.4126 27.2163 11.5444L26.8481 11.7841L26.5118 12.1207C25.5171 13.116 25.103 14.3644 25.2849 15.8193L25.3291 16.1731L25.458 16.5458C25.9605 17.9988 27.0078 18.9728 28.5182 19.3917L28.9357 19.5075L29.562 19.5091L30.1883 19.5107L30.6267 19.3941C31.5293 19.1541 32.3133 18.6725 32.8455 18.0311C33.2907 17.4945 33.4348 17.2544 33.6577 16.6782L33.8015 16.3064L33.8632 15.9266C33.9409 15.4476 33.9412 14.9893 33.8644 14.4797C33.7899 13.9853 33.7232 13.7801 33.4646 13.2505L33.2608 12.833L32.9935 12.4962C32.6135 12.0174 31.8671 11.4135 31.4678 11.2616C31.4077 11.2388 31.2985 11.1916 31.2249 11.1567C31.1514 11.1218 30.9821 11.0608 30.8485 11.0212L30.6058 10.9491L30.5951 6.66162L30.5845 2.37406H34.0084H37.4323V4.0818V5.78955L36.879 5.80408L36.3258 5.81861L36.0796 5.94336L35.8333 6.06816L35.6954 6.27738L35.5575 6.48664L35.5305 6.69645L35.5034 6.90629L35.5504 7.0809C35.5763 7.17697 35.6581 7.33617 35.7323 7.43475L35.8671 7.61395L36.0935 7.72877L36.3199 7.84359H36.8761H37.4323V9.5763V11.309H36.9256H36.419L36.2679 11.3543C36.1847 11.3792 36.0432 11.4497 35.9532 11.5109L35.7898 11.6222L35.6611 11.8309L35.5325 12.0397L35.5342 12.3409L35.5359 12.6422L35.7013 12.8795L35.8666 13.1168L36.0753 13.2254L36.2841 13.334L36.8582 13.3484L37.4323 13.3629V15.0877V16.8124L36.8373 16.8268L36.2423 16.8412L36.0564 16.9455L35.8704 17.0499L35.7339 17.2291C35.6589 17.3277 35.5762 17.4872 35.5502 17.5836L35.5031 17.7588L35.5279 17.9402C35.5765 18.2951 35.8268 18.6431 36.1218 18.7664L36.2605 18.8244H36.8464H37.4323V20.5571V22.2898L36.9625 22.2903L36.4928 22.2907L36.2857 22.3535C36.0013 22.4398 35.8237 22.5685 35.6776 22.7942L35.5537 22.9855L35.5276 23.1764L35.5014 23.3673L35.5527 23.5809L35.6039 23.7945L35.8187 24.0196L36.0336 24.2446L36.2006 24.2899L36.3676 24.3352L36.8999 24.3354L37.4323 24.3357V26.0684V27.8011H36.9379H36.4435L36.2471 27.8602C35.9866 27.9386 35.7981 28.0882 35.6527 28.3318L35.5334 28.5317L35.533 28.824L35.5325 29.1163L35.6483 29.3132C35.7894 29.5532 35.9864 29.7094 36.2471 29.7878L36.4435 29.8469H36.9364H37.4292L37.4412 31.9032L37.4531 33.9595L37.5432 34.1265C37.638 34.3021 37.7867 34.4539 37.9959 34.5886L38.1212 34.6693L38.4552 34.6691L38.7892 34.669L38.9562 34.5593C39.1808 34.4119 39.2895 34.2881 39.3911 34.0639L39.4763 33.876L39.4772 31.8615L39.4781 29.8469H39.9715H40.465L40.6819 29.7825L40.8988 29.7181L41.051 29.5845L41.2032 29.4509L41.3005 29.2418L41.3979 29.0328L41.3983 28.8246L41.3987 28.6165L41.286 28.3936C41.224 28.2711 41.1115 28.1166 41.036 28.0504L40.8988 27.9299L40.6819 27.8655L40.465 27.8011H39.9715H39.4781V26.0684V24.3357L40.0313 24.3338L40.5845 24.332L40.7375 24.2774C40.9447 24.2034 41.1135 24.0597 41.2575 23.8346L41.3778 23.6468L41.3751 23.3336L41.3724 23.0205L41.2596 22.8274L41.1469 22.6343L40.9846 22.5218C40.8953 22.4599 40.7329 22.3825 40.6237 22.3496L40.4251 22.2898H39.9516H39.4781V20.56V18.8303L40.1213 18.8169L40.7645 18.8035L40.9459 18.6722L41.1273 18.5408L41.2497 18.342L41.372 18.1433L41.3906 17.9191L41.4092 17.6949L41.3362 17.5037C41.296 17.3986 41.2046 17.2458 41.1329 17.1642L41.0027 17.0158L40.7936 16.9184L40.5845 16.8211L40.0313 16.8207L39.4781 16.8203V15.0876V13.3549H39.9606H40.4432L40.6182 13.3103C40.7145 13.2858 40.868 13.2147 40.9594 13.1524L41.1254 13.039L41.2517 12.8347L41.3778 12.6304L41.377 12.335L41.3762 12.0397L41.2572 11.8397C41.1185 11.6064 40.9425 11.4611 40.6913 11.3725L40.5114 11.309H39.9947H39.4781V9.5763V7.84359L40.0313 7.84317L40.5845 7.84275L40.7936 7.74543L41.0027 7.64806L41.1329 7.49972C41.2046 7.41809 41.2963 7.26465 41.3367 7.15873L41.4103 6.96608L41.387 6.74004L41.3636 6.51399L41.2213 6.29153L41.079 6.06912L40.8318 5.94386L40.5845 5.81861L40.0313 5.80408L39.4781 5.78955V3.4622V1.13482L39.3513 0.880964L39.2244 0.627112L39.0078 0.488119L38.7911 0.349085L20.2105 0.338605L1.62984 0.328125L1.45009 0.41714ZM9.95938 4.0859V5.79773H6.43133H2.90327V4.0859V2.37406H6.43133H9.95938V4.0859ZM9.9494 9.58673L9.9603 11.309H6.43179H2.90327V9.57605V7.84313L6.42089 7.85377L9.9385 7.86446L9.9494 9.58673ZM20.1819 12.8962L20.4883 12.936L20.7456 13.0494C21.4281 13.3502 21.9073 13.919 22.0919 14.6473L22.1602 14.9168L22.1423 15.2945L22.1244 15.6721L22.0256 15.9435C21.8955 16.3008 21.6664 16.6364 21.3761 16.8953L21.1403 17.1054L20.8236 17.2578L20.507 17.4102L20.1808 17.4578L19.8546 17.5053L19.5102 17.4558L19.1657 17.4064L18.8162 17.234L18.4667 17.0618L18.2108 16.8021L17.9549 16.5425L17.7995 16.2325L17.6441 15.9226L17.5716 15.5331L17.4991 15.1436L17.5717 14.7816L17.6444 14.4195L17.7775 14.1482L17.9106 13.8768L18.2305 13.5531L18.5505 13.2294L18.8721 13.0828L19.1938 12.9362L19.472 12.9003C19.8516 12.8513 19.837 12.8514 20.1819 12.8962ZM29.9091 12.8971L30.254 12.9403L30.5556 13.0835L30.8572 13.2266L31.0986 13.4418C31.2314 13.5602 31.4116 13.7628 31.4989 13.8921L31.6579 14.1273L31.7758 14.4822L31.8938 14.8371L31.891 15.2128L31.8882 15.5886L31.7832 15.8873C31.4653 16.7912 30.7022 17.3954 29.7799 17.4733L29.4762 17.499L29.1787 17.4488L28.8812 17.3986L28.6262 17.278C27.9834 16.9741 27.5544 16.4736 27.3718 15.8148L27.2865 15.5068V15.1711V14.8354L27.3718 14.5273C27.4847 14.1203 27.6215 13.8961 27.9748 13.5392L28.2677 13.2433L28.5938 13.0899L28.92 12.9364L29.1992 12.9004C29.3528 12.8806 29.4978 12.862 29.5213 12.8591C29.5449 12.8562 29.7194 12.8733 29.9091 12.8971ZM9.9494 15.0771L9.9385 16.7994L6.42089 16.8101L2.90327 16.8207V15.0878V13.3549H6.43179H9.9603L9.9494 15.0771ZM9.9494 20.5675L9.9603 22.2898H6.43179H2.90327V20.5568V18.8239L6.42089 18.8346L9.9385 18.8453L9.9494 20.5675ZM9.9494 26.0579L9.9385 27.7802L6.42089 27.7909L2.90327 27.8015V26.0686V24.3357H6.43179H9.9603L9.9494 26.0579Z"/>
</mask>
<path fill-rule="evenodd" clip-rule="evenodd" d="M1.45009 0.41714C1.22025 0.53104 1.05574 0.696462 0.945143 0.924929L0.857422 1.10609L0.85834 17.4911L0.859259 33.876L0.944433 34.0639C1.04606 34.2881 1.15474 34.4119 1.37932 34.5593L1.54633 34.669L1.88035 34.6691L2.21436 34.6693L2.33962 34.5886C2.54884 34.4539 2.69756 34.3021 2.7923 34.1265L2.8824 33.9595L2.89434 31.903L2.90628 29.8465L6.42239 29.8571L9.9385 29.8678L9.95938 31.9137L9.98025 33.9595L10.0509 34.1057C10.1433 34.2969 10.2757 34.4376 10.4813 34.5634L10.6483 34.6655L10.9645 34.6674L11.2807 34.6693L11.4812 34.544L11.6816 34.4188L11.8011 34.2518L11.9206 34.0848L11.9629 33.8599L12.0052 33.635V18.0045V2.37406H15.4291H18.8529L18.8423 6.66075L18.8317 10.9474L18.5394 11.0386C17.2178 11.4506 16.1429 12.5147 15.7057 13.8437C15.5608 14.284 15.5128 14.622 15.5142 15.192L15.5153 15.6721L15.5716 15.9875C15.7692 17.0953 16.445 18.1154 17.4245 18.7843C17.8829 19.0974 18.2265 19.2412 19.0405 19.4611L19.2075 19.5062L19.8337 19.5077L20.46 19.5091L20.8781 19.3982C21.3908 19.2623 21.8533 19.0527 22.3087 18.7502L22.6543 18.5205L22.9691 18.1858C23.6153 17.4989 23.9724 16.7946 24.1347 15.887L24.2082 15.4756L24.1851 15.0311C24.1311 13.9959 23.7903 13.1207 23.14 12.3476L22.8973 12.0591L22.5293 11.778C22.0144 11.3847 21.6308 11.1801 21.1072 11.0196L20.8776 10.9491L20.8669 6.66162L20.8563 2.37406H24.7185H28.5808V6.66735V10.9607L28.3707 11.0091C28.2551 11.0358 28.0767 11.0959 27.9742 11.1426C27.8717 11.1893 27.7421 11.2448 27.6862 11.2661C27.6303 11.2873 27.4188 11.4126 27.2163 11.5444L26.8481 11.7841L26.5118 12.1207C25.5171 13.116 25.103 14.3644 25.2849 15.8193L25.3291 16.1731L25.458 16.5458C25.9605 17.9988 27.0078 18.9728 28.5182 19.3917L28.9357 19.5075L29.562 19.5091L30.1883 19.5107L30.6267 19.3941C31.5293 19.1541 32.3133 18.6725 32.8455 18.0311C33.2907 17.4945 33.4348 17.2544 33.6577 16.6782L33.8015 16.3064L33.8632 15.9266C33.9409 15.4476 33.9412 14.9893 33.8644 14.4797C33.7899 13.9853 33.7232 13.7801 33.4646 13.2505L33.2608 12.833L32.9935 12.4962C32.6135 12.0174 31.8671 11.4135 31.4678 11.2616C31.4077 11.2388 31.2985 11.1916 31.2249 11.1567C31.1514 11.1218 30.9821 11.0608 30.8485 11.0212L30.6058 10.9491L30.5951 6.66162L30.5845 2.37406H34.0084H37.4323V4.0818V5.78955L36.879 5.80408L36.3258 5.81861L36.0796 5.94336L35.8333 6.06816L35.6954 6.27738L35.5575 6.48664L35.5305 6.69645L35.5034 6.90629L35.5504 7.0809C35.5763 7.17697 35.6581 7.33617 35.7323 7.43475L35.8671 7.61395L36.0935 7.72877L36.3199 7.84359H36.8761H37.4323V9.5763V11.309H36.9256H36.419L36.2679 11.3543C36.1847 11.3792 36.0432 11.4497 35.9532 11.5109L35.7898 11.6222L35.6611 11.8309L35.5325 12.0397L35.5342 12.3409L35.5359 12.6422L35.7013 12.8795L35.8666 13.1168L36.0753 13.2254L36.2841 13.334L36.8582 13.3484L37.4323 13.3629V15.0877V16.8124L36.8373 16.8268L36.2423 16.8412L36.0564 16.9455L35.8704 17.0499L35.7339 17.2291C35.6589 17.3277 35.5762 17.4872 35.5502 17.5836L35.5031 17.7588L35.5279 17.9402C35.5765 18.2951 35.8268 18.6431 36.1218 18.7664L36.2605 18.8244H36.8464H37.4323V20.5571V22.2898L36.9625 22.2903L36.4928 22.2907L36.2857 22.3535C36.0013 22.4398 35.8237 22.5685 35.6776 22.7942L35.5537 22.9855L35.5276 23.1764L35.5014 23.3673L35.5527 23.5809L35.6039 23.7945L35.8187 24.0196L36.0336 24.2446L36.2006 24.2899L36.3676 24.3352L36.8999 24.3354L37.4323 24.3357V26.0684V27.8011H36.9379H36.4435L36.2471 27.8602C35.9866 27.9386 35.7981 28.0882 35.6527 28.3318L35.5334 28.5317L35.533 28.824L35.5325 29.1163L35.6483 29.3132C35.7894 29.5532 35.9864 29.7094 36.2471 29.7878L36.4435 29.8469H36.9364H37.4292L37.4412 31.9032L37.4531 33.9595L37.5432 34.1265C37.638 34.3021 37.7867 34.4539 37.9959 34.5886L38.1212 34.6693L38.4552 34.6691L38.7892 34.669L38.9562 34.5593C39.1808 34.4119 39.2895 34.2881 39.3911 34.0639L39.4763 33.876L39.4772 31.8615L39.4781 29.8469H39.9715H40.465L40.6819 29.7825L40.8988 29.7181L41.051 29.5845L41.2032 29.4509L41.3005 29.2418L41.3979 29.0328L41.3983 28.8246L41.3987 28.6165L41.286 28.3936C41.224 28.2711 41.1115 28.1166 41.036 28.0504L40.8988 27.9299L40.6819 27.8655L40.465 27.8011H39.9715H39.4781V26.0684V24.3357L40.0313 24.3338L40.5845 24.332L40.7375 24.2774C40.9447 24.2034 41.1135 24.0597 41.2575 23.8346L41.3778 23.6468L41.3751 23.3336L41.3724 23.0205L41.2596 22.8274L41.1469 22.6343L40.9846 22.5218C40.8953 22.4599 40.7329 22.3825 40.6237 22.3496L40.4251 22.2898H39.9516H39.4781V20.56V18.8303L40.1213 18.8169L40.7645 18.8035L40.9459 18.6722L41.1273 18.5408L41.2497 18.342L41.372 18.1433L41.3906 17.9191L41.4092 17.6949L41.3362 17.5037C41.296 17.3986 41.2046 17.2458 41.1329 17.1642L41.0027 17.0158L40.7936 16.9184L40.5845 16.8211L40.0313 16.8207L39.4781 16.8203V15.0876V13.3549H39.9606H40.4432L40.6182 13.3103C40.7145 13.2858 40.868 13.2147 40.9594 13.1524L41.1254 13.039L41.2517 12.8347L41.3778 12.6304L41.377 12.335L41.3762 12.0397L41.2572 11.8397C41.1185 11.6064 40.9425 11.4611 40.6913 11.3725L40.5114 11.309H39.9947H39.4781V9.5763V7.84359L40.0313 7.84317L40.5845 7.84275L40.7936 7.74543L41.0027 7.64806L41.1329 7.49972C41.2046 7.41809 41.2963 7.26465 41.3367 7.15873L41.4103 6.96608L41.387 6.74004L41.3636 6.51399L41.2213 6.29153L41.079 6.06912L40.8318 5.94386L40.5845 5.81861L40.0313 5.80408L39.4781 5.78955V3.4622V1.13482L39.3513 0.880964L39.2244 0.627112L39.0078 0.488119L38.7911 0.349085L20.2105 0.338605L1.62984 0.328125L1.45009 0.41714ZM9.95938 4.0859V5.79773H6.43133H2.90327V4.0859V2.37406H6.43133H9.95938V4.0859ZM9.9494 9.58673L9.9603 11.309H6.43179H2.90327V9.57605V7.84313L6.42089 7.85377L9.9385 7.86446L9.9494 9.58673ZM20.1819 12.8962L20.4883 12.936L20.7456 13.0494C21.4281 13.3502 21.9073 13.919 22.0919 14.6473L22.1602 14.9168L22.1423 15.2945L22.1244 15.6721L22.0256 15.9435C21.8955 16.3008 21.6664 16.6364 21.3761 16.8953L21.1403 17.1054L20.8236 17.2578L20.507 17.4102L20.1808 17.4578L19.8546 17.5053L19.5102 17.4558L19.1657 17.4064L18.8162 17.234L18.4667 17.0618L18.2108 16.8021L17.9549 16.5425L17.7995 16.2325L17.6441 15.9226L17.5716 15.5331L17.4991 15.1436L17.5717 14.7816L17.6444 14.4195L17.7775 14.1482L17.9106 13.8768L18.2305 13.5531L18.5505 13.2294L18.8721 13.0828L19.1938 12.9362L19.472 12.9003C19.8516 12.8513 19.837 12.8514 20.1819 12.8962ZM29.9091 12.8971L30.254 12.9403L30.5556 13.0835L30.8572 13.2266L31.0986 13.4418C31.2314 13.5602 31.4116 13.7628 31.4989 13.8921L31.6579 14.1273L31.7758 14.4822L31.8938 14.8371L31.891 15.2128L31.8882 15.5886L31.7832 15.8873C31.4653 16.7912 30.7022 17.3954 29.7799 17.4733L29.4762 17.499L29.1787 17.4488L28.8812 17.3986L28.6262 17.278C27.9834 16.9741 27.5544 16.4736 27.3718 15.8148L27.2865 15.5068V15.1711V14.8354L27.3718 14.5273C27.4847 14.1203 27.6215 13.8961 27.9748 13.5392L28.2677 13.2433L28.5938 13.0899L28.92 12.9364L29.1992 12.9004C29.3528 12.8806 29.4978 12.862 29.5213 12.8591C29.5449 12.8562 29.7194 12.8733 29.9091 12.8971ZM9.9494 15.0771L9.9385 16.7994L6.42089 16.8101L2.90327 16.8207V15.0878V13.3549H6.43179H9.9603L9.9494 15.0771ZM9.9494 20.5675L9.9603 22.2898H6.43179H2.90327V20.5568V18.8239L6.42089 18.8346L9.9385 18.8453L9.9494 20.5675ZM9.9494 26.0579L9.9385 27.7802L6.42089 27.7909L2.90327 27.8015V26.0686V24.3357H6.43179H9.9603L9.9494 26.0579Z" fill="#664638"/>
<path fill-rule="evenodd" clip-rule="evenodd" d="M1.45009 0.41714C1.22025 0.53104 1.05574 0.696462 0.945143 0.924929L0.857422 1.10609L0.85834 17.4911L0.859259 33.876L0.944433 34.0639C1.04606 34.2881 1.15474 34.4119 1.37932 34.5593L1.54633 34.669L1.88035 34.6691L2.21436 34.6693L2.33962 34.5886C2.54884 34.4539 2.69756 34.3021 2.7923 34.1265L2.8824 33.9595L2.89434 31.903L2.90628 29.8465L6.42239 29.8571L9.9385 29.8678L9.95938 31.9137L9.98025 33.9595L10.0509 34.1057C10.1433 34.2969 10.2757 34.4376 10.4813 34.5634L10.6483 34.6655L10.9645 34.6674L11.2807 34.6693L11.4812 34.544L11.6816 34.4188L11.8011 34.2518L11.9206 34.0848L11.9629 33.8599L12.0052 33.635V18.0045V2.37406H15.4291H18.8529L18.8423 6.66075L18.8317 10.9474L18.5394 11.0386C17.2178 11.4506 16.1429 12.5147 15.7057 13.8437C15.5608 14.284 15.5128 14.622 15.5142 15.192L15.5153 15.6721L15.5716 15.9875C15.7692 17.0953 16.445 18.1154 17.4245 18.7843C17.8829 19.0974 18.2265 19.2412 19.0405 19.4611L19.2075 19.5062L19.8337 19.5077L20.46 19.5091L20.8781 19.3982C21.3908 19.2623 21.8533 19.0527 22.3087 18.7502L22.6543 18.5205L22.9691 18.1858C23.6153 17.4989 23.9724 16.7946 24.1347 15.887L24.2082 15.4756L24.1851 15.0311C24.1311 13.9959 23.7903 13.1207 23.14 12.3476L22.8973 12.0591L22.5293 11.778C22.0144 11.3847 21.6308 11.1801 21.1072 11.0196L20.8776 10.9491L20.8669 6.66162L20.8563 2.37406H24.7185H28.5808V6.66735V10.9607L28.3707 11.0091C28.2551 11.0358 28.0767 11.0959 27.9742 11.1426C27.8717 11.1893 27.7421 11.2448 27.6862 11.2661C27.6303 11.2873 27.4188 11.4126 27.2163 11.5444L26.8481 11.7841L26.5118 12.1207C25.5171 13.116 25.103 14.3644 25.2849 15.8193L25.3291 16.1731L25.458 16.5458C25.9605 17.9988 27.0078 18.9728 28.5182 19.3917L28.9357 19.5075L29.562 19.5091L30.1883 19.5107L30.6267 19.3941C31.5293 19.1541 32.3133 18.6725 32.8455 18.0311C33.2907 17.4945 33.4348 17.2544 33.6577 16.6782L33.8015 16.3064L33.8632 15.9266C33.9409 15.4476 33.9412 14.9893 33.8644 14.4797C33.7899 13.9853 33.7232 13.7801 33.4646 13.2505L33.2608 12.833L32.9935 12.4962C32.6135 12.0174 31.8671 11.4135 31.4678 11.2616C31.4077 11.2388 31.2985 11.1916 31.2249 11.1567C31.1514 11.1218 30.9821 11.0608 30.8485 11.0212L30.6058 10.9491L30.5951 6.66162L30.5845 2.37406H34.0084H37.4323V4.0818V5.78955L36.879 5.80408L36.3258 5.81861L36.0796 5.94336L35.8333 6.06816L35.6954 6.27738L35.5575 6.48664L35.5305 6.69645L35.5034 6.90629L35.5504 7.0809C35.5763 7.17697 35.6581 7.33617 35.7323 7.43475L35.8671 7.61395L36.0935 7.72877L36.3199 7.84359H36.8761H37.4323V9.5763V11.309H36.9256H36.419L36.2679 11.3543C36.1847 11.3792 36.0432 11.4497 35.9532 11.5109L35.7898 11.6222L35.6611 11.8309L35.5325 12.0397L35.5342 12.3409L35.5359 12.6422L35.7013 12.8795L35.8666 13.1168L36.0753 13.2254L36.2841 13.334L36.8582 13.3484L37.4323 13.3629V15.0877V16.8124L36.8373 16.8268L36.2423 16.8412L36.0564 16.9455L35.8704 17.0499L35.7339 17.2291C35.6589 17.3277 35.5762 17.4872 35.5502 17.5836L35.5031 17.7588L35.5279 17.9402C35.5765 18.2951 35.8268 18.6431 36.1218 18.7664L36.2605 18.8244H36.8464H37.4323V20.5571V22.2898L36.9625 22.2903L36.4928 22.2907L36.2857 22.3535C36.0013 22.4398 35.8237 22.5685 35.6776 22.7942L35.5537 22.9855L35.5276 23.1764L35.5014 23.3673L35.5527 23.5809L35.6039 23.7945L35.8187 24.0196L36.0336 24.2446L36.2006 24.2899L36.3676 24.3352L36.8999 24.3354L37.4323 24.3357V26.0684V27.8011H36.9379H36.4435L36.2471 27.8602C35.9866 27.9386 35.7981 28.0882 35.6527 28.3318L35.5334 28.5317L35.533 28.824L35.5325 29.1163L35.6483 29.3132C35.7894 29.5532 35.9864 29.7094 36.2471 29.7878L36.4435 29.8469H36.9364H37.4292L37.4412 31.9032L37.4531 33.9595L37.5432 34.1265C37.638 34.3021 37.7867 34.4539 37.9959 34.5886L38.1212 34.6693L38.4552 34.6691L38.7892 34.669L38.9562 34.5593C39.1808 34.4119 39.2895 34.2881 39.3911 34.0639L39.4763 33.876L39.4772 31.8615L39.4781 29.8469H39.9715H40.465L40.6819 29.7825L40.8988 29.7181L41.051 29.5845L41.2032 29.4509L41.3005 29.2418L41.3979 29.0328L41.3983 28.8246L41.3987 28.6165L41.286 28.3936C41.224 28.2711 41.1115 28.1166 41.036 28.0504L40.8988 27.9299L40.6819 27.8655L40.465 27.8011H39.9715H39.4781V26.0684V24.3357L40.0313 24.3338L40.5845 24.332L40.7375 24.2774C40.9447 24.2034 41.1135 24.0597 41.2575 23.8346L41.3778 23.6468L41.3751 23.3336L41.3724 23.0205L41.2596 22.8274L41.1469 22.6343L40.9846 22.5218C40.8953 22.4599 40.7329 22.3825 40.6237 22.3496L40.4251 22.2898H39.9516H39.4781V20.56V18.8303L40.1213 18.8169L40.7645 18.8035L40.9459 18.6722L41.1273 18.5408L41.2497 18.342L41.372 18.1433L41.3906 17.9191L41.4092 17.6949L41.3362 17.5037C41.296 17.3986 41.2046 17.2458 41.1329 17.1642L41.0027 17.0158L40.7936 16.9184L40.5845 16.8211L40.0313 16.8207L39.4781 16.8203V15.0876V13.3549H39.9606H40.4432L40.6182 13.3103C40.7145 13.2858 40.868 13.2147 40.9594 13.1524L41.1254 13.039L41.2517 12.8347L41.3778 12.6304L41.377 12.335L41.3762 12.0397L41.2572 11.8397C41.1185 11.6064 40.9425 11.4611 40.6913 11.3725L40.5114 11.309H39.9947H39.4781V9.5763V7.84359L40.0313 7.84317L40.5845 7.84275L40.7936 7.74543L41.0027 7.64806L41.1329 7.49972C41.2046 7.41809 41.2963 7.26465 41.3367 7.15873L41.4103 6.96608L41.387 6.74004L41.3636 6.51399L41.2213 6.29153L41.079 6.06912L40.8318 5.94386L40.5845 5.81861L40.0313 5.80408L39.4781 5.78955V3.4622V1.13482L39.3513 0.880964L39.2244 0.627112L39.0078 0.488119L38.7911 0.349085L20.2105 0.338605L1.62984 0.328125L1.45009 0.41714ZM9.95938 4.0859V5.79773H6.43133H2.90327V4.0859V2.37406H6.43133H9.95938V4.0859ZM9.9494 9.58673L9.9603 11.309H6.43179H2.90327V9.57605V7.84313L6.42089 7.85377L9.9385 7.86446L9.9494 9.58673ZM20.1819 12.8962L20.4883 12.936L20.7456 13.0494C21.4281 13.3502 21.9073 13.919 22.0919 14.6473L22.1602 14.9168L22.1423 15.2945L22.1244 15.6721L22.0256 15.9435C21.8955 16.3008 21.6664 16.6364 21.3761 16.8953L21.1403 17.1054L20.8236 17.2578L20.507 17.4102L20.1808 17.4578L19.8546 17.5053L19.5102 17.4558L19.1657 17.4064L18.8162 17.234L18.4667 17.0618L18.2108 16.8021L17.9549 16.5425L17.7995 16.2325L17.6441 15.9226L17.5716 15.5331L17.4991 15.1436L17.5717 14.7816L17.6444 14.4195L17.7775 14.1482L17.9106 13.8768L18.2305 13.5531L18.5505 13.2294L18.8721 13.0828L19.1938 12.9362L19.472 12.9003C19.8516 12.8513 19.837 12.8514 20.1819 12.8962ZM29.9091 12.8971L30.254 12.9403L30.5556 13.0835L30.8572 13.2266L31.0986 13.4418C31.2314 13.5602 31.4116 13.7628 31.4989 13.8921L31.6579 14.1273L31.7758 14.4822L31.8938 14.8371L31.891 15.2128L31.8882 15.5886L31.7832 15.8873C31.4653 16.7912 30.7022 17.3954 29.7799 17.4733L29.4762 17.499L29.1787 17.4488L28.8812 17.3986L28.6262 17.278C27.9834 16.9741 27.5544 16.4736 27.3718 15.8148L27.2865 15.5068V15.1711V14.8354L27.3718 14.5273C27.4847 14.1203 27.6215 13.8961 27.9748 13.5392L28.2677 13.2433L28.5938 13.0899L28.92 12.9364L29.1992 12.9004C29.3528 12.8806 29.4978 12.862 29.5213 12.8591C29.5449 12.8562 29.7194 12.8733 29.9091 12.8971ZM9.9494 15.0771L9.9385 16.7994L6.42089 16.8101L2.90327 16.8207V15.0878V13.3549H6.43179H9.9603L9.9494 15.0771ZM9.9494 20.5675L9.9603 22.2898H6.43179H2.90327V20.5568V18.8239L6.42089 18.8346L9.9385 18.8453L9.9494 20.5675ZM9.9494 26.0579L9.9385 27.7802L6.42089 27.7909L2.90327 27.8015V26.0686V24.3357H6.43179H9.9603L9.9494 26.0579Z" fill="#664638"/>
<path fill-rule="evenodd" clip-rule="evenodd" d="M1.45009 0.41714C1.22025 0.53104 1.05574 0.696462 0.945143 0.924929L0.857422 1.10609L0.85834 17.4911L0.859259 33.876L0.944433 34.0639C1.04606 34.2881 1.15474 34.4119 1.37932 34.5593L1.54633 34.669L1.88035 34.6691L2.21436 34.6693L2.33962 34.5886C2.54884 34.4539 2.69756 34.3021 2.7923 34.1265L2.8824 33.9595L2.89434 31.903L2.90628 29.8465L6.42239 29.8571L9.9385 29.8678L9.95938 31.9137L9.98025 33.9595L10.0509 34.1057C10.1433 34.2969 10.2757 34.4376 10.4813 34.5634L10.6483 34.6655L10.9645 34.6674L11.2807 34.6693L11.4812 34.544L11.6816 34.4188L11.8011 34.2518L11.9206 34.0848L11.9629 33.8599L12.0052 33.635V18.0045V2.37406H15.4291H18.8529L18.8423 6.66075L18.8317 10.9474L18.5394 11.0386C17.2178 11.4506 16.1429 12.5147 15.7057 13.8437C15.5608 14.284 15.5128 14.622 15.5142 15.192L15.5153 15.6721L15.5716 15.9875C15.7692 17.0953 16.445 18.1154 17.4245 18.7843C17.8829 19.0974 18.2265 19.2412 19.0405 19.4611L19.2075 19.5062L19.8337 19.5077L20.46 19.5091L20.8781 19.3982C21.3908 19.2623 21.8533 19.0527 22.3087 18.7502L22.6543 18.5205L22.9691 18.1858C23.6153 17.4989 23.9724 16.7946 24.1347 15.887L24.2082 15.4756L24.1851 15.0311C24.1311 13.9959 23.7903 13.1207 23.14 12.3476L22.8973 12.0591L22.5293 11.778C22.0144 11.3847 21.6308 11.1801 21.1072 11.0196L20.8776 10.9491L20.8669 6.66162L20.8563 2.37406H24.7185H28.5808V6.66735V10.9607L28.3707 11.0091C28.2551 11.0358 28.0767 11.0959 27.9742 11.1426C27.8717 11.1893 27.7421 11.2448 27.6862 11.2661C27.6303 11.2873 27.4188 11.4126 27.2163 11.5444L26.8481 11.7841L26.5118 12.1207C25.5171 13.116 25.103 14.3644 25.2849 15.8193L25.3291 16.1731L25.458 16.5458C25.9605 17.9988 27.0078 18.9728 28.5182 19.3917L28.9357 19.5075L29.562 19.5091L30.1883 19.5107L30.6267 19.3941C31.5293 19.1541 32.3133 18.6725 32.8455 18.0311C33.2907 17.4945 33.4348 17.2544 33.6577 16.6782L33.8015 16.3064L33.8632 15.9266C33.9409 15.4476 33.9412 14.9893 33.8644 14.4797C33.7899 13.9853 33.7232 13.7801 33.4646 13.2505L33.2608 12.833L32.9935 12.4962C32.6135 12.0174 31.8671 11.4135 31.4678 11.2616C31.4077 11.2388 31.2985 11.1916 31.2249 11.1567C31.1514 11.1218 30.9821 11.0608 30.8485 11.0212L30.6058 10.9491L30.5951 6.66162L30.5845 2.37406H34.0084H37.4323V4.0818V5.78955L36.879 5.80408L36.3258 5.81861L36.0796 5.94336L35.8333 6.06816L35.6954 6.27738L35.5575 6.48664L35.5305 6.69645L35.5034 6.90629L35.5504 7.0809C35.5763 7.17697 35.6581 7.33617 35.7323 7.43475L35.8671 7.61395L36.0935 7.72877L36.3199 7.84359H36.8761H37.4323V9.5763V11.309H36.9256H36.419L36.2679 11.3543C36.1847 11.3792 36.0432 11.4497 35.9532 11.5109L35.7898 11.6222L35.6611 11.8309L35.5325 12.0397L35.5342 12.3409L35.5359 12.6422L35.7013 12.8795L35.8666 13.1168L36.0753 13.2254L36.2841 13.334L36.8582 13.3484L37.4323 13.3629V15.0877V16.8124L36.8373 16.8268L36.2423 16.8412L36.0564 16.9455L35.8704 17.0499L35.7339 17.2291C35.6589 17.3277 35.5762 17.4872 35.5502 17.5836L35.5031 17.7588L35.5279 17.9402C35.5765 18.2951 35.8268 18.6431 36.1218 18.7664L36.2605 18.8244H36.8464H37.4323V20.5571V22.2898L36.9625 22.2903L36.4928 22.2907L36.2857 22.3535C36.0013 22.4398 35.8237 22.5685 35.6776 22.7942L35.5537 22.9855L35.5276 23.1764L35.5014 23.3673L35.5527 23.5809L35.6039 23.7945L35.8187 24.0196L36.0336 24.2446L36.2006 24.2899L36.3676 24.3352L36.8999 24.3354L37.4323 24.3357V26.0684V27.8011H36.9379H36.4435L36.2471 27.8602C35.9866 27.9386 35.7981 28.0882 35.6527 28.3318L35.5334 28.5317L35.533 28.824L35.5325 29.1163L35.6483 29.3132C35.7894 29.5532 35.9864 29.7094 36.2471 29.7878L36.4435 29.8469H36.9364H37.4292L37.4412 31.9032L37.4531 33.9595L37.5432 34.1265C37.638 34.3021 37.7867 34.4539 37.9959 34.5886L38.1212 34.6693L38.4552 34.6691L38.7892 34.669L38.9562 34.5593C39.1808 34.4119 39.2895 34.2881 39.3911 34.0639L39.4763 33.876L39.4772 31.8615L39.4781 29.8469H39.9715H40.465L40.6819 29.7825L40.8988 29.7181L41.051 29.5845L41.2032 29.4509L41.3005 29.2418L41.3979 29.0328L41.3983 28.8246L41.3987 28.6165L41.286 28.3936C41.224 28.2711 41.1115 28.1166 41.036 28.0504L40.8988 27.9299L40.6819 27.8655L40.465 27.8011H39.9715H39.4781V26.0684V24.3357L40.0313 24.3338L40.5845 24.332L40.7375 24.2774C40.9447 24.2034 41.1135 24.0597 41.2575 23.8346L41.3778 23.6468L41.3751 23.3336L41.3724 23.0205L41.2596 22.8274L41.1469 22.6343L40.9846 22.5218C40.8953 22.4599 40.7329 22.3825 40.6237 22.3496L40.4251 22.2898H39.9516H39.4781V20.56V18.8303L40.1213 18.8169L40.7645 18.8035L40.9459 18.6722L41.1273 18.5408L41.2497 18.342L41.372 18.1433L41.3906 17.9191L41.4092 17.6949L41.3362 17.5037C41.296 17.3986 41.2046 17.2458 41.1329 17.1642L41.0027 17.0158L40.7936 16.9184L40.5845 16.8211L40.0313 16.8207L39.4781 16.8203V15.0876V13.3549H39.9606H40.4432L40.6182 13.3103C40.7145 13.2858 40.868 13.2147 40.9594 13.1524L41.1254 13.039L41.2517 12.8347L41.3778 12.6304L41.377 12.335L41.3762 12.0397L41.2572 11.8397C41.1185 11.6064 40.9425 11.4611 40.6913 11.3725L40.5114 11.309H39.9947H39.4781V9.5763V7.84359L40.0313 7.84317L40.5845 7.84275L40.7936 7.74543L41.0027 7.64806L41.1329 7.49972C41.2046 7.41809 41.2963 7.26465 41.3367 7.15873L41.4103 6.96608L41.387 6.74004L41.3636 6.51399L41.2213 6.29153L41.079 6.06912L40.8318 5.94386L40.5845 5.81861L40.0313 5.80408L39.4781 5.78955V3.4622V1.13482L39.3513 0.880964L39.2244 0.627112L39.0078 0.488119L38.7911 0.349085L20.2105 0.338605L1.62984 0.328125L1.45009 0.41714ZM9.95938 4.0859V5.79773H6.43133H2.90327V4.0859V2.37406H6.43133H9.95938V4.0859ZM9.9494 9.58673L9.9603 11.309H6.43179H2.90327V9.57605V7.84313L6.42089 7.85377L9.9385 7.86446L9.9494 9.58673ZM20.1819 12.8962L20.4883 12.936L20.7456 13.0494C21.4281 13.3502 21.9073 13.919 22.0919 14.6473L22.1602 14.9168L22.1423 15.2945L22.1244 15.6721L22.0256 15.9435C21.8955 16.3008 21.6664 16.6364 21.3761 16.8953L21.1403 17.1054L20.8236 17.2578L20.507 17.4102L20.1808 17.4578L19.8546 17.5053L19.5102 17.4558L19.1657 17.4064L18.8162 17.234L18.4667 17.0618L18.2108 16.8021L17.9549 16.5425L17.7995 16.2325L17.6441 15.9226L17.5716 15.5331L17.4991 15.1436L17.5717 14.7816L17.6444 14.4195L17.7775 14.1482L17.9106 13.8768L18.2305 13.5531L18.5505 13.2294L18.8721 13.0828L19.1938 12.9362L19.472 12.9003C19.8516 12.8513 19.837 12.8514 20.1819 12.8962ZM29.9091 12.8971L30.254 12.9403L30.5556 13.0835L30.8572 13.2266L31.0986 13.4418C31.2314 13.5602 31.4116 13.7628 31.4989 13.8921L31.6579 14.1273L31.7758 14.4822L31.8938 14.8371L31.891 15.2128L31.8882 15.5886L31.7832 15.8873C31.4653 16.7912 30.7022 17.3954 29.7799 17.4733L29.4762 17.499L29.1787 17.4488L28.8812 17.3986L28.6262 17.278C27.9834 16.9741 27.5544 16.4736 27.3718 15.8148L27.2865 15.5068V15.1711V14.8354L27.3718 14.5273C27.4847 14.1203 27.6215 13.8961 27.9748 13.5392L28.2677 13.2433L28.5938 13.0899L28.92 12.9364L29.1992 12.9004C29.3528 12.8806 29.4978 12.862 29.5213 12.8591C29.5449 12.8562 29.7194 12.8733 29.9091 12.8971ZM9.9494 15.0771L9.9385 16.7994L6.42089 16.8101L2.90327 16.8207V15.0878V13.3549H6.43179H9.9603L9.9494 15.0771ZM9.9494 20.5675L9.9603 22.2898H6.43179H2.90327V20.5568V18.8239L6.42089 18.8346L9.9385 18.8453L9.9494 20.5675ZM9.9494 26.0579L9.9385 27.7802L6.42089 27.7909L2.90327 27.8015V26.0686V24.3357H6.43179H9.9603L9.9494 26.0579Z" stroke="#664638" stroke-width="2.40659" mask="url(#path-1-inside-1_28_323)"/>
</svg>
