<svg width="46" height="31" viewBox="0 0 46 31" fill="none" xmlns="http://www.w3.org/2000/svg">
<path d="M1.66699 29.5859H3.58301V30.1709C3.58305 30.4026 3.68242 30.6098 3.83984 30.7559H1.66699C1.34403 30.7558 1.08212 30.4938 1.08203 30.1709C1.08203 29.8479 1.34398 29.586 1.66699 29.5859ZM37.4941 16.5732H41.2432C41.5661 16.5732 41.8279 16.8353 41.8281 17.1582V29.3711H40.6582V17.7432H38.0791V29.3711H36.9092V17.1582C36.9094 16.8354 37.1712 16.5733 37.4941 16.5732ZM4.38281 26.5938H4.62012V27.1787C4.62012 27.4523 4.75825 27.6927 4.96777 27.8369V29.3711H3.79785V27.1787C3.79791 26.8557 4.05981 26.5938 4.38281 26.5938ZM13.1982 19.0703C13.3506 19.234 13.5644 19.3252 13.7842 19.3252C13.9042 19.3252 14.0263 19.2982 14.1406 19.2412L14.3682 19.127V26.3789H13.1982V19.0703ZM9.60156 12.9727C10.5014 12.9727 11.3437 13.224 12.0625 13.6592L11.8604 13.7607C11.5255 13.9279 11.3597 14.2979 11.4365 14.6475C10.8989 14.3273 10.2715 14.1426 9.60156 14.1426C8.64094 14.1426 7.73752 14.5171 7.05859 15.1963C6.39287 15.8618 6.01844 16.7462 6.00488 17.6865V26.3789H4.83496V17.6758C4.85036 16.5048 5.28741 15.3997 6.07031 14.5381L6.23145 14.3691C7.1315 13.4688 8.32807 12.9727 9.60156 12.9727ZM9.60156 16.1465C10.6672 16.1465 11.535 17.0135 11.5352 18.0791C11.535 19.1449 10.6673 20.0127 9.60156 20.0127C8.5358 20.0126 7.66895 19.1448 7.66895 18.0791C7.66907 17.0134 8.53599 16.1466 9.60156 16.1465ZM14.3682 18.8867L14.0449 19.0488C13.9609 19.0907 13.8716 19.1103 13.7842 19.1104C13.5691 19.1104 13.3622 18.9913 13.2598 18.7861C13.1157 18.4972 13.2334 18.1461 13.5225 18.002L14.3643 17.5811C14.366 17.6336 14.3682 17.6863 14.3682 17.7393V18.8867ZM9.60156 17.3164C9.1807 17.3165 8.83893 17.6584 8.83887 18.0791C8.83887 18.5 9.18081 18.8427 9.60156 18.8428C10.0225 18.8428 10.3652 18.4999 10.3652 18.0791C10.3652 17.6583 10.0224 17.3164 9.60156 17.3164ZM13.3525 14.8037C13.9122 15.5171 14.2724 16.3926 14.3506 17.3477L13.4268 17.8096C13.3383 17.8537 13.2618 17.9122 13.1982 17.9805V17.7393C13.1982 16.7863 12.8249 15.9196 12.2178 15.2754C12.3377 15.2754 12.4595 15.2495 12.5742 15.1924H12.5752L13.3525 14.8037ZM19.6514 15.2861C19.9197 15.466 19.9913 15.8294 19.8115 16.0977C19.6989 16.2659 19.5141 16.3574 19.3252 16.3574C19.2133 16.3574 19.1001 16.3249 19 16.2578L18.1533 15.6904L19.3584 15.0898L19.6514 15.2861ZM25.0166 13.376C25.0809 13.419 25.1495 13.4503 25.2197 13.4727L20.0791 16.0371C20.1975 15.7011 20.0812 15.315 19.7715 15.1074L19.5801 14.9785L24.0674 12.7393L25.0166 13.376ZM19.1523 14.9521L17.9482 15.5527L15.3457 13.8086L16.5508 13.208L19.1523 14.9521ZM12.2734 13.7939C12.6226 14.0311 12.9381 14.3139 13.2129 14.6328L12.4785 15C12.1894 15.144 11.8386 15.0263 11.6943 14.7373C11.5503 14.4484 11.6672 14.0975 11.9561 13.9531L12.2734 13.7939ZM14.4434 12.7109C14.3107 13.0522 14.4273 13.4516 14.7441 13.6641L14.9189 13.7812L13.4111 14.5342C13.1415 14.2143 12.8322 13.9293 12.4912 13.6855L14.4434 12.7109ZM14.7041 12.6748C14.8839 12.4064 15.2473 12.3348 15.5156 12.5146L16.3447 13.0703L15.1406 13.6709L14.8643 13.4863C14.5959 13.3065 14.5243 12.9431 14.7041 12.6748ZM25.7871 12.2256C26.0553 12.4055 26.1271 12.7687 25.9473 13.0371C25.8346 13.2052 25.6498 13.2959 25.4609 13.2959C25.349 13.2959 25.2359 13.2644 25.1357 13.1973L24.2881 12.6289L25.4932 12.0283L25.7871 12.2256ZM31.0098 10.3848C31.0739 10.4277 31.1428 10.4591 31.2129 10.4814L26.2148 12.9756C26.3329 12.6397 26.2164 12.2544 25.9072 12.0469L25.7148 11.918L30.0615 9.74902L31.0098 10.3848ZM20.5781 9.65039C20.446 9.99162 20.5631 10.3912 20.8799 10.6035L21.0547 10.7207L16.5664 12.96L15.6348 12.3359C15.5629 12.2878 15.4862 12.2528 15.4072 12.2305L20.5781 9.65039ZM25.2881 11.8906L24.083 12.4912L21.4814 10.748L22.6855 10.1465L25.2881 11.8906ZM20.8389 9.61328C21.0187 9.34494 21.3821 9.27343 21.6504 9.45312L22.4805 10.0088L21.2754 10.6104L20.999 10.4248C20.7309 10.2449 20.6592 9.88146 20.8389 9.61328ZM31.7812 9.23438C32.0494 9.41415 32.121 9.77752 31.9414 10.0459C31.8287 10.214 31.6438 10.3056 31.4551 10.3057C31.3431 10.3057 31.2301 10.2732 31.1299 10.2061L30.2832 9.63867L31.4873 9.03711L31.7812 9.23438ZM37.0039 7.39453C37.0679 7.43738 37.1361 7.46885 37.2061 7.49121L32.209 9.98438C32.3268 9.64851 32.2097 9.26299 31.9004 9.05566L31.709 8.92676L36.0547 6.75781L37.0039 7.39453ZM26.5723 6.66016C26.4402 7.00135 26.5574 7.40009 26.874 7.6123L27.0488 7.72949L22.7021 9.89844L21.7705 9.27441C21.6987 9.22628 21.6219 9.19129 21.543 9.16895L26.5723 6.66016ZM31.2822 8.89941L30.0771 9.50098L27.4746 7.75684L28.6797 7.15625L31.2822 8.89941ZM26.833 6.62305C27.0128 6.35486 27.376 6.28234 27.6445 6.46191L28.4746 7.01758L27.2695 7.61914L26.9932 7.43457C26.7249 7.25477 26.6534 6.89129 26.833 6.62305ZM37.7744 6.24414C38.0427 6.424 38.1144 6.78725 37.9346 7.05566C37.8218 7.22378 37.6371 7.31543 37.4482 7.31543C37.3364 7.31538 37.2232 7.2829 37.123 7.21582L36.2764 6.64746L37.4805 6.04688L37.7744 6.24414ZM39.0244 0.446289C39.4526 0.23276 39.938 0.199987 40.3916 0.351562C40.8454 0.50326 41.2123 0.821858 41.4258 1.25L42.2793 2.95996V2.96094C42.7197 3.84362 42.3597 4.92048 41.4766 5.36133L38.2021 6.99414C38.3202 6.65818 38.2039 6.27284 37.8945 6.06543L37.7021 5.93652L40.9541 4.31445C41.26 4.16179 41.385 3.78935 41.2324 3.4834L40.3789 1.77246C40.305 1.62437 40.1776 1.51339 40.0205 1.46094C39.8636 1.4086 39.6949 1.42041 39.5469 1.49414L34.6895 3.91699L33.7578 3.29297C33.6863 3.24507 33.6098 3.20981 33.5312 3.1875L39.0254 0.447266L39.0244 0.446289ZM32.5664 3.66895C32.4339 4.01025 32.5505 4.40966 32.8672 4.62207L33.042 4.73926L28.6953 6.9082L27.7646 6.28418L27.6943 6.24219C27.6432 6.21494 27.5902 6.19396 27.5361 6.17871L32.5664 3.66895ZM37.2754 5.90918L36.0703 6.50977L33.4688 4.7666L34.6738 4.16504L37.2754 5.90918ZM32.8271 3.63184C33.0071 3.36377 33.3704 3.2919 33.6387 3.47168L34.4678 4.02734L33.2637 4.62891L32.9873 4.44336C32.719 4.2635 32.6473 3.90011 32.8271 3.63184ZM3.79785 29.5859H4.96777V30.1709C4.96769 30.4938 4.70565 30.7557 4.38281 30.7559C4.05983 30.7559 3.79794 30.4939 3.79785 30.1709V29.5859ZM5.18262 29.5859H14.0205V30.1709C14.0206 30.4026 14.1209 30.6098 14.2783 30.7559H4.9248C5.08232 30.6098 5.18257 30.4026 5.18262 30.1709V29.5859ZM14.2363 29.5859H15.4062V30.1709C15.4062 30.4937 15.1441 30.7557 14.8213 30.7559C14.4983 30.7559 14.2364 30.4939 14.2363 30.1709V29.5859ZM15.6211 29.5859H36.6943V30.1709C36.6944 30.4027 36.7945 30.6098 36.9521 30.7559H15.3633C15.5208 30.6098 15.621 30.4026 15.6211 30.1709V29.5859ZM36.9092 29.5859H38.0791V30.1709C38.079 30.4939 37.8171 30.7559 37.4941 30.7559C37.1712 30.7558 36.9093 30.4939 36.9092 30.1709V29.5859ZM38.2939 29.5859H40.4434V30.1709C40.4434 30.4027 40.5436 30.6098 40.7012 30.7559H38.0361C38.1938 30.6098 38.2939 30.4027 38.2939 30.1709V29.5859ZM40.6582 29.5859H41.8281V30.1709C41.828 30.4939 41.5663 30.7559 41.2432 30.7559C40.9203 30.7558 40.6583 30.4938 40.6582 30.1709V29.5859ZM42.043 29.5859H44.5986C44.9216 29.586 45.1836 29.8479 45.1836 30.1709C45.1835 30.4938 44.9215 30.7558 44.5986 30.7559H41.7852C41.9428 30.6098 42.0429 30.4028 42.043 30.1709V29.5859ZM4.83496 26.5938H6.00488V27.1787C6.00488 27.5018 5.74296 27.7637 5.41992 27.7637C5.09689 27.7637 4.83496 27.5017 4.83496 27.1787V26.5938ZM6.21973 26.5938H12.9834V27.1787C12.9834 27.4105 13.0837 27.6176 13.2412 27.7637H5.96191C6.1195 27.6176 6.21973 27.4105 6.21973 27.1787V26.5938ZM13.1982 26.5938H14.3682V27.1787C14.3682 27.5016 14.1063 27.7637 13.7832 27.7637C13.4603 27.7635 13.1982 27.5017 13.1982 27.1787V26.5938ZM14.583 26.5938H14.8213C15.1441 26.594 15.4062 26.8558 15.4062 27.1787V29.3711H14.2363V27.8369C14.4456 27.6926 14.583 27.452 14.583 27.1787V26.5938ZM14.583 17.7393C14.583 17.6508 14.5808 17.5629 14.5762 17.4756L17.9326 15.8008L18.8809 16.4365C18.9452 16.4796 19.0136 16.5118 19.084 16.5342L14.583 18.7803V17.7393Z" fill="#664638"/>
<path d="M1.66699 29.5859H3.58301V30.1709C3.58305 30.4026 3.68242 30.6098 3.83984 30.7559H1.66699C1.34403 30.7558 1.08212 30.4938 1.08203 30.1709C1.08203 29.8479 1.34398 29.586 1.66699 29.5859ZM37.4941 16.5732H41.2432C41.5661 16.5732 41.8279 16.8353 41.8281 17.1582V29.3711H40.6582V17.7432H38.0791V29.3711H36.9092V17.1582C36.9094 16.8354 37.1712 16.5733 37.4941 16.5732ZM4.38281 26.5938H4.62012V27.1787C4.62012 27.4523 4.75825 27.6927 4.96777 27.8369V29.3711H3.79785V27.1787C3.79791 26.8557 4.05981 26.5938 4.38281 26.5938ZM13.1982 19.0703C13.3506 19.234 13.5644 19.3252 13.7842 19.3252C13.9042 19.3252 14.0263 19.2982 14.1406 19.2412L14.3682 19.127V26.3789H13.1982V19.0703ZM9.60156 12.9727C10.5014 12.9727 11.3437 13.224 12.0625 13.6592L11.8604 13.7607C11.5255 13.9279 11.3597 14.2979 11.4365 14.6475C10.8989 14.3273 10.2715 14.1426 9.60156 14.1426C8.64094 14.1426 7.73752 14.5171 7.05859 15.1963C6.39287 15.8618 6.01844 16.7462 6.00488 17.6865V26.3789H4.83496V17.6758C4.85036 16.5048 5.28741 15.3997 6.07031 14.5381L6.23145 14.3691C7.1315 13.4688 8.32807 12.9727 9.60156 12.9727ZM9.60156 16.1465C10.6672 16.1465 11.535 17.0135 11.5352 18.0791C11.535 19.1449 10.6673 20.0127 9.60156 20.0127C8.5358 20.0126 7.66895 19.1448 7.66895 18.0791C7.66907 17.0134 8.53599 16.1466 9.60156 16.1465ZM14.3682 18.8867L14.0449 19.0488C13.9609 19.0907 13.8716 19.1103 13.7842 19.1104C13.5691 19.1104 13.3622 18.9913 13.2598 18.7861C13.1157 18.4972 13.2334 18.1461 13.5225 18.002L14.3643 17.5811C14.366 17.6336 14.3682 17.6863 14.3682 17.7393V18.8867ZM9.60156 17.3164C9.1807 17.3165 8.83893 17.6584 8.83887 18.0791C8.83887 18.5 9.18081 18.8427 9.60156 18.8428C10.0225 18.8428 10.3652 18.4999 10.3652 18.0791C10.3652 17.6583 10.0224 17.3164 9.60156 17.3164ZM13.3525 14.8037C13.9122 15.5171 14.2724 16.3926 14.3506 17.3477L13.4268 17.8096C13.3383 17.8537 13.2618 17.9122 13.1982 17.9805V17.7393C13.1982 16.7863 12.8249 15.9196 12.2178 15.2754C12.3377 15.2754 12.4595 15.2495 12.5742 15.1924H12.5752L13.3525 14.8037ZM19.6514 15.2861C19.9197 15.466 19.9913 15.8294 19.8115 16.0977C19.6989 16.2659 19.5141 16.3574 19.3252 16.3574C19.2133 16.3574 19.1001 16.3249 19 16.2578L18.1533 15.6904L19.3584 15.0898L19.6514 15.2861ZM25.0166 13.376C25.0809 13.419 25.1495 13.4503 25.2197 13.4727L20.0791 16.0371C20.1975 15.7011 20.0812 15.315 19.7715 15.1074L19.5801 14.9785L24.0674 12.7393L25.0166 13.376ZM19.1523 14.9521L17.9482 15.5527L15.3457 13.8086L16.5508 13.208L19.1523 14.9521ZM12.2734 13.7939C12.6226 14.0311 12.9381 14.3139 13.2129 14.6328L12.4785 15C12.1894 15.144 11.8386 15.0263 11.6943 14.7373C11.5503 14.4484 11.6672 14.0975 11.9561 13.9531L12.2734 13.7939ZM14.4434 12.7109C14.3107 13.0522 14.4273 13.4516 14.7441 13.6641L14.9189 13.7812L13.4111 14.5342C13.1415 14.2143 12.8322 13.9293 12.4912 13.6855L14.4434 12.7109ZM14.7041 12.6748C14.8839 12.4064 15.2473 12.3348 15.5156 12.5146L16.3447 13.0703L15.1406 13.6709L14.8643 13.4863C14.5959 13.3065 14.5243 12.9431 14.7041 12.6748ZM25.7871 12.2256C26.0553 12.4055 26.1271 12.7687 25.9473 13.0371C25.8346 13.2052 25.6498 13.2959 25.4609 13.2959C25.349 13.2959 25.2359 13.2644 25.1357 13.1973L24.2881 12.6289L25.4932 12.0283L25.7871 12.2256ZM31.0098 10.3848C31.0739 10.4277 31.1428 10.4591 31.2129 10.4814L26.2148 12.9756C26.3329 12.6397 26.2164 12.2544 25.9072 12.0469L25.7148 11.918L30.0615 9.74902L31.0098 10.3848ZM20.5781 9.65039C20.446 9.99162 20.5631 10.3912 20.8799 10.6035L21.0547 10.7207L16.5664 12.96L15.6348 12.3359C15.5629 12.2878 15.4862 12.2528 15.4072 12.2305L20.5781 9.65039ZM25.2881 11.8906L24.083 12.4912L21.4814 10.748L22.6855 10.1465L25.2881 11.8906ZM20.8389 9.61328C21.0187 9.34494 21.3821 9.27343 21.6504 9.45312L22.4805 10.0088L21.2754 10.6104L20.999 10.4248C20.7309 10.2449 20.6592 9.88146 20.8389 9.61328ZM31.7812 9.23438C32.0494 9.41415 32.121 9.77752 31.9414 10.0459C31.8287 10.214 31.6438 10.3056 31.4551 10.3057C31.3431 10.3057 31.2301 10.2732 31.1299 10.2061L30.2832 9.63867L31.4873 9.03711L31.7812 9.23438ZM37.0039 7.39453C37.0679 7.43738 37.1361 7.46885 37.2061 7.49121L32.209 9.98438C32.3268 9.64851 32.2097 9.26299 31.9004 9.05566L31.709 8.92676L36.0547 6.75781L37.0039 7.39453ZM26.5723 6.66016C26.4402 7.00135 26.5574 7.40009 26.874 7.6123L27.0488 7.72949L22.7021 9.89844L21.7705 9.27441C21.6987 9.22628 21.6219 9.19129 21.543 9.16895L26.5723 6.66016ZM31.2822 8.89941L30.0771 9.50098L27.4746 7.75684L28.6797 7.15625L31.2822 8.89941ZM26.833 6.62305C27.0128 6.35486 27.376 6.28234 27.6445 6.46191L28.4746 7.01758L27.2695 7.61914L26.9932 7.43457C26.7249 7.25477 26.6534 6.89129 26.833 6.62305ZM37.7744 6.24414C38.0427 6.424 38.1144 6.78725 37.9346 7.05566C37.8218 7.22378 37.6371 7.31543 37.4482 7.31543C37.3364 7.31538 37.2232 7.2829 37.123 7.21582L36.2764 6.64746L37.4805 6.04688L37.7744 6.24414ZM39.0244 0.446289C39.4526 0.23276 39.938 0.199987 40.3916 0.351562C40.8454 0.50326 41.2123 0.821858 41.4258 1.25L42.2793 2.95996V2.96094C42.7197 3.84362 42.3597 4.92048 41.4766 5.36133L38.2021 6.99414C38.3202 6.65818 38.2039 6.27284 37.8945 6.06543L37.7021 5.93652L40.9541 4.31445C41.26 4.16179 41.385 3.78935 41.2324 3.4834L40.3789 1.77246C40.305 1.62437 40.1776 1.51339 40.0205 1.46094C39.8636 1.4086 39.6949 1.42041 39.5469 1.49414L34.6895 3.91699L33.7578 3.29297C33.6863 3.24507 33.6098 3.20981 33.5312 3.1875L39.0254 0.447266L39.0244 0.446289ZM32.5664 3.66895C32.4339 4.01025 32.5505 4.40966 32.8672 4.62207L33.042 4.73926L28.6953 6.9082L27.7646 6.28418L27.6943 6.24219C27.6432 6.21494 27.5902 6.19396 27.5361 6.17871L32.5664 3.66895ZM37.2754 5.90918L36.0703 6.50977L33.4688 4.7666L34.6738 4.16504L37.2754 5.90918ZM32.8271 3.63184C33.0071 3.36377 33.3704 3.2919 33.6387 3.47168L34.4678 4.02734L33.2637 4.62891L32.9873 4.44336C32.719 4.2635 32.6473 3.90011 32.8271 3.63184ZM3.79785 29.5859H4.96777V30.1709C4.96769 30.4938 4.70565 30.7557 4.38281 30.7559C4.05983 30.7559 3.79794 30.4939 3.79785 30.1709V29.5859ZM5.18262 29.5859H14.0205V30.1709C14.0206 30.4026 14.1209 30.6098 14.2783 30.7559H4.9248C5.08232 30.6098 5.18257 30.4026 5.18262 30.1709V29.5859ZM14.2363 29.5859H15.4062V30.1709C15.4062 30.4937 15.1441 30.7557 14.8213 30.7559C14.4983 30.7559 14.2364 30.4939 14.2363 30.1709V29.5859ZM15.6211 29.5859H36.6943V30.1709C36.6944 30.4027 36.7945 30.6098 36.9521 30.7559H15.3633C15.5208 30.6098 15.621 30.4026 15.6211 30.1709V29.5859ZM36.9092 29.5859H38.0791V30.1709C38.079 30.4939 37.8171 30.7559 37.4941 30.7559C37.1712 30.7558 36.9093 30.4939 36.9092 30.1709V29.5859ZM38.2939 29.5859H40.4434V30.1709C40.4434 30.4027 40.5436 30.6098 40.7012 30.7559H38.0361C38.1938 30.6098 38.2939 30.4027 38.2939 30.1709V29.5859ZM40.6582 29.5859H41.8281V30.1709C41.828 30.4939 41.5663 30.7559 41.2432 30.7559C40.9203 30.7558 40.6583 30.4938 40.6582 30.1709V29.5859ZM42.043 29.5859H44.5986C44.9216 29.586 45.1836 29.8479 45.1836 30.1709C45.1835 30.4938 44.9215 30.7558 44.5986 30.7559H41.7852C41.9428 30.6098 42.0429 30.4028 42.043 30.1709V29.5859ZM4.83496 26.5938H6.00488V27.1787C6.00488 27.5018 5.74296 27.7637 5.41992 27.7637C5.09689 27.7637 4.83496 27.5017 4.83496 27.1787V26.5938ZM6.21973 26.5938H12.9834V27.1787C12.9834 27.4105 13.0837 27.6176 13.2412 27.7637H5.96191C6.1195 27.6176 6.21973 27.4105 6.21973 27.1787V26.5938ZM13.1982 26.5938H14.3682V27.1787C14.3682 27.5016 14.1063 27.7637 13.7832 27.7637C13.4603 27.7635 13.1982 27.5017 13.1982 27.1787V26.5938ZM14.583 26.5938H14.8213C15.1441 26.594 15.4062 26.8558 15.4062 27.1787V29.3711H14.2363V27.8369C14.4456 27.6926 14.583 27.452 14.583 27.1787V26.5938ZM14.583 17.7393C14.583 17.6508 14.5808 17.5629 14.5762 17.4756L17.9326 15.8008L18.8809 16.4365C18.9452 16.4796 19.0136 16.5118 19.084 16.5342L14.583 18.7803V17.7393Z" fill="#664638"/>
<path d="M1.66699 29.5859H3.58301V30.1709C3.58305 30.4026 3.68242 30.6098 3.83984 30.7559H1.66699C1.34403 30.7558 1.08212 30.4938 1.08203 30.1709C1.08203 29.8479 1.34398 29.586 1.66699 29.5859ZM37.4941 16.5732H41.2432C41.5661 16.5732 41.8279 16.8353 41.8281 17.1582V29.3711H40.6582V17.7432H38.0791V29.3711H36.9092V17.1582C36.9094 16.8354 37.1712 16.5733 37.4941 16.5732ZM4.38281 26.5938H4.62012V27.1787C4.62012 27.4523 4.75825 27.6927 4.96777 27.8369V29.3711H3.79785V27.1787C3.79791 26.8557 4.05981 26.5938 4.38281 26.5938ZM13.1982 19.0703C13.3506 19.234 13.5644 19.3252 13.7842 19.3252C13.9042 19.3252 14.0263 19.2982 14.1406 19.2412L14.3682 19.127V26.3789H13.1982V19.0703ZM9.60156 12.9727C10.5014 12.9727 11.3437 13.224 12.0625 13.6592L11.8604 13.7607C11.5255 13.9279 11.3597 14.2979 11.4365 14.6475C10.8989 14.3273 10.2715 14.1426 9.60156 14.1426C8.64094 14.1426 7.73752 14.5171 7.05859 15.1963C6.39287 15.8618 6.01844 16.7462 6.00488 17.6865V26.3789H4.83496V17.6758C4.85036 16.5048 5.28741 15.3997 6.07031 14.5381L6.23145 14.3691C7.1315 13.4688 8.32807 12.9727 9.60156 12.9727ZM9.60156 16.1465C10.6672 16.1465 11.535 17.0135 11.5352 18.0791C11.535 19.1449 10.6673 20.0127 9.60156 20.0127C8.5358 20.0126 7.66895 19.1448 7.66895 18.0791C7.66907 17.0134 8.53599 16.1466 9.60156 16.1465ZM14.3682 18.8867L14.0449 19.0488C13.9609 19.0907 13.8716 19.1103 13.7842 19.1104C13.5691 19.1104 13.3622 18.9913 13.2598 18.7861C13.1157 18.4972 13.2334 18.1461 13.5225 18.002L14.3643 17.5811C14.366 17.6336 14.3682 17.6863 14.3682 17.7393V18.8867ZM9.60156 17.3164C9.1807 17.3165 8.83893 17.6584 8.83887 18.0791C8.83887 18.5 9.18081 18.8427 9.60156 18.8428C10.0225 18.8428 10.3652 18.4999 10.3652 18.0791C10.3652 17.6583 10.0224 17.3164 9.60156 17.3164ZM13.3525 14.8037C13.9122 15.5171 14.2724 16.3926 14.3506 17.3477L13.4268 17.8096C13.3383 17.8537 13.2618 17.9122 13.1982 17.9805V17.7393C13.1982 16.7863 12.8249 15.9196 12.2178 15.2754C12.3377 15.2754 12.4595 15.2495 12.5742 15.1924H12.5752L13.3525 14.8037ZM19.6514 15.2861C19.9197 15.466 19.9913 15.8294 19.8115 16.0977C19.6989 16.2659 19.5141 16.3574 19.3252 16.3574C19.2133 16.3574 19.1001 16.3249 19 16.2578L18.1533 15.6904L19.3584 15.0898L19.6514 15.2861ZM25.0166 13.376C25.0809 13.419 25.1495 13.4503 25.2197 13.4727L20.0791 16.0371C20.1975 15.7011 20.0812 15.315 19.7715 15.1074L19.5801 14.9785L24.0674 12.7393L25.0166 13.376ZM19.1523 14.9521L17.9482 15.5527L15.3457 13.8086L16.5508 13.208L19.1523 14.9521ZM12.2734 13.7939C12.6226 14.0311 12.9381 14.3139 13.2129 14.6328L12.4785 15C12.1894 15.144 11.8386 15.0263 11.6943 14.7373C11.5503 14.4484 11.6672 14.0975 11.9561 13.9531L12.2734 13.7939ZM14.4434 12.7109C14.3107 13.0522 14.4273 13.4516 14.7441 13.6641L14.9189 13.7812L13.4111 14.5342C13.1415 14.2143 12.8322 13.9293 12.4912 13.6855L14.4434 12.7109ZM14.7041 12.6748C14.8839 12.4064 15.2473 12.3348 15.5156 12.5146L16.3447 13.0703L15.1406 13.6709L14.8643 13.4863C14.5959 13.3065 14.5243 12.9431 14.7041 12.6748ZM25.7871 12.2256C26.0553 12.4055 26.1271 12.7687 25.9473 13.0371C25.8346 13.2052 25.6498 13.2959 25.4609 13.2959C25.349 13.2959 25.2359 13.2644 25.1357 13.1973L24.2881 12.6289L25.4932 12.0283L25.7871 12.2256ZM31.0098 10.3848C31.0739 10.4277 31.1428 10.4591 31.2129 10.4814L26.2148 12.9756C26.3329 12.6397 26.2164 12.2544 25.9072 12.0469L25.7148 11.918L30.0615 9.74902L31.0098 10.3848ZM20.5781 9.65039C20.446 9.99162 20.5631 10.3912 20.8799 10.6035L21.0547 10.7207L16.5664 12.96L15.6348 12.3359C15.5629 12.2878 15.4862 12.2528 15.4072 12.2305L20.5781 9.65039ZM25.2881 11.8906L24.083 12.4912L21.4814 10.748L22.6855 10.1465L25.2881 11.8906ZM20.8389 9.61328C21.0187 9.34494 21.3821 9.27343 21.6504 9.45312L22.4805 10.0088L21.2754 10.6104L20.999 10.4248C20.7309 10.2449 20.6592 9.88146 20.8389 9.61328ZM31.7812 9.23438C32.0494 9.41415 32.121 9.77752 31.9414 10.0459C31.8287 10.214 31.6438 10.3056 31.4551 10.3057C31.3431 10.3057 31.2301 10.2732 31.1299 10.2061L30.2832 9.63867L31.4873 9.03711L31.7812 9.23438ZM37.0039 7.39453C37.0679 7.43738 37.1361 7.46885 37.2061 7.49121L32.209 9.98438C32.3268 9.64851 32.2097 9.26299 31.9004 9.05566L31.709 8.92676L36.0547 6.75781L37.0039 7.39453ZM26.5723 6.66016C26.4402 7.00135 26.5574 7.40009 26.874 7.6123L27.0488 7.72949L22.7021 9.89844L21.7705 9.27441C21.6987 9.22628 21.6219 9.19129 21.543 9.16895L26.5723 6.66016ZM31.2822 8.89941L30.0771 9.50098L27.4746 7.75684L28.6797 7.15625L31.2822 8.89941ZM26.833 6.62305C27.0128 6.35486 27.376 6.28234 27.6445 6.46191L28.4746 7.01758L27.2695 7.61914L26.9932 7.43457C26.7249 7.25477 26.6534 6.89129 26.833 6.62305ZM37.7744 6.24414C38.0427 6.424 38.1144 6.78725 37.9346 7.05566C37.8218 7.22378 37.6371 7.31543 37.4482 7.31543C37.3364 7.31538 37.2232 7.2829 37.123 7.21582L36.2764 6.64746L37.4805 6.04688L37.7744 6.24414ZM39.0244 0.446289C39.4526 0.23276 39.938 0.199987 40.3916 0.351562C40.8454 0.50326 41.2123 0.821858 41.4258 1.25L42.2793 2.95996V2.96094C42.7197 3.84362 42.3597 4.92048 41.4766 5.36133L38.2021 6.99414C38.3202 6.65818 38.2039 6.27284 37.8945 6.06543L37.7021 5.93652L40.9541 4.31445C41.26 4.16179 41.385 3.78935 41.2324 3.4834L40.3789 1.77246C40.305 1.62437 40.1776 1.51339 40.0205 1.46094C39.8636 1.4086 39.6949 1.42041 39.5469 1.49414L34.6895 3.91699L33.7578 3.29297C33.6863 3.24507 33.6098 3.20981 33.5312 3.1875L39.0254 0.447266L39.0244 0.446289ZM32.5664 3.66895C32.4339 4.01025 32.5505 4.40966 32.8672 4.62207L33.042 4.73926L28.6953 6.9082L27.7646 6.28418L27.6943 6.24219C27.6432 6.21494 27.5902 6.19396 27.5361 6.17871L32.5664 3.66895ZM37.2754 5.90918L36.0703 6.50977L33.4688 4.7666L34.6738 4.16504L37.2754 5.90918ZM32.8271 3.63184C33.0071 3.36377 33.3704 3.2919 33.6387 3.47168L34.4678 4.02734L33.2637 4.62891L32.9873 4.44336C32.719 4.2635 32.6473 3.90011 32.8271 3.63184ZM3.79785 29.5859H4.96777V30.1709C4.96769 30.4938 4.70565 30.7557 4.38281 30.7559C4.05983 30.7559 3.79794 30.4939 3.79785 30.1709V29.5859ZM5.18262 29.5859H14.0205V30.1709C14.0206 30.4026 14.1209 30.6098 14.2783 30.7559H4.9248C5.08232 30.6098 5.18257 30.4026 5.18262 30.1709V29.5859ZM14.2363 29.5859H15.4062V30.1709C15.4062 30.4937 15.1441 30.7557 14.8213 30.7559C14.4983 30.7559 14.2364 30.4939 14.2363 30.1709V29.5859ZM15.6211 29.5859H36.6943V30.1709C36.6944 30.4027 36.7945 30.6098 36.9521 30.7559H15.3633C15.5208 30.6098 15.621 30.4026 15.6211 30.1709V29.5859ZM36.9092 29.5859H38.0791V30.1709C38.079 30.4939 37.8171 30.7559 37.4941 30.7559C37.1712 30.7558 36.9093 30.4939 36.9092 30.1709V29.5859ZM38.2939 29.5859H40.4434V30.1709C40.4434 30.4027 40.5436 30.6098 40.7012 30.7559H38.0361C38.1938 30.6098 38.2939 30.4027 38.2939 30.1709V29.5859ZM40.6582 29.5859H41.8281V30.1709C41.828 30.4939 41.5663 30.7559 41.2432 30.7559C40.9203 30.7558 40.6583 30.4938 40.6582 30.1709V29.5859ZM42.043 29.5859H44.5986C44.9216 29.586 45.1836 29.8479 45.1836 30.1709C45.1835 30.4938 44.9215 30.7558 44.5986 30.7559H41.7852C41.9428 30.6098 42.0429 30.4028 42.043 30.1709V29.5859ZM4.83496 26.5938H6.00488V27.1787C6.00488 27.5018 5.74296 27.7637 5.41992 27.7637C5.09689 27.7637 4.83496 27.5017 4.83496 27.1787V26.5938ZM6.21973 26.5938H12.9834V27.1787C12.9834 27.4105 13.0837 27.6176 13.2412 27.7637H5.96191C6.1195 27.6176 6.21973 27.4105 6.21973 27.1787V26.5938ZM13.1982 26.5938H14.3682V27.1787C14.3682 27.5016 14.1063 27.7637 13.7832 27.7637C13.4603 27.7635 13.1982 27.5017 13.1982 27.1787V26.5938ZM14.583 26.5938H14.8213C15.1441 26.594 15.4062 26.8558 15.4062 27.1787V29.3711H14.2363V27.8369C14.4456 27.6926 14.583 27.452 14.583 27.1787V26.5938ZM14.583 17.7393C14.583 17.6508 14.5808 17.5629 14.5762 17.4756L17.9326 15.8008L18.8809 16.4365C18.9452 16.4796 19.0136 16.5118 19.084 16.5342L14.583 18.7803V17.7393Z" stroke="#664638" stroke-width="0.214981"/>
</svg>
