<svg width="40" height="39" viewBox="0 0 40 39" fill="none" xmlns="http://www.w3.org/2000/svg">
<mask id="path-1-inside-1_28_335" fill="white">
<path d="M38.978 13.728H38.9676L23.1646 6.76811V4.59831H23.7894C24.0859 4.59985 24.3742 4.50085 24.6071 4.31745C24.8401 4.13406 25.0041 3.8771 25.0722 3.58853C25.1403 3.29996 25.1087 2.99681 24.9823 2.72856C24.856 2.46032 24.6424 2.24283 24.3765 2.11158L20.5113 0.19907C20.3286 0.109222 20.1278 0.0625 19.9242 0.0625C19.7206 0.0625 19.5197 0.109222 19.337 0.19907L15.4718 2.11158C15.2059 2.24283 14.9924 2.46032 14.866 2.72856C14.7397 2.99681 14.708 3.29996 14.7761 3.58853C14.8443 3.8771 15.0082 4.13406 15.2412 4.31745C15.4742 4.50085 15.7625 4.59985 16.059 4.59831H16.6837V6.76811L0.879386 13.7221H0.869016C0.753127 13.773 0.65467 13.8567 0.585798 13.9629C0.516927 14.0691 0.480655 14.1931 0.481458 14.3197V16.2639C0.481458 16.6077 0.61802 16.9374 0.861101 17.1805C1.10418 17.4235 1.43387 17.5601 1.77764 17.5601H2.42573V34.4105H1.77764C1.43387 34.4105 1.10418 34.547 0.861101 34.7901C0.61802 35.0332 0.481458 35.3629 0.481458 35.7066V37.6509C0.481458 37.9947 0.61802 38.3244 0.861101 38.5674C1.10418 38.8105 1.43387 38.9471 1.77764 38.9471H38.0707C38.4145 38.9471 38.7441 38.8105 38.9872 38.5674C39.2303 38.3244 39.3669 37.9947 39.3669 37.6509V35.7066C39.3669 35.3629 39.2303 35.0332 38.9872 34.7901C38.7441 34.547 38.4145 34.4105 38.0707 34.4105H37.4226V17.5601H38.0707C38.4145 17.5601 38.7441 17.4235 38.9872 17.1805C39.2303 16.9374 39.3669 16.6077 39.3669 16.2639V14.3197C39.3664 14.1939 39.3294 14.0711 39.2604 13.966C39.1913 13.8609 39.0932 13.7782 38.978 13.728ZM22.3804 7.83876L35.6371 13.6716H4.21122L17.4679 7.83876H22.3804ZM16.0466 3.27361L19.9352 1.3611L23.7997 3.27361L23.7894 3.30213L16.0466 3.27361ZM21.8684 4.59831V6.54258H17.9799V4.59831H21.8684ZM3.72191 17.5601H5.01809V34.4105H3.72191V17.5601ZM31.5898 34.4105V26.6334H33.5341V34.4105H31.5898ZM28.3493 26.6334H30.2936V34.4105H28.3493V26.6334ZM33.5341 25.3372H28.3493V17.5601H33.5341V25.3372ZM27.0532 34.4105H25.757V17.5601H27.0532V34.4105ZM24.4608 34.4105H15.3875V17.5601H24.4608V34.4105ZM14.0914 34.4105H12.7952V17.5601H14.0914V34.4105ZM6.31427 26.6334H8.25854V34.4105H6.31427V26.6334ZM9.55472 26.6334H11.499V34.4105H9.55472V26.6334ZM11.499 25.3372H6.31427V17.5601H11.499V25.3372ZM38.0707 37.6509H1.77764V35.7066H38.0707V37.6509ZM36.1264 34.4105H34.8302V17.5601H36.1264V34.4105ZM1.77764 16.2639V14.9677H38.0707V16.2639H1.77764Z"/>
</mask>
<path d="M38.978 13.728H38.9676L23.1646 6.76811V4.59831H23.7894C24.0859 4.59985 24.3742 4.50085 24.6071 4.31745C24.8401 4.13406 25.0041 3.8771 25.0722 3.58853C25.1403 3.29996 25.1087 2.99681 24.9823 2.72856C24.856 2.46032 24.6424 2.24283 24.3765 2.11158L20.5113 0.19907C20.3286 0.109222 20.1278 0.0625 19.9242 0.0625C19.7206 0.0625 19.5197 0.109222 19.337 0.19907L15.4718 2.11158C15.2059 2.24283 14.9924 2.46032 14.866 2.72856C14.7397 2.99681 14.708 3.29996 14.7761 3.58853C14.8443 3.8771 15.0082 4.13406 15.2412 4.31745C15.4742 4.50085 15.7625 4.59985 16.059 4.59831H16.6837V6.76811L0.879386 13.7221H0.869016C0.753127 13.773 0.65467 13.8567 0.585798 13.9629C0.516927 14.0691 0.480655 14.1931 0.481458 14.3197V16.2639C0.481458 16.6077 0.61802 16.9374 0.861101 17.1805C1.10418 17.4235 1.43387 17.5601 1.77764 17.5601H2.42573V34.4105H1.77764C1.43387 34.4105 1.10418 34.547 0.861101 34.7901C0.61802 35.0332 0.481458 35.3629 0.481458 35.7066V37.6509C0.481458 37.9947 0.61802 38.3244 0.861101 38.5674C1.10418 38.8105 1.43387 38.9471 1.77764 38.9471H38.0707C38.4145 38.9471 38.7441 38.8105 38.9872 38.5674C39.2303 38.3244 39.3669 37.9947 39.3669 37.6509V35.7066C39.3669 35.3629 39.2303 35.0332 38.9872 34.7901C38.7441 34.547 38.4145 34.4105 38.0707 34.4105H37.4226V17.5601H38.0707C38.4145 17.5601 38.7441 17.4235 38.9872 17.1805C39.2303 16.9374 39.3669 16.6077 39.3669 16.2639V14.3197C39.3664 14.1939 39.3294 14.0711 39.2604 13.966C39.1913 13.8609 39.0932 13.7782 38.978 13.728ZM22.3804 7.83876L35.6371 13.6716H4.21122L17.4679 7.83876H22.3804ZM16.0466 3.27361L19.9352 1.3611L23.7997 3.27361L23.7894 3.30213L16.0466 3.27361ZM21.8684 4.59831V6.54258H17.9799V4.59831H21.8684ZM3.72191 17.5601H5.01809V34.4105H3.72191V17.5601ZM31.5898 34.4105V26.6334H33.5341V34.4105H31.5898ZM28.3493 26.6334H30.2936V34.4105H28.3493V26.6334ZM33.5341 25.3372H28.3493V17.5601H33.5341V25.3372ZM27.0532 34.4105H25.757V17.5601H27.0532V34.4105ZM24.4608 34.4105H15.3875V17.5601H24.4608V34.4105ZM14.0914 34.4105H12.7952V17.5601H14.0914V34.4105ZM6.31427 26.6334H8.25854V34.4105H6.31427V26.6334ZM9.55472 26.6334H11.499V34.4105H9.55472V26.6334ZM11.499 25.3372H6.31427V17.5601H11.499V25.3372ZM38.0707 37.6509H1.77764V35.7066H38.0707V37.6509ZM36.1264 34.4105H34.8302V17.5601H36.1264V34.4105ZM1.77764 16.2639V14.9677H38.0707V16.2639H1.77764Z" fill="#664638"/>
<path d="M38.978 13.728H38.9676L23.1646 6.76811V4.59831H23.7894C24.0859 4.59985 24.3742 4.50085 24.6071 4.31745C24.8401 4.13406 25.0041 3.8771 25.0722 3.58853C25.1403 3.29996 25.1087 2.99681 24.9823 2.72856C24.856 2.46032 24.6424 2.24283 24.3765 2.11158L20.5113 0.19907C20.3286 0.109222 20.1278 0.0625 19.9242 0.0625C19.7206 0.0625 19.5197 0.109222 19.337 0.19907L15.4718 2.11158C15.2059 2.24283 14.9924 2.46032 14.866 2.72856C14.7397 2.99681 14.708 3.29996 14.7761 3.58853C14.8443 3.8771 15.0082 4.13406 15.2412 4.31745C15.4742 4.50085 15.7625 4.59985 16.059 4.59831H16.6837V6.76811L0.879386 13.7221H0.869016C0.753127 13.773 0.65467 13.8567 0.585798 13.9629C0.516927 14.0691 0.480655 14.1931 0.481458 14.3197V16.2639C0.481458 16.6077 0.61802 16.9374 0.861101 17.1805C1.10418 17.4235 1.43387 17.5601 1.77764 17.5601H2.42573V34.4105H1.77764C1.43387 34.4105 1.10418 34.547 0.861101 34.7901C0.61802 35.0332 0.481458 35.3629 0.481458 35.7066V37.6509C0.481458 37.9947 0.61802 38.3244 0.861101 38.5674C1.10418 38.8105 1.43387 38.9471 1.77764 38.9471H38.0707C38.4145 38.9471 38.7441 38.8105 38.9872 38.5674C39.2303 38.3244 39.3669 37.9947 39.3669 37.6509V35.7066C39.3669 35.3629 39.2303 35.0332 38.9872 34.7901C38.7441 34.547 38.4145 34.4105 38.0707 34.4105H37.4226V17.5601H38.0707C38.4145 17.5601 38.7441 17.4235 38.9872 17.1805C39.2303 16.9374 39.3669 16.6077 39.3669 16.2639V14.3197C39.3664 14.1939 39.3294 14.0711 39.2604 13.966C39.1913 13.8609 39.0932 13.7782 38.978 13.728ZM22.3804 7.83876L35.6371 13.6716H4.21122L17.4679 7.83876H22.3804ZM16.0466 3.27361L19.9352 1.3611L23.7997 3.27361L23.7894 3.30213L16.0466 3.27361ZM21.8684 4.59831V6.54258H17.9799V4.59831H21.8684ZM3.72191 17.5601H5.01809V34.4105H3.72191V17.5601ZM31.5898 34.4105V26.6334H33.5341V34.4105H31.5898ZM28.3493 26.6334H30.2936V34.4105H28.3493V26.6334ZM33.5341 25.3372H28.3493V17.5601H33.5341V25.3372ZM27.0532 34.4105H25.757V17.5601H27.0532V34.4105ZM24.4608 34.4105H15.3875V17.5601H24.4608V34.4105ZM14.0914 34.4105H12.7952V17.5601H14.0914V34.4105ZM6.31427 26.6334H8.25854V34.4105H6.31427V26.6334ZM9.55472 26.6334H11.499V34.4105H9.55472V26.6334ZM11.499 25.3372H6.31427V17.5601H11.499V25.3372ZM38.0707 37.6509H1.77764V35.7066H38.0707V37.6509ZM36.1264 34.4105H34.8302V17.5601H36.1264V34.4105ZM1.77764 16.2639V14.9677H38.0707V16.2639H1.77764Z" fill="#664638"/>
<path d="M38.978 13.728H38.9676L23.1646 6.76811V4.59831H23.7894C24.0859 4.59985 24.3742 4.50085 24.6071 4.31745C24.8401 4.13406 25.0041 3.8771 25.0722 3.58853C25.1403 3.29996 25.1087 2.99681 24.9823 2.72856C24.856 2.46032 24.6424 2.24283 24.3765 2.11158L20.5113 0.19907C20.3286 0.109222 20.1278 0.0625 19.9242 0.0625C19.7206 0.0625 19.5197 0.109222 19.337 0.19907L15.4718 2.11158C15.2059 2.24283 14.9924 2.46032 14.866 2.72856C14.7397 2.99681 14.708 3.29996 14.7761 3.58853C14.8443 3.8771 15.0082 4.13406 15.2412 4.31745C15.4742 4.50085 15.7625 4.59985 16.059 4.59831H16.6837V6.76811L0.879386 13.7221H0.869016C0.753127 13.773 0.65467 13.8567 0.585798 13.9629C0.516927 14.0691 0.480655 14.1931 0.481458 14.3197V16.2639C0.481458 16.6077 0.61802 16.9374 0.861101 17.1805C1.10418 17.4235 1.43387 17.5601 1.77764 17.5601H2.42573V34.4105H1.77764C1.43387 34.4105 1.10418 34.547 0.861101 34.7901C0.61802 35.0332 0.481458 35.3629 0.481458 35.7066V37.6509C0.481458 37.9947 0.61802 38.3244 0.861101 38.5674C1.10418 38.8105 1.43387 38.9471 1.77764 38.9471H38.0707C38.4145 38.9471 38.7441 38.8105 38.9872 38.5674C39.2303 38.3244 39.3669 37.9947 39.3669 37.6509V35.7066C39.3669 35.3629 39.2303 35.0332 38.9872 34.7901C38.7441 34.547 38.4145 34.4105 38.0707 34.4105H37.4226V17.5601H38.0707C38.4145 17.5601 38.7441 17.4235 38.9872 17.1805C39.2303 16.9374 39.3669 16.6077 39.3669 16.2639V14.3197C39.3664 14.1939 39.3294 14.0711 39.2604 13.966C39.1913 13.8609 39.0932 13.7782 38.978 13.728ZM22.3804 7.83876L35.6371 13.6716H4.21122L17.4679 7.83876H22.3804ZM16.0466 3.27361L19.9352 1.3611L23.7997 3.27361L23.7894 3.30213L16.0466 3.27361ZM21.8684 4.59831V6.54258H17.9799V4.59831H21.8684ZM3.72191 17.5601H5.01809V34.4105H3.72191V17.5601ZM31.5898 34.4105V26.6334H33.5341V34.4105H31.5898ZM28.3493 26.6334H30.2936V34.4105H28.3493V26.6334ZM33.5341 25.3372H28.3493V17.5601H33.5341V25.3372ZM27.0532 34.4105H25.757V17.5601H27.0532V34.4105ZM24.4608 34.4105H15.3875V17.5601H24.4608V34.4105ZM14.0914 34.4105H12.7952V17.5601H14.0914V34.4105ZM6.31427 26.6334H8.25854V34.4105H6.31427V26.6334ZM9.55472 26.6334H11.499V34.4105H9.55472V26.6334ZM11.499 25.3372H6.31427V17.5601H11.499V25.3372ZM38.0707 37.6509H1.77764V35.7066H38.0707V37.6509ZM36.1264 34.4105H34.8302V17.5601H36.1264V34.4105ZM1.77764 16.2639V14.9677H38.0707V16.2639H1.77764Z" stroke="#664638" stroke-width="1.0756" mask="url(#path-1-inside-1_28_335)"/>
<path d="M38.978 13.728H38.9676L23.1646 6.76811V4.59831H23.7894C24.0859 4.59985 24.3742 4.50085 24.6071 4.31745C24.8401 4.13406 25.0041 3.8771 25.0722 3.58853C25.1403 3.29996 25.1087 2.99681 24.9823 2.72856C24.856 2.46032 24.6424 2.24283 24.3765 2.11158L20.5113 0.19907C20.3286 0.109222 20.1278 0.0625 19.9242 0.0625C19.7206 0.0625 19.5197 0.109222 19.337 0.19907L15.4718 2.11158C15.2059 2.24283 14.9924 2.46032 14.866 2.72856C14.7397 2.99681 14.708 3.29996 14.7761 3.58853C14.8443 3.8771 15.0082 4.13406 15.2412 4.31745C15.4742 4.50085 15.7625 4.59985 16.059 4.59831H16.6837V6.76811L0.879386 13.7221H0.869016C0.753127 13.773 0.65467 13.8567 0.585798 13.9629C0.516927 14.0691 0.480655 14.1931 0.481458 14.3197V16.2639C0.481458 16.6077 0.61802 16.9374 0.861101 17.1805C1.10418 17.4235 1.43387 17.5601 1.77764 17.5601H2.42573V34.4105H1.77764C1.43387 34.4105 1.10418 34.547 0.861101 34.7901C0.61802 35.0332 0.481458 35.3629 0.481458 35.7066V37.6509C0.481458 37.9947 0.61802 38.3244 0.861101 38.5674C1.10418 38.8105 1.43387 38.9471 1.77764 38.9471H38.0707C38.4145 38.9471 38.7441 38.8105 38.9872 38.5674C39.2303 38.3244 39.3669 37.9947 39.3669 37.6509V35.7066C39.3669 35.3629 39.2303 35.0332 38.9872 34.7901C38.7441 34.547 38.4145 34.4105 38.0707 34.4105H37.4226V17.5601H38.0707C38.4145 17.5601 38.7441 17.4235 38.9872 17.1805C39.2303 16.9374 39.3669 16.6077 39.3669 16.2639V14.3197C39.3664 14.1939 39.3294 14.0711 39.2604 13.966C39.1913 13.8609 39.0932 13.7782 38.978 13.728ZM22.3804 7.83876L35.6371 13.6716H4.21122L17.4679 7.83876H22.3804ZM16.0466 3.27361L19.9352 1.3611L23.7997 3.27361L23.7894 3.30213L16.0466 3.27361ZM21.8684 4.59831V6.54258H17.9799V4.59831H21.8684ZM3.72191 17.5601H5.01809V34.4105H3.72191V17.5601ZM31.5898 34.4105V26.6334H33.5341V34.4105H31.5898ZM28.3493 26.6334H30.2936V34.4105H28.3493V26.6334ZM33.5341 25.3372H28.3493V17.5601H33.5341V25.3372ZM27.0532 34.4105H25.757V17.5601H27.0532V34.4105ZM24.4608 34.4105H15.3875V17.5601H24.4608V34.4105ZM14.0914 34.4105H12.7952V17.5601H14.0914V34.4105ZM6.31427 26.6334H8.25854V34.4105H6.31427V26.6334ZM9.55472 26.6334H11.499V34.4105H9.55472V26.6334ZM11.499 25.3372H6.31427V17.5601H11.499V25.3372ZM38.0707 37.6509H1.77764V35.7066H38.0707V37.6509ZM36.1264 34.4105H34.8302V17.5601H36.1264V34.4105ZM1.77764 16.2639V14.9677H38.0707V16.2639H1.77764Z" stroke="#664638" stroke-width="1.0756" mask="url(#path-1-inside-1_28_335)"/>
</svg>
