<svg width="309" height="70" viewBox="0 0 309 70" fill="none" xmlns="http://www.w3.org/2000/svg">
<path d="M101.302 30.364H91.5858L90.4424 33.0703C89.6917 34.8632 89.3162 35.9615 89.3162 36.365C89.3162 36.623 89.3833 36.8076 89.5179 36.9199C89.6638 37.0318 90.0221 37.1216 90.5938 37.1888L92.2074 37.3737V38.4328C91.1316 38.3545 89.9214 38.315 88.5767 38.315C86.9627 38.315 85.5453 38.3545 84.3236 38.4328V37.3737L84.8278 37.3569C85.6124 37.3346 86.1166 37.2559 86.3407 37.1216C86.576 36.9758 86.8229 36.6286 87.0806 36.0793C87.876 34.4657 88.6886 32.7231 89.5179 30.8514L94.1406 20.3788C95.3735 17.5994 96.214 15.5823 96.6623 14.3271H97.8053L106.311 34.1126C106.883 35.4573 107.264 36.2699 107.455 36.55C107.645 36.8188 107.864 37.015 108.11 37.1384C108.357 37.2503 108.911 37.329 109.774 37.3737V38.4328C108.317 38.3545 106.928 38.315 105.605 38.315C104.372 38.315 102.731 38.3545 100.68 38.4328V37.3737L102.344 37.273C102.938 37.2279 103.291 37.1664 103.403 37.0881C103.571 36.9646 103.655 36.8076 103.655 36.6174C103.655 36.4157 103.487 35.8888 103.151 35.037L101.302 30.364ZM92.2074 28.9853H100.68L96.4438 18.8659L92.2074 28.9853ZM117.927 36.7853C119.025 36.8416 120.096 36.8695 121.138 36.8695C123.245 36.8695 124.892 36.8132 126.08 36.7014C126.909 36.6115 127.767 36.4493 128.652 36.214L129.661 32.2633H130.753C130.473 34.3814 130.255 36.3594 130.098 38.1975C129.089 38.3657 127.711 38.4496 125.962 38.4496L117.961 38.315C116.885 38.315 115.209 38.3769 112.935 38.4999V37.609C113.831 37.2167 114.358 36.7964 114.515 36.3482C114.683 35.9 114.767 34.1237 114.767 31.0196V21.7739C114.767 18.412 114.683 16.5404 114.515 16.1592C114.358 15.7669 113.904 15.5708 113.153 15.5708H111.321V14.5121C113.988 14.5904 115.759 14.6295 116.633 14.6295C117.798 14.6295 119.379 14.5904 121.373 14.5121V15.5708H119.289C118.695 15.5708 118.319 15.7445 118.162 16.0921C118.005 16.4281 117.927 17.8459 117.927 20.3448V31.0532L117.977 35.7937L117.927 36.7853ZM143.849 16.0418C143.725 17.7225 143.664 19.4935 143.664 21.3536V30.9353C143.664 34.4993 143.753 36.466 143.932 36.836C144.112 37.1943 144.751 37.3737 145.849 37.3737H147.11V38.4328C145.126 38.3545 143.445 38.315 142.066 38.315C140.677 38.315 139.007 38.3545 137.057 38.4328V37.3737H138.469C139.209 37.3737 139.691 37.2786 139.915 37.0881C140.139 36.8863 140.279 36.4996 140.335 35.9279C140.447 34.6167 140.503 32.9244 140.503 30.8514V21.2529C140.503 19.3589 140.464 17.6218 140.386 16.0418H138.671C135.903 16.0418 134.379 16.1089 134.099 16.2435C133.818 16.3666 133.633 16.8652 133.544 17.7393L133.308 19.9921H132.249L132.283 17.9917C132.283 17.1847 132.216 16.025 132.081 14.5121C138.133 14.5904 141.691 14.6295 142.756 14.6295L152.052 14.5121C151.839 16.4057 151.716 18.2327 151.682 19.9921H150.64L150.472 17.79C150.404 17.0277 150.309 16.5795 150.186 16.4449C150.062 16.2994 149.788 16.2096 149.362 16.176C148.129 16.0865 146.729 16.0418 145.16 16.0418H143.849ZM165.113 26.5983C165.797 25.5675 166.878 23.7742 168.358 21.2193L172.207 14.5288H174.813V14.9491C173.445 16.4844 171.77 18.7984 169.786 21.8917C167.803 24.9847 166.615 27.0577 166.223 28.1112C166.088 28.4811 166.021 29.428 166.021 30.9521C166.021 32.9808 166.071 34.5888 166.172 35.7769C166.24 36.4157 166.351 36.802 166.508 36.9367C166.677 37.0601 167.254 37.1664 168.24 37.2559L169.518 37.3905V38.4328C167.568 38.3545 166.043 38.315 164.945 38.315L159.532 38.4328V37.3905H160.961C161.914 37.3905 162.485 37.1943 162.676 36.802C162.866 36.4101 162.962 34.6391 162.962 31.4902C162.962 30.5714 162.934 29.5682 162.877 28.4811C161.432 25.8252 160.098 23.5277 158.877 21.5889C157.655 19.6501 156.624 18.2326 155.784 17.3362C155.324 16.8428 154.921 16.518 154.573 16.361C154.237 16.204 153.666 16.1257 152.859 16.1257V15.0834C153.318 14.9939 154.22 14.8145 155.565 14.5456L156.893 14.2764C157.409 14.4669 157.823 14.7078 158.137 14.9995C158.697 15.526 159.555 16.7309 160.709 18.6134C161.594 20.0592 163.062 22.7207 165.113 26.5983ZM181.134 18.311V29.9269C181.134 32.5717 181.184 34.415 181.285 35.4573C181.363 36.2531 181.492 36.7405 181.671 36.9199C181.862 37.0881 182.4 37.2111 183.285 37.2898L184.361 37.3737V38.4328C183.139 38.3545 182.036 38.315 181.049 38.315C180.366 38.315 178.797 38.3545 176.342 38.4328V37.3737H177.553C178.281 37.3737 178.758 37.273 178.982 37.0713C179.206 36.8695 179.346 36.4716 179.402 35.8776C179.525 34.6447 179.587 32.9696 179.587 30.8514V22.4966C179.587 20.9277 179.57 19.3756 179.536 17.8403C179.514 17.1903 179.424 16.7477 179.267 16.5124C179.122 16.2659 178.903 16.0474 178.612 15.8568C178.321 15.6662 177.912 15.5708 177.385 15.5708H176.342V14.5121C177.766 14.5904 178.853 14.6295 179.603 14.6295C180.41 14.6295 181.296 14.5904 182.26 14.5121C183.369 15.868 184.411 17.1904 185.386 18.4792C186.373 19.7568 187.392 21.0456 188.446 22.3455L194.195 29.4056C196.268 31.9385 197.764 33.6979 198.683 34.6842V23.892C198.683 19.3756 198.599 16.9103 198.431 16.4956C198.274 16.0697 197.63 15.8008 196.498 15.6886L195.237 15.5708V14.5121C197.041 14.5904 198.442 14.6295 199.44 14.6295C200.482 14.6295 201.827 14.5904 203.474 14.5121V15.5708H202.18C201.138 15.5708 200.538 15.9183 200.381 16.6131C200.28 17.0725 200.23 19.527 200.23 23.9759V31.5573C200.23 33.5972 200.319 36.0346 200.499 38.8699C198.975 38.6346 198.089 38.4608 197.843 38.3489C197.596 38.2478 197.361 38.0741 197.137 37.8276C195.893 36.4493 194.587 34.9196 193.22 33.2384L181.134 18.311ZM220.436 27.0186V31.1371L220.452 33.5073C220.452 34.9867 220.469 36.0681 220.503 36.7517C222.139 36.8751 223.893 36.9367 225.764 36.9367C227.019 36.9367 228.073 36.8807 228.925 36.7685C229.474 36.7014 230.056 36.5555 230.673 36.3314C230.953 35.3454 231.239 34.1126 231.53 32.6332H232.656C232.354 35.0874 232.203 36.7237 232.203 37.5419L232.236 38.2982C230.947 38.4216 229.681 38.4831 228.437 38.4831L225.798 38.4328C222.884 38.3545 220.744 38.315 219.377 38.315C218.065 38.315 216.323 38.3545 214.149 38.4328V37.3737H214.67C215.645 37.3737 216.255 37.2786 216.502 37.0881C216.76 36.8975 216.928 36.4493 217.006 35.743C217.096 35.037 217.141 33.4794 217.141 31.0699V21.841C217.141 20.3281 217.101 19.09 217.023 18.126C216.956 17.1624 216.877 16.5907 216.788 16.4113C216.709 16.2208 216.592 16.0753 216.435 15.9743C216.278 15.8736 215.796 15.7837 214.989 15.7054L213.695 15.5708V14.5288H215.51L217.292 14.5792C218.289 14.6127 219.046 14.6295 219.561 14.6295L226.016 14.5456L229.076 14.5288C230.118 14.5176 231.172 14.5624 232.236 14.6631C231.81 15.9854 231.575 17.7057 231.53 19.8239H230.387C230.387 18.591 230.325 17.5659 230.202 16.7477C228.88 16.2547 227.255 16.0078 225.327 16.0078C223.792 16.0078 222.184 16.0753 220.503 16.2096C220.514 17.2631 220.503 18.3165 220.469 19.37L220.436 21.9588V25.3714C221.545 25.4385 222.525 25.4721 223.377 25.4721C226.045 25.4721 227.552 25.3826 227.899 25.2032C228.258 25.0126 228.437 24.4354 228.437 23.4718V22.3791H229.58C229.502 24.0714 229.462 25.4217 229.462 26.4305C229.462 27.4948 229.502 28.75 229.58 30.1958H228.437V29.2206C228.437 28.1448 228.224 27.4892 227.798 27.2539C227.384 27.0074 225.904 26.8843 223.36 26.8843C222.419 26.8843 221.444 26.9291 220.436 27.0186ZM259.284 18.1428L254.291 28.5315C252.42 32.4315 250.884 35.8384 249.685 38.752H249.013C248.598 37.7548 247.41 35.194 245.449 31.0699L239.431 18.6134V31.6077C239.431 34.6335 239.549 36.3538 239.784 36.7685C240.031 37.172 240.782 37.3737 242.036 37.3737H242.658V38.4328C241.101 38.3545 239.834 38.315 238.86 38.315C238.153 38.315 236.747 38.3545 234.64 38.4328V37.3737H235.733C236.473 37.3737 236.965 37.2674 237.212 37.0545C237.458 36.8416 237.61 36.4549 237.666 35.8944C237.812 34.3255 237.884 32.6332 237.884 30.8178V21.3032C237.884 19.0057 237.834 17.4872 237.733 16.7477C237.688 16.3666 237.52 16.0753 237.229 15.8736C236.949 15.6718 236.383 15.5708 235.531 15.5708H234.64V14.5121C236.59 14.5904 237.817 14.6295 238.321 14.6295C238.96 14.6295 239.868 14.5904 241.045 14.5121C242.401 17.5263 243.964 20.8494 245.735 24.4805L250.156 33.5745L254.241 25.1529C255.675 22.2053 257.311 18.6585 259.149 14.5121C260.55 14.5904 261.536 14.6295 262.108 14.6295C262.769 14.6295 263.962 14.5904 265.688 14.5121V15.5708H264.596C263.61 15.5708 263.004 15.7445 262.78 16.0921C262.567 16.4281 262.461 17.6554 262.461 19.7735V32.0619C262.461 34.7961 262.573 36.365 262.797 36.7685C263.032 37.172 263.677 37.3737 264.73 37.3737H265.688V38.4328C264.131 38.3545 262.64 38.315 261.217 38.315C259.648 38.315 258.006 38.3545 256.292 38.4328V37.3737H257.401C258.286 37.3737 258.819 37.1832 258.998 36.802C259.188 36.4101 259.284 34.7458 259.284 31.8094V18.1428ZM274.06 27.0186V31.1371L274.077 33.5073C274.077 34.9867 274.093 36.0681 274.127 36.7517C275.763 36.8751 277.517 36.9367 279.389 36.9367C280.644 36.9367 281.697 36.8807 282.549 36.7685C283.098 36.7014 283.681 36.5555 284.297 36.3314C284.578 35.3454 284.863 34.1126 285.155 32.6332H286.281C285.978 35.0874 285.827 36.7237 285.827 37.5419L285.86 38.2982C284.572 38.4216 283.306 38.4831 282.062 38.4831L279.422 38.4328C276.508 38.3545 274.368 38.315 273.001 38.315C271.69 38.315 269.947 38.3545 267.773 38.4328V37.3737H268.294C269.269 37.3737 269.88 37.2786 270.126 37.0881C270.384 36.8975 270.552 36.4493 270.631 35.743C270.72 35.037 270.765 33.4794 270.765 31.0699V21.841C270.765 20.3281 270.726 19.09 270.647 18.126C270.58 17.1624 270.502 16.5907 270.412 16.4113C270.334 16.2208 270.216 16.0753 270.059 15.9743C269.902 15.8736 269.42 15.7837 268.613 15.7054L267.319 15.5708V14.5288H269.134L270.917 14.5792C271.914 14.6127 272.67 14.6295 273.186 14.6295L279.641 14.5456L282.7 14.5288C283.743 14.5176 284.796 14.5624 285.86 14.6631C285.435 15.9854 285.199 17.7057 285.155 19.8239H284.012C284.012 18.591 283.95 17.5659 283.827 16.7477C282.504 16.2547 280.879 16.0078 278.952 16.0078C277.417 16.0078 275.808 16.0753 274.127 16.2096C274.138 17.2631 274.127 18.3165 274.093 19.37L274.06 21.9588V25.3714C275.169 25.4385 276.15 25.4721 277.002 25.4721C279.669 25.4721 281.176 25.3826 281.523 25.2032C281.882 25.0126 282.062 24.4354 282.062 23.4718V22.3791H283.205C283.126 24.0714 283.087 25.4217 283.087 26.4305C283.087 27.4948 283.126 28.75 283.205 30.1958H282.062V29.2206C282.062 28.1448 281.849 27.4892 281.423 27.2539C281.008 27.0074 279.529 26.8843 276.985 26.8843C276.043 26.8843 275.069 26.9291 274.06 27.0186ZM294.938 36.7853C296.036 36.8416 297.107 36.8695 298.149 36.8695C300.256 36.8695 301.903 36.8132 303.091 36.7014C303.92 36.6115 304.778 36.4493 305.663 36.214L306.671 32.2633H307.764C307.484 34.3814 307.266 36.3594 307.109 38.1975C306.1 38.3657 304.721 38.4496 302.973 38.4496L294.972 38.315C293.896 38.315 292.221 38.3769 289.945 38.4999V37.609C290.842 37.2167 291.369 36.7964 291.526 36.3482C291.694 35.9 291.778 34.1237 291.778 31.0196V21.7739C291.778 18.412 291.694 16.5404 291.526 16.1592C291.369 15.7669 290.915 15.5708 290.164 15.5708H288.332V14.5121C290.999 14.5904 292.77 14.6295 293.644 14.6295C294.809 14.6295 296.389 14.5904 298.384 14.5121V15.5708H296.3C295.706 15.5708 295.33 15.7445 295.173 16.0921C295.017 16.4281 294.938 17.8459 294.938 20.3448V31.0532L294.989 35.7937L294.938 36.7853Z" fill="white"/>
<path d="M101.302 30.364H91.5858L90.4424 33.0703C89.6917 34.8632 89.3162 35.9615 89.3162 36.365C89.3162 36.623 89.3833 36.8076 89.5179 36.9199C89.6638 37.0318 90.0221 37.1216 90.5938 37.1888L92.2074 37.3737V38.4328C91.1316 38.3545 89.9214 38.315 88.5767 38.315C86.9627 38.315 85.5453 38.3545 84.3236 38.4328V37.3737L84.8278 37.3569C85.6124 37.3346 86.1166 37.2559 86.3407 37.1216C86.576 36.9758 86.8229 36.6286 87.0806 36.0793C87.876 34.4657 88.6886 32.7231 89.5179 30.8514L94.1406 20.3788C95.3735 17.5994 96.214 15.5823 96.6623 14.3271H97.8053L106.311 34.1126C106.883 35.4573 107.264 36.2699 107.455 36.55C107.645 36.8188 107.864 37.015 108.11 37.1384C108.357 37.2503 108.911 37.329 109.774 37.3737V38.4328C108.317 38.3545 106.928 38.315 105.605 38.315C104.372 38.315 102.731 38.3545 100.68 38.4328V37.3737L102.344 37.273C102.938 37.2279 103.291 37.1664 103.403 37.0881C103.571 36.9646 103.655 36.8076 103.655 36.6174C103.655 36.4157 103.487 35.8888 103.151 35.037L101.302 30.364ZM92.2074 28.9853H100.68L96.4438 18.8659L92.2074 28.9853ZM117.927 36.7853C119.025 36.8416 120.096 36.8695 121.138 36.8695C123.245 36.8695 124.892 36.8132 126.08 36.7014C126.909 36.6115 127.767 36.4493 128.652 36.214L129.661 32.2633H130.753C130.473 34.3814 130.255 36.3594 130.098 38.1975C129.089 38.3657 127.711 38.4496 125.962 38.4496L117.961 38.315C116.885 38.315 115.209 38.3769 112.935 38.4999V37.609C113.831 37.2167 114.358 36.7964 114.515 36.3482C114.683 35.9 114.767 34.1237 114.767 31.0196V21.7739C114.767 18.412 114.683 16.5404 114.515 16.1592C114.358 15.7669 113.904 15.5708 113.153 15.5708H111.321V14.5121C113.988 14.5904 115.759 14.6295 116.633 14.6295C117.798 14.6295 119.379 14.5904 121.373 14.5121V15.5708H119.289C118.695 15.5708 118.319 15.7445 118.162 16.0921C118.005 16.4281 117.927 17.8459 117.927 20.3448V31.0532L117.977 35.7937L117.927 36.7853ZM143.849 16.0418C143.725 17.7225 143.664 19.4935 143.664 21.3536V30.9353C143.664 34.4993 143.753 36.466 143.932 36.836C144.112 37.1943 144.751 37.3737 145.849 37.3737H147.11V38.4328C145.126 38.3545 143.445 38.315 142.066 38.315C140.677 38.315 139.007 38.3545 137.057 38.4328V37.3737H138.469C139.209 37.3737 139.691 37.2786 139.915 37.0881C140.139 36.8863 140.279 36.4996 140.335 35.9279C140.447 34.6167 140.503 32.9244 140.503 30.8514V21.2529C140.503 19.3589 140.464 17.6218 140.386 16.0418H138.671C135.903 16.0418 134.379 16.1089 134.099 16.2435C133.818 16.3666 133.633 16.8652 133.544 17.7393L133.308 19.9921H132.249L132.283 17.9917C132.283 17.1847 132.216 16.025 132.081 14.5121C138.133 14.5904 141.691 14.6295 142.756 14.6295L152.052 14.5121C151.839 16.4057 151.716 18.2327 151.682 19.9921H150.64L150.472 17.79C150.404 17.0277 150.309 16.5795 150.186 16.4449C150.062 16.2994 149.788 16.2096 149.362 16.176C148.129 16.0865 146.729 16.0418 145.16 16.0418H143.849ZM165.113 26.5983C165.797 25.5675 166.878 23.7742 168.358 21.2193L172.207 14.5288H174.813V14.9491C173.445 16.4844 171.77 18.7984 169.786 21.8917C167.803 24.9847 166.615 27.0577 166.223 28.1112C166.088 28.4811 166.021 29.428 166.021 30.9521C166.021 32.9808 166.071 34.5888 166.172 35.7769C166.24 36.4157 166.351 36.802 166.508 36.9367C166.677 37.0601 167.254 37.1664 168.24 37.2559L169.518 37.3905V38.4328C167.568 38.3545 166.043 38.315 164.945 38.315L159.532 38.4328V37.3905H160.961C161.914 37.3905 162.485 37.1943 162.676 36.802C162.866 36.4101 162.962 34.6391 162.962 31.4902C162.962 30.5714 162.934 29.5682 162.877 28.4811C161.432 25.8252 160.098 23.5277 158.877 21.5889C157.655 19.6501 156.624 18.2326 155.784 17.3362C155.324 16.8428 154.921 16.518 154.573 16.361C154.237 16.204 153.666 16.1257 152.859 16.1257V15.0834C153.318 14.9939 154.22 14.8145 155.565 14.5456L156.893 14.2764C157.409 14.4669 157.823 14.7078 158.137 14.9995C158.697 15.526 159.555 16.7309 160.709 18.6134C161.594 20.0592 163.062 22.7207 165.113 26.5983ZM181.134 18.311V29.9269C181.134 32.5717 181.184 34.415 181.285 35.4573C181.363 36.2531 181.492 36.7405 181.671 36.9199C181.862 37.0881 182.4 37.2111 183.285 37.2898L184.361 37.3737V38.4328C183.139 38.3545 182.036 38.315 181.049 38.315C180.366 38.315 178.797 38.3545 176.342 38.4328V37.3737H177.553C178.281 37.3737 178.758 37.273 178.982 37.0713C179.206 36.8695 179.346 36.4716 179.402 35.8776C179.525 34.6447 179.587 32.9696 179.587 30.8514V22.4966C179.587 20.9277 179.57 19.3756 179.536 17.8403C179.514 17.1903 179.424 16.7477 179.267 16.5124C179.122 16.2659 178.903 16.0474 178.612 15.8568C178.321 15.6662 177.912 15.5708 177.385 15.5708H176.342V14.5121C177.766 14.5904 178.853 14.6295 179.603 14.6295C180.41 14.6295 181.296 14.5904 182.26 14.5121C183.369 15.868 184.411 17.1904 185.386 18.4792C186.373 19.7568 187.392 21.0456 188.446 22.3455L194.195 29.4056C196.268 31.9385 197.764 33.6979 198.683 34.6842V23.892C198.683 19.3756 198.599 16.9103 198.431 16.4956C198.274 16.0697 197.63 15.8008 196.498 15.6886L195.237 15.5708V14.5121C197.041 14.5904 198.442 14.6295 199.44 14.6295C200.482 14.6295 201.827 14.5904 203.474 14.5121V15.5708H202.18C201.138 15.5708 200.538 15.9183 200.381 16.6131C200.28 17.0725 200.23 19.527 200.23 23.9759V31.5573C200.23 33.5972 200.319 36.0346 200.499 38.8699C198.975 38.6346 198.089 38.4608 197.843 38.3489C197.596 38.2478 197.361 38.0741 197.137 37.8276C195.893 36.4493 194.587 34.9196 193.22 33.2384L181.134 18.311ZM220.436 27.0186V31.1371L220.452 33.5073C220.452 34.9867 220.469 36.0681 220.503 36.7517C222.139 36.8751 223.893 36.9367 225.764 36.9367C227.019 36.9367 228.073 36.8807 228.925 36.7685C229.474 36.7014 230.056 36.5555 230.673 36.3314C230.953 35.3454 231.239 34.1126 231.53 32.6332H232.656C232.354 35.0874 232.203 36.7237 232.203 37.5419L232.236 38.2982C230.947 38.4216 229.681 38.4831 228.437 38.4831L225.798 38.4328C222.884 38.3545 220.744 38.315 219.377 38.315C218.065 38.315 216.323 38.3545 214.149 38.4328V37.3737H214.67C215.645 37.3737 216.255 37.2786 216.502 37.0881C216.76 36.8975 216.928 36.4493 217.006 35.743C217.096 35.037 217.141 33.4794 217.141 31.0699V21.841C217.141 20.3281 217.101 19.09 217.023 18.126C216.956 17.1624 216.877 16.5907 216.788 16.4113C216.709 16.2208 216.592 16.0753 216.435 15.9743C216.278 15.8736 215.796 15.7837 214.989 15.7054L213.695 15.5708V14.5288H215.51L217.292 14.5792C218.289 14.6127 219.046 14.6295 219.561 14.6295L226.016 14.5456L229.076 14.5288C230.118 14.5176 231.172 14.5624 232.236 14.6631C231.81 15.9854 231.575 17.7057 231.53 19.8239H230.387C230.387 18.591 230.325 17.5659 230.202 16.7477C228.88 16.2547 227.255 16.0078 225.327 16.0078C223.792 16.0078 222.184 16.0753 220.503 16.2096C220.514 17.2631 220.503 18.3165 220.469 19.37L220.436 21.9588V25.3714C221.545 25.4385 222.525 25.4721 223.377 25.4721C226.045 25.4721 227.552 25.3826 227.899 25.2032C228.258 25.0126 228.437 24.4354 228.437 23.4718V22.3791H229.58C229.502 24.0714 229.462 25.4217 229.462 26.4305C229.462 27.4948 229.502 28.75 229.58 30.1958H228.437V29.2206C228.437 28.1448 228.224 27.4892 227.798 27.2539C227.384 27.0074 225.904 26.8843 223.36 26.8843C222.419 26.8843 221.444 26.9291 220.436 27.0186ZM259.284 18.1428L254.291 28.5315C252.42 32.4315 250.884 35.8384 249.685 38.752H249.013C248.598 37.7548 247.41 35.194 245.449 31.0699L239.431 18.6134V31.6077C239.431 34.6335 239.549 36.3538 239.784 36.7685C240.031 37.172 240.782 37.3737 242.036 37.3737H242.658V38.4328C241.101 38.3545 239.834 38.315 238.86 38.315C238.153 38.315 236.747 38.3545 234.64 38.4328V37.3737H235.733C236.473 37.3737 236.965 37.2674 237.212 37.0545C237.458 36.8416 237.61 36.4549 237.666 35.8944C237.812 34.3255 237.884 32.6332 237.884 30.8178V21.3032C237.884 19.0057 237.834 17.4872 237.733 16.7477C237.688 16.3666 237.52 16.0753 237.229 15.8736C236.949 15.6718 236.383 15.5708 235.531 15.5708H234.64V14.5121C236.59 14.5904 237.817 14.6295 238.321 14.6295C238.96 14.6295 239.868 14.5904 241.045 14.5121C242.401 17.5263 243.964 20.8494 245.735 24.4805L250.156 33.5745L254.241 25.1529C255.675 22.2053 257.311 18.6585 259.149 14.5121C260.55 14.5904 261.536 14.6295 262.108 14.6295C262.769 14.6295 263.962 14.5904 265.688 14.5121V15.5708H264.596C263.61 15.5708 263.004 15.7445 262.78 16.0921C262.567 16.4281 262.461 17.6554 262.461 19.7735V32.0619C262.461 34.7961 262.573 36.365 262.797 36.7685C263.032 37.172 263.677 37.3737 264.73 37.3737H265.688V38.4328C264.131 38.3545 262.64 38.315 261.217 38.315C259.648 38.315 258.006 38.3545 256.292 38.4328V37.3737H257.401C258.286 37.3737 258.819 37.1832 258.998 36.802C259.188 36.4101 259.284 34.7458 259.284 31.8094V18.1428ZM274.06 27.0186V31.1371L274.077 33.5073C274.077 34.9867 274.093 36.0681 274.127 36.7517C275.763 36.8751 277.517 36.9367 279.389 36.9367C280.644 36.9367 281.697 36.8807 282.549 36.7685C283.098 36.7014 283.681 36.5555 284.297 36.3314C284.578 35.3454 284.863 34.1126 285.155 32.6332H286.281C285.978 35.0874 285.827 36.7237 285.827 37.5419L285.86 38.2982C284.572 38.4216 283.306 38.4831 282.062 38.4831L279.422 38.4328C276.508 38.3545 274.368 38.315 273.001 38.315C271.69 38.315 269.947 38.3545 267.773 38.4328V37.3737H268.294C269.269 37.3737 269.88 37.2786 270.126 37.0881C270.384 36.8975 270.552 36.4493 270.631 35.743C270.72 35.037 270.765 33.4794 270.765 31.0699V21.841C270.765 20.3281 270.726 19.09 270.647 18.126C270.58 17.1624 270.502 16.5907 270.412 16.4113C270.334 16.2208 270.216 16.0753 270.059 15.9743C269.902 15.8736 269.42 15.7837 268.613 15.7054L267.319 15.5708V14.5288H269.134L270.917 14.5792C271.914 14.6127 272.67 14.6295 273.186 14.6295L279.641 14.5456L282.7 14.5288C283.743 14.5176 284.796 14.5624 285.86 14.6631C285.435 15.9854 285.199 17.7057 285.155 19.8239H284.012C284.012 18.591 283.95 17.5659 283.827 16.7477C282.504 16.2547 280.879 16.0078 278.952 16.0078C277.417 16.0078 275.808 16.0753 274.127 16.2096C274.138 17.2631 274.127 18.3165 274.093 19.37L274.06 21.9588V25.3714C275.169 25.4385 276.15 25.4721 277.002 25.4721C279.669 25.4721 281.176 25.3826 281.523 25.2032C281.882 25.0126 282.062 24.4354 282.062 23.4718V22.3791H283.205C283.126 24.0714 283.087 25.4217 283.087 26.4305C283.087 27.4948 283.126 28.75 283.205 30.1958H282.062V29.2206C282.062 28.1448 281.849 27.4892 281.423 27.2539C281.008 27.0074 279.529 26.8843 276.985 26.8843C276.043 26.8843 275.069 26.9291 274.06 27.0186ZM294.938 36.7853C296.036 36.8416 297.107 36.8695 298.149 36.8695C300.256 36.8695 301.903 36.8132 303.091 36.7014C303.92 36.6115 304.778 36.4493 305.663 36.214L306.671 32.2633H307.764C307.484 34.3814 307.266 36.3594 307.109 38.1975C306.1 38.3657 304.721 38.4496 302.973 38.4496L294.972 38.315C293.896 38.315 292.221 38.3769 289.945 38.4999V37.609C290.842 37.2167 291.369 36.7964 291.526 36.3482C291.694 35.9 291.778 34.1237 291.778 31.0196V21.7739C291.778 18.412 291.694 16.5404 291.526 16.1592C291.369 15.7669 290.915 15.5708 290.164 15.5708H288.332V14.5121C290.999 14.5904 292.77 14.6295 293.644 14.6295C294.809 14.6295 296.389 14.5904 298.384 14.5121V15.5708H296.3C295.706 15.5708 295.33 15.7445 295.173 16.0921C295.017 16.4281 294.938 17.8459 294.938 20.3448V31.0532L294.989 35.7937L294.938 36.7853Z" fill="white"/>
<path d="M89.1842 46.3077V46.7891H86.5958V53.6347H86.0718V46.7891H83.4834V46.3077H89.1842Z" fill="white"/>
<path d="M95.6992 46.3077L92.9467 50.8819H94.6722V51.2794H92.8027V53.6347H92.2788V51.2794H90.3889V50.8819H92.1352L89.3823 46.3077H89.9574L92.5562 50.6201L95.1551 46.3077H95.6992Z" fill="white"/>
<path d="M99.521 46.3077C101.329 46.3077 102.417 47.2288 102.417 48.7779C102.417 50.3166 101.329 51.2377 99.521 51.2377H97.4666V53.6347H96.9426V46.3077H99.521ZM99.521 50.7562C101.062 50.7562 101.883 50.0339 101.883 48.7779C101.883 47.5115 101.062 46.7891 99.521 46.7891H97.4666V50.7562H99.521Z" fill="white"/>
<path d="M108.869 46.7891H104.945V50.0026H108.109V50.4318H104.945V53.6347H104.421V50.4318H103.312V50.0026H104.421V46.3077H108.869V46.7891Z" fill="white"/>
<path d="M113.241 48.9871C114.935 48.9871 115.839 49.7616 115.839 51.269C115.839 52.8181 114.874 53.6347 113.107 53.6347H110.354V46.3077H110.878V48.9871H113.241ZM117.164 53.6347V46.3077H117.688V53.6347H117.164ZM113.117 53.1847C114.555 53.1847 115.305 52.5354 115.305 51.2794C115.305 50.0339 114.566 49.4372 113.117 49.4372H110.878V53.1847H113.117Z" fill="white"/>
<path d="M125.606 46.3077H126.13V53.6347H125.606V50.1491H120.799V53.6347H120.275V46.3077H120.799V49.6781H125.606V46.3077Z" fill="white"/>
<path d="M136.506 46.3077L133.609 51.112V53.6347H133.085V51.112L130.188 46.3077H130.763L133.362 50.6201L135.961 46.3077H136.506Z" fill="white"/>
<path d="M140.666 45.7528C139.721 45.7528 139.084 45.2818 139.064 44.4759H139.485C139.506 45.0622 139.978 45.4179 140.666 45.4179C141.344 45.4179 141.817 45.0622 141.837 44.4759H142.258C142.238 45.2818 141.601 45.7528 140.666 45.7528ZM137.749 53.6348V46.3077H138.273V52.7345L143.173 46.3077H143.635V53.6348H143.111V47.2184L138.211 53.6348H137.749Z" fill="white"/>
<path d="M153.856 53.6347L151.113 50.1596H149.387V53.6347H148.863V46.3077H149.387V49.6781H151.123L153.702 46.3077H154.287L151.534 49.8769L154.472 53.6347H153.856Z" fill="white"/>
<path d="M156.279 53.153H160.716V53.6347H155.755V46.3077H160.562V46.7891H156.279V49.6781H160.11V50.1491H156.279V53.153Z" fill="white"/>
<path d="M170.58 46.3077H171.104V53.6347H162.465V46.3077H162.989V53.153H166.523V46.3077H167.047V53.153H170.58V46.3077Z" fill="white"/>
<path d="M174.214 53.153H178.652V53.6347H173.69V46.3077H178.498V46.7891H174.214V49.6781H178.046V50.1491H174.214V53.153Z" fill="white"/>
<path d="M185.732 46.3077H186.255V53.6347H185.732V50.1491H180.925V53.6347H180.401V46.3077H180.925V49.6781H185.732V46.3077Z" fill="white"/>
<path d="M188.847 53.6347V46.3077H189.371V53.6347H188.847Z" fill="white"/>
<path d="M208.987 53.6347L206.615 50.1596H205.033V53.6347H204.519V50.1596H202.937L200.564 53.6347H199.938L202.506 49.8664L200.133 46.3077H200.729L202.927 49.6781H204.519V46.3077H205.033V49.6781H206.615L208.823 46.3077H209.409L207.046 49.8664L209.614 53.6347H208.987Z" fill="white"/>
<path d="M210.936 53.6347V46.3077H211.46V52.7345L216.359 46.3077H216.821V53.6347H216.298V47.2184L211.398 53.6347H210.936Z" fill="white"/>
<path d="M220 46.3077H224.715V53.6347H224.191V46.7891H220.473L220.38 49.479C220.267 52.431 219.805 53.6974 218.593 53.6974C218.428 53.6974 218.274 53.687 218.079 53.6347L218.141 53.1425C218.274 53.1742 218.367 53.1847 218.48 53.1847C219.415 53.1847 219.795 52.1274 219.897 49.4898L220 46.3077Z" fill="white"/>
<path d="M230.388 53.687C228.241 53.687 226.649 52.0957 226.649 49.9712C226.649 47.8464 228.241 46.2551 230.388 46.2551C232.524 46.2551 234.127 47.8359 234.127 49.9712C234.127 52.1066 232.524 53.687 230.388 53.687ZM230.388 53.1951C232.216 53.1951 233.593 51.8239 233.593 49.9712C233.593 48.1186 232.216 46.7474 230.388 46.7474C228.549 46.7474 227.173 48.1186 227.173 49.9712C227.173 51.8239 228.549 53.1951 230.388 53.1951Z" fill="white"/>
<path d="M238.981 45.7528C238.036 45.7528 237.399 45.2818 237.378 44.4759H237.799C237.82 45.0622 238.292 45.4179 238.981 45.4179C239.659 45.4179 240.131 45.0622 240.152 44.4759H240.573C240.552 45.2818 239.915 45.7528 238.981 45.7528ZM236.063 53.6348V46.3077H236.587V52.7345L241.487 46.3077H241.949V53.6348H241.425V47.2184L236.526 53.6348H236.063Z" fill="white"/>
<path d="M252.17 53.6347L249.427 50.1596H247.701V53.6347H247.177V46.3077H247.701V49.6781H249.437L252.016 46.3077H252.601L249.848 49.8769L252.786 53.6347H252.17Z" fill="white"/>
<path d="M257.141 53.687C254.994 53.687 253.402 52.0957 253.402 49.9712C253.402 47.8464 254.994 46.2551 257.141 46.2551C259.277 46.2551 260.879 47.8359 260.879 49.9712C260.879 52.1066 259.277 53.687 257.141 53.687ZM257.141 53.1951C258.969 53.1951 260.345 51.8239 260.345 49.9712C260.345 48.1186 258.969 46.7474 257.141 46.7474C255.302 46.7474 253.926 48.1186 253.926 49.9712C253.926 51.8239 255.302 53.1951 257.141 53.1951Z" fill="white"/>
<path d="M270.13 53.6347H269.616L269.606 47.3649L266.596 52.6611H266.339L263.33 47.3858V53.6347H262.816V46.3077H263.258L266.473 51.9704L269.688 46.3077H270.119L270.13 53.6347Z" fill="white"/>
<path d="M272.716 46.3077H278.633V53.6347H278.109V46.7891H273.24V53.6347H272.716V46.3077Z" fill="white"/>
<path d="M281.811 46.3077H286.526V53.6347H286.002V46.7891H282.284L282.191 49.479C282.078 52.431 281.616 53.6974 280.404 53.6974C280.24 53.6974 280.086 53.687 279.89 53.6347L279.952 53.1425C280.086 53.1742 280.178 53.1847 280.291 53.1847C281.226 53.1847 281.606 52.1274 281.709 49.4898L281.811 46.3077Z" fill="white"/>
<path d="M289.641 53.153H294.078V53.6347H289.117V46.3077H293.924V46.7891H289.641V49.6781H293.472V50.1491H289.641V53.153Z" fill="white"/>
<path d="M300.82 53.6347L298.077 50.1596H296.352V53.6347H295.828V46.3077H296.352V49.6781H298.088L300.666 46.3077H301.252L298.499 49.8769L301.436 53.6347H300.82Z" fill="white"/>
<path d="M305.791 53.687C303.654 53.687 302.062 52.1066 302.062 49.9712C302.062 47.8359 303.654 46.2551 305.791 46.2551C306.808 46.2551 307.722 46.5904 308.348 47.2706L308.02 47.6159C307.403 46.9984 306.654 46.7474 305.811 46.7474C303.973 46.7474 302.586 48.129 302.586 49.9712C302.586 51.8134 303.973 53.1951 305.811 53.1951C306.654 53.1951 307.403 52.9333 308.02 52.3158L308.348 52.6611C307.722 53.3417 306.808 53.687 305.791 53.687Z" fill="white"/>
<path d="M194.613 55.5609V44.5584H195.137V55.5609H194.613Z" fill="white"/>
<path d="M34.7983 7.3237C37.0384 7.3237 39.2162 7.59075 41.3018 8.09462C40.8703 8.92075 40.5868 9.8171 40.4649 10.7431C40.3283 11.7805 40.3973 12.8349 40.6682 13.8457C40.9391 14.8565 41.4065 15.8039 42.0435 16.6341C42.6805 17.4645 43.4747 18.161 44.381 18.6843C45.2873 19.2075 46.2878 19.5472 47.3253 19.6838C48.3629 19.8203 49.4172 19.7511 50.4279 19.4804C51.4387 19.2095 52.3864 18.7422 53.2166 18.1052C53.9271 17.5599 54.5399 16.8994 55.0298 16.1522C58.7181 20.126 61.2498 25.188 62.0885 30.8027C61.0613 31.2214 59.9947 31.3218 58.8767 31.2039C56.8675 30.9919 54.671 30.0669 52.3004 28.7947C51.1277 28.1654 49.9537 27.4747 48.7641 26.7746L48.7574 26.7705C47.581 26.0783 46.3858 25.375 45.2155 24.7511C42.924 23.5299 40.461 22.4603 38.1018 22.4603C36.2117 22.4603 34.8563 23.5106 33.8439 24.3688C33.6499 24.5332 33.4644 24.6939 33.2842 24.8502C32.4368 25.5842 31.7042 26.2187 30.7334 26.6808C28.6623 27.6668 24.9397 28.0376 16.4767 22.7099C14.8608 21.6926 13.1691 21.7415 11.6794 22.2859C11.0134 22.5295 10.375 22.8744 9.7729 23.2734C14.2532 13.6622 24.1933 7.3237 34.7983 7.3237Z" fill="url(#paint0_linear_28_314)"/>
<path d="M34.7983 7.3237C37.0384 7.3237 39.2162 7.59075 41.3018 8.09462C40.8703 8.92075 40.5868 9.8171 40.4649 10.7431C40.3283 11.7805 40.3973 12.8349 40.6682 13.8457C40.9391 14.8565 41.4065 15.8039 42.0435 16.6341C42.6805 17.4645 43.4747 18.161 44.381 18.6843C45.2873 19.2075 46.2878 19.5472 47.3253 19.6838C48.3629 19.8203 49.4172 19.7511 50.4279 19.4804C51.4387 19.2095 52.3864 18.7422 53.2166 18.1052C53.9271 17.5599 54.5399 16.8994 55.0298 16.1522C58.7181 20.126 61.2498 25.188 62.0885 30.8027C61.0613 31.2214 59.9947 31.3218 58.8767 31.2039C56.8675 30.9919 54.671 30.0669 52.3004 28.7947C51.1277 28.1654 49.9537 27.4747 48.7641 26.7746L48.7574 26.7705C47.581 26.0783 46.3858 25.375 45.2155 24.7511C42.924 23.5299 40.461 22.4603 38.1018 22.4603C36.2117 22.4603 34.8563 23.5106 33.8439 24.3688C33.6499 24.5332 33.4644 24.6939 33.2842 24.8502C32.4368 25.5842 31.7042 26.2187 30.7334 26.6808C28.6623 27.6668 24.9397 28.0376 16.4767 22.7099C14.8608 21.6926 13.1691 21.7415 11.6794 22.2859C11.0134 22.5295 10.375 22.8744 9.7729 23.2734C14.2532 13.6622 24.1933 7.3237 34.7983 7.3237Z" fill="#F9EFE3"/>
<path d="M34.7983 7.3237C37.0384 7.3237 39.2162 7.59075 41.3018 8.09462C40.8703 8.92075 40.5868 9.8171 40.4649 10.7431C40.3283 11.7805 40.3973 12.8349 40.6682 13.8457C40.9391 14.8565 41.4065 15.8039 42.0435 16.6341C42.6805 17.4645 43.4747 18.161 44.381 18.6843C45.2873 19.2075 46.2878 19.5472 47.3253 19.6838C48.3629 19.8203 49.4172 19.7511 50.4279 19.4804C51.4387 19.2095 52.3864 18.7422 53.2166 18.1052C53.9271 17.5599 54.5399 16.8994 55.0298 16.1522C58.7181 20.126 61.2498 25.188 62.0885 30.8027C61.0613 31.2214 59.9947 31.3218 58.8767 31.2039C56.8675 30.9919 54.671 30.0669 52.3004 28.7947C51.1277 28.1654 49.9537 27.4747 48.7641 26.7746L48.7574 26.7705C47.581 26.0783 46.3858 25.375 45.2155 24.7511C42.924 23.5299 40.461 22.4603 38.1018 22.4603C36.2117 22.4603 34.8563 23.5106 33.8439 24.3688C33.6499 24.5332 33.4644 24.6939 33.2842 24.8502C32.4368 25.5842 31.7042 26.2187 30.7334 26.6808C28.6623 27.6668 24.9397 28.0376 16.4767 22.7099C14.8608 21.6926 13.1691 21.7415 11.6794 22.2859C11.0134 22.5295 10.375 22.8744 9.7729 23.2734C14.2532 13.6622 24.1933 7.3237 34.7983 7.3237Z" fill="url(#paint1_linear_28_314)"/>
<path d="M34.7983 7.3237C37.0384 7.3237 39.2162 7.59075 41.3018 8.09462C40.8703 8.92075 40.5868 9.8171 40.4649 10.7431C40.3283 11.7805 40.3973 12.8349 40.6682 13.8457C40.9391 14.8565 41.4065 15.8039 42.0435 16.6341C42.6805 17.4645 43.4747 18.161 44.381 18.6843C45.2873 19.2075 46.2878 19.5472 47.3253 19.6838C48.3629 19.8203 49.4172 19.7511 50.4279 19.4804C51.4387 19.2095 52.3864 18.7422 53.2166 18.1052C53.9271 17.5599 54.5399 16.8994 55.0298 16.1522C58.7181 20.126 61.2498 25.188 62.0885 30.8027C61.0613 31.2214 59.9947 31.3218 58.8767 31.2039C56.8675 30.9919 54.671 30.0669 52.3004 28.7947C51.1277 28.1654 49.9537 27.4747 48.7641 26.7746L48.7574 26.7705C47.581 26.0783 46.3858 25.375 45.2155 24.7511C42.924 23.5299 40.461 22.4603 38.1018 22.4603C36.2117 22.4603 34.8563 23.5106 33.8439 24.3688C33.6499 24.5332 33.4644 24.6939 33.2842 24.8502C32.4368 25.5842 31.7042 26.2187 30.7334 26.6808C28.6623 27.6668 24.9397 28.0376 16.4767 22.7099C14.8608 21.6926 13.1691 21.7415 11.6794 22.2859C11.0134 22.5295 10.375 22.8744 9.7729 23.2734C14.2532 13.6622 24.1933 7.3237 34.7983 7.3237Z" fill="#F9EFE3"/>
<path d="M7.31651 37.3945C7.31063 37.3294 7.30515 37.2645 7.29967 37.1993C9.15323 35.9071 10.6431 35.3681 11.841 35.2254C13.4276 35.0363 14.7403 35.5136 16.0153 36.3074C16.6657 36.7123 17.2832 37.1853 17.9251 37.6904C18.0032 37.7519 18.0822 37.8144 18.1621 37.8775C18.7125 38.3122 19.3024 38.7781 19.8854 39.1669C19.9365 39.201 19.9885 39.2351 20.041 39.2688C19.4138 39.6976 18.8188 40.1221 18.251 40.5347C17.8421 40.8318 17.4523 41.1187 17.0768 41.3949L17.0758 41.3957C15.9979 42.1888 15.0382 42.895 14.0838 43.5064C12.4131 44.5762 10.9191 45.25 9.23887 45.3409C8.20636 42.8114 7.56124 40.1239 7.31651 37.3945Z" fill="url(#paint2_linear_28_314)"/>
<path d="M7.31651 37.3945C7.31063 37.3294 7.30515 37.2645 7.29967 37.1993C9.15323 35.9071 10.6431 35.3681 11.841 35.2254C13.4276 35.0363 14.7403 35.5136 16.0153 36.3074C16.6657 36.7123 17.2832 37.1853 17.9251 37.6904C18.0032 37.7519 18.0822 37.8144 18.1621 37.8775C18.7125 38.3122 19.3024 38.7781 19.8854 39.1669C19.9365 39.201 19.9885 39.2351 20.041 39.2688C19.4138 39.6976 18.8188 40.1221 18.251 40.5347C17.8421 40.8318 17.4523 41.1187 17.0768 41.3949L17.0758 41.3957C15.9979 42.1888 15.0382 42.895 14.0838 43.5064C12.4131 44.5762 10.9191 45.25 9.23887 45.3409C8.20636 42.8114 7.56124 40.1239 7.31651 37.3945Z" fill="#F9EFE3"/>
<path d="M7.31651 37.3945C7.31063 37.3294 7.30515 37.2645 7.29967 37.1993C9.15323 35.9071 10.6431 35.3681 11.841 35.2254C13.4276 35.0363 14.7403 35.5136 16.0153 36.3074C16.6657 36.7123 17.2832 37.1853 17.9251 37.6904C18.0032 37.7519 18.0822 37.8144 18.1621 37.8775C18.7125 38.3122 19.3024 38.7781 19.8854 39.1669C19.9365 39.201 19.9885 39.2351 20.041 39.2688C19.4138 39.6976 18.8188 40.1221 18.251 40.5347C17.8421 40.8318 17.4523 41.1187 17.0768 41.3949L17.0758 41.3957C15.9979 42.1888 15.0382 42.895 14.0838 43.5064C12.4131 44.5762 10.9191 45.25 9.23887 45.3409C8.20636 42.8114 7.56124 40.1239 7.31651 37.3945Z" fill="url(#paint3_linear_28_314)"/>
<path d="M7.31651 37.3945C7.31063 37.3294 7.30515 37.2645 7.29967 37.1993C9.15323 35.9071 10.6431 35.3681 11.841 35.2254C13.4276 35.0363 14.7403 35.5136 16.0153 36.3074C16.6657 36.7123 17.2832 37.1853 17.9251 37.6904C18.0032 37.7519 18.0822 37.8144 18.1621 37.8775C18.7125 38.3122 19.3024 38.7781 19.8854 39.1669C19.9365 39.201 19.9885 39.2351 20.041 39.2688C19.4138 39.6976 18.8188 40.1221 18.251 40.5347C17.8421 40.8318 17.4523 41.1187 17.0768 41.3949L17.0758 41.3957C15.9979 42.1888 15.0382 42.895 14.0838 43.5064C12.4131 44.5762 10.9191 45.25 9.23887 45.3409C8.20636 42.8114 7.56124 40.1239 7.31651 37.3945Z" fill="#F9EFE3"/>
<path d="M21.6865 36.4655C22.7083 37.1468 23.2173 37.2034 23.6943 37.0029C26.5839 35.4064 30.0601 33.9618 34.4667 33.0427C43.4746 31.1642 50.3301 36.0436 55.1398 39.4671L55.2622 39.5543L55.2626 39.5545C56.4452 40.3965 57.481 41.1337 58.4333 41.7143C59.4283 42.3209 60.2027 42.6732 60.8186 42.8026C60.9712 42.8347 61.1088 42.8524 61.2348 42.8568C61.4568 42.1167 61.6484 41.3634 61.8083 40.5986C62.2519 38.4774 62.4435 36.3011 62.3824 34.1318C61.126 34.4914 59.8346 34.57 58.536 34.4328C55.8734 34.1519 53.2166 32.9715 50.7648 31.6557C49.5345 30.9953 48.3132 30.2766 47.1407 29.5866L47.1173 29.573C45.927 28.8723 44.7897 28.2036 43.6884 27.6166C41.4321 26.4142 39.5907 25.7072 38.1018 25.7072C37.4857 25.7072 36.928 26.0112 35.943 26.8458C35.8044 26.9635 35.6569 27.0922 35.5002 27.2287C34.6511 27.9698 33.5369 28.9423 32.1291 29.6126C28.5109 31.3352 23.4944 30.9645 14.7469 25.4576C14.1635 25.0905 13.5626 25.0548 12.7939 25.3356C11.9581 25.641 11.0311 26.2945 10.053 27.1782C9.22602 27.9252 8.45224 28.7519 7.72859 29.5306C7.63078 30.0249 7.54616 30.5241 7.47534 31.0276C7.36353 31.8207 7.28641 32.6188 7.244 33.4187C8.73127 32.6139 10.1274 32.1597 11.4566 32.0013C14.0192 31.6959 16.0749 32.5197 17.7312 33.551C18.5464 34.0584 19.2853 34.629 19.9332 35.139C20.015 35.2033 20.0948 35.2662 20.1729 35.3279L20.1745 35.3293L20.18 35.3336L20.1802 35.3338C20.7437 35.7784 21.2206 36.1548 21.6865 36.4655Z" fill="url(#paint4_linear_28_314)"/>
<path d="M21.6865 36.4655C22.7083 37.1468 23.2173 37.2034 23.6943 37.0029C26.5839 35.4064 30.0601 33.9618 34.4667 33.0427C43.4746 31.1642 50.3301 36.0436 55.1398 39.4671L55.2622 39.5543L55.2626 39.5545C56.4452 40.3965 57.481 41.1337 58.4333 41.7143C59.4283 42.3209 60.2027 42.6732 60.8186 42.8026C60.9712 42.8347 61.1088 42.8524 61.2348 42.8568C61.4568 42.1167 61.6484 41.3634 61.8083 40.5986C62.2519 38.4774 62.4435 36.3011 62.3824 34.1318C61.126 34.4914 59.8346 34.57 58.536 34.4328C55.8734 34.1519 53.2166 32.9715 50.7648 31.6557C49.5345 30.9953 48.3132 30.2766 47.1407 29.5866L47.1173 29.573C45.927 28.8723 44.7897 28.2036 43.6884 27.6166C41.4321 26.4142 39.5907 25.7072 38.1018 25.7072C37.4857 25.7072 36.928 26.0112 35.943 26.8458C35.8044 26.9635 35.6569 27.0922 35.5002 27.2287C34.6511 27.9698 33.5369 28.9423 32.1291 29.6126C28.5109 31.3352 23.4944 30.9645 14.7469 25.4576C14.1635 25.0905 13.5626 25.0548 12.7939 25.3356C11.9581 25.641 11.0311 26.2945 10.053 27.1782C9.22602 27.9252 8.45224 28.7519 7.72859 29.5306C7.63078 30.0249 7.54616 30.5241 7.47534 31.0276C7.36353 31.8207 7.28641 32.6188 7.244 33.4187C8.73127 32.6139 10.1274 32.1597 11.4566 32.0013C14.0192 31.6959 16.0749 32.5197 17.7312 33.551C18.5464 34.0584 19.2853 34.629 19.9332 35.139C20.015 35.2033 20.0948 35.2662 20.1729 35.3279L20.1745 35.3293L20.18 35.3336L20.1802 35.3338C20.7437 35.7784 21.2206 36.1548 21.6865 36.4655Z" fill="#F9EFE3"/>
<path d="M21.6865 36.4655C22.7083 37.1468 23.2173 37.2034 23.6943 37.0029C26.5839 35.4064 30.0601 33.9618 34.4667 33.0427C43.4746 31.1642 50.3301 36.0436 55.1398 39.4671L55.2622 39.5543L55.2626 39.5545C56.4452 40.3965 57.481 41.1337 58.4333 41.7143C59.4283 42.3209 60.2027 42.6732 60.8186 42.8026C60.9712 42.8347 61.1088 42.8524 61.2348 42.8568C61.4568 42.1167 61.6484 41.3634 61.8083 40.5986C62.2519 38.4774 62.4435 36.3011 62.3824 34.1318C61.126 34.4914 59.8346 34.57 58.536 34.4328C55.8734 34.1519 53.2166 32.9715 50.7648 31.6557C49.5345 30.9953 48.3132 30.2766 47.1407 29.5866L47.1173 29.573C45.927 28.8723 44.7897 28.2036 43.6884 27.6166C41.4321 26.4142 39.5907 25.7072 38.1018 25.7072C37.4857 25.7072 36.928 26.0112 35.943 26.8458C35.8044 26.9635 35.6569 27.0922 35.5002 27.2287C34.6511 27.9698 33.5369 28.9423 32.1291 29.6126C28.5109 31.3352 23.4944 30.9645 14.7469 25.4576C14.1635 25.0905 13.5626 25.0548 12.7939 25.3356C11.9581 25.641 11.0311 26.2945 10.053 27.1782C9.22602 27.9252 8.45224 28.7519 7.72859 29.5306C7.63078 30.0249 7.54616 30.5241 7.47534 31.0276C7.36353 31.8207 7.28641 32.6188 7.244 33.4187C8.73127 32.6139 10.1274 32.1597 11.4566 32.0013C14.0192 31.6959 16.0749 32.5197 17.7312 33.551C18.5464 34.0584 19.2853 34.629 19.9332 35.139C20.015 35.2033 20.0948 35.2662 20.1729 35.3279L20.1745 35.3293L20.18 35.3336L20.1802 35.3338C20.7437 35.7784 21.2206 36.1548 21.6865 36.4655Z" fill="url(#paint5_linear_28_314)"/>
<path d="M21.6865 36.4655C22.7083 37.1468 23.2173 37.2034 23.6943 37.0029C26.5839 35.4064 30.0601 33.9618 34.4667 33.0427C43.4746 31.1642 50.3301 36.0436 55.1398 39.4671L55.2622 39.5543L55.2626 39.5545C56.4452 40.3965 57.481 41.1337 58.4333 41.7143C59.4283 42.3209 60.2027 42.6732 60.8186 42.8026C60.9712 42.8347 61.1088 42.8524 61.2348 42.8568C61.4568 42.1167 61.6484 41.3634 61.8083 40.5986C62.2519 38.4774 62.4435 36.3011 62.3824 34.1318C61.126 34.4914 59.8346 34.57 58.536 34.4328C55.8734 34.1519 53.2166 32.9715 50.7648 31.6557C49.5345 30.9953 48.3132 30.2766 47.1407 29.5866L47.1173 29.573C45.927 28.8723 44.7897 28.2036 43.6884 27.6166C41.4321 26.4142 39.5907 25.7072 38.1018 25.7072C37.4857 25.7072 36.928 26.0112 35.943 26.8458C35.8044 26.9635 35.6569 27.0922 35.5002 27.2287C34.6511 27.9698 33.5369 28.9423 32.1291 29.6126C28.5109 31.3352 23.4944 30.9645 14.7469 25.4576C14.1635 25.0905 13.5626 25.0548 12.7939 25.3356C11.9581 25.641 11.0311 26.2945 10.053 27.1782C9.22602 27.9252 8.45224 28.7519 7.72859 29.5306C7.63078 30.0249 7.54616 30.5241 7.47534 31.0276C7.36353 31.8207 7.28641 32.6188 7.244 33.4187C8.73127 32.6139 10.1274 32.1597 11.4566 32.0013C14.0192 31.6959 16.0749 32.5197 17.7312 33.551C18.5464 34.0584 19.2853 34.629 19.9332 35.139C20.015 35.2033 20.0948 35.2662 20.1729 35.3279L20.1745 35.3293L20.18 35.3336L20.1802 35.3338C20.7437 35.7784 21.2206 36.1548 21.6865 36.4655Z" fill="#F9EFE3"/>
<path d="M56.7435 44.4865C57.82 45.1428 58.9514 45.7165 60.0929 45.9675L60.0569 46.0491C59.8014 46.6281 59.5265 47.1967 59.233 47.7541C58.5697 47.9433 57.8884 48.011 57.1798 47.9909C55.3867 47.9398 53.402 47.3264 51.0574 46.4698C50.5939 46.3005 50.1178 46.1218 49.6298 45.9385C45.3697 44.3384 40.2016 42.3974 34.5101 43.424C29.2635 44.3705 25.3881 45.9645 22.009 47.3543L22.0043 47.3562L22.0023 47.357C21.5118 47.5587 21.0314 47.7564 20.559 47.9469C17.6427 49.1233 15.0066 50.0464 11.8635 50.2686C11.829 50.2173 11.7947 50.1658 11.7606 50.1142C11.3977 49.5653 11.054 49.0028 10.7303 48.4276C12.5766 48.0875 14.2264 47.2707 15.8348 46.2407C16.886 45.5674 17.9672 44.7715 19.0713 43.9589L19.0719 43.9585L19.0734 43.9575C19.433 43.6927 19.7952 43.4262 20.1594 43.1616C21.6723 42.0625 23.3049 40.9324 25.2049 39.878C27.8515 38.4092 31.0412 37.0739 35.1298 36.2212C42.5861 34.6663 48.3349 38.6089 53.2586 42.1133L53.4252 42.232C54.5675 43.0453 55.6895 43.8441 56.7435 44.4865Z" fill="url(#paint6_linear_28_314)"/>
<path d="M56.7435 44.4865C57.82 45.1428 58.9514 45.7165 60.0929 45.9675L60.0569 46.0491C59.8014 46.6281 59.5265 47.1967 59.233 47.7541C58.5697 47.9433 57.8884 48.011 57.1798 47.9909C55.3867 47.9398 53.402 47.3264 51.0574 46.4698C50.5939 46.3005 50.1178 46.1218 49.6298 45.9385C45.3697 44.3384 40.2016 42.3974 34.5101 43.424C29.2635 44.3705 25.3881 45.9645 22.009 47.3543L22.0043 47.3562L22.0023 47.357C21.5118 47.5587 21.0314 47.7564 20.559 47.9469C17.6427 49.1233 15.0066 50.0464 11.8635 50.2686C11.829 50.2173 11.7947 50.1658 11.7606 50.1142C11.3977 49.5653 11.054 49.0028 10.7303 48.4276C12.5766 48.0875 14.2264 47.2707 15.8348 46.2407C16.886 45.5674 17.9672 44.7715 19.0713 43.9589L19.0719 43.9585L19.0734 43.9575C19.433 43.6927 19.7952 43.4262 20.1594 43.1616C21.6723 42.0625 23.3049 40.9324 25.2049 39.878C27.8515 38.4092 31.0412 37.0739 35.1298 36.2212C42.5861 34.6663 48.3349 38.6089 53.2586 42.1133L53.4252 42.232C54.5675 43.0453 55.6895 43.8441 56.7435 44.4865Z" fill="#F9EFE3"/>
<path d="M56.7435 44.4865C57.82 45.1428 58.9514 45.7165 60.0929 45.9675L60.0569 46.0491C59.8014 46.6281 59.5265 47.1967 59.233 47.7541C58.5697 47.9433 57.8884 48.011 57.1798 47.9909C55.3867 47.9398 53.402 47.3264 51.0574 46.4698C50.5939 46.3005 50.1178 46.1218 49.6298 45.9385C45.3697 44.3384 40.2016 42.3974 34.5101 43.424C29.2635 44.3705 25.3881 45.9645 22.009 47.3543L22.0043 47.3562L22.0023 47.357C21.5118 47.5587 21.0314 47.7564 20.559 47.9469C17.6427 49.1233 15.0066 50.0464 11.8635 50.2686C11.829 50.2173 11.7947 50.1658 11.7606 50.1142C11.3977 49.5653 11.054 49.0028 10.7303 48.4276C12.5766 48.0875 14.2264 47.2707 15.8348 46.2407C16.886 45.5674 17.9672 44.7715 19.0713 43.9589L19.0719 43.9585L19.0734 43.9575C19.433 43.6927 19.7952 43.4262 20.1594 43.1616C21.6723 42.0625 23.3049 40.9324 25.2049 39.878C27.8515 38.4092 31.0412 37.0739 35.1298 36.2212C42.5861 34.6663 48.3349 38.6089 53.2586 42.1133L53.4252 42.232C54.5675 43.0453 55.6895 43.8441 56.7435 44.4865Z" fill="url(#paint7_linear_28_314)"/>
<path d="M56.7435 44.4865C57.82 45.1428 58.9514 45.7165 60.0929 45.9675L60.0569 46.0491C59.8014 46.6281 59.5265 47.1967 59.233 47.7541C58.5697 47.9433 57.8884 48.011 57.1798 47.9909C55.3867 47.9398 53.402 47.3264 51.0574 46.4698C50.5939 46.3005 50.1178 46.1218 49.6298 45.9385C45.3697 44.3384 40.2016 42.3974 34.5101 43.424C29.2635 44.3705 25.3881 45.9645 22.009 47.3543L22.0043 47.3562L22.0023 47.357C21.5118 47.5587 21.0314 47.7564 20.559 47.9469C17.6427 49.1233 15.0066 50.0464 11.8635 50.2686C11.829 50.2173 11.7947 50.1658 11.7606 50.1142C11.3977 49.5653 11.054 49.0028 10.7303 48.4276C12.5766 48.0875 14.2264 47.2707 15.8348 46.2407C16.886 45.5674 17.9672 44.7715 19.0713 43.9589L19.0719 43.9585L19.0734 43.9575C19.433 43.6927 19.7952 43.4262 20.1594 43.1616C21.6723 42.0625 23.3049 40.9324 25.2049 39.878C27.8515 38.4092 31.0412 37.0739 35.1298 36.2212C42.5861 34.6663 48.3349 38.6089 53.2586 42.1133L53.4252 42.232C54.5675 43.0453 55.6895 43.8441 56.7435 44.4865Z" fill="#F9EFE3"/>
<path d="M49.943 49.5196C52.2684 50.3691 54.6883 51.1615 57.0543 51.2354C56.5484 51.9244 56.011 52.5892 55.4444 53.2276C55.1895 53.5145 54.929 53.7962 54.6625 54.0724C54.3862 54.0574 54.0956 54.0342 53.7901 54.0034C52.4977 53.8723 51.0814 53.6196 49.4929 53.3363L49.4923 53.3362C49.1907 53.2824 48.8833 53.2276 48.5691 53.1722C44.7118 52.4926 40.0735 51.7752 35.2659 52.6707C31.4447 53.3824 28.8464 54.4478 26.6091 55.365C26.1042 55.572 25.6173 55.7715 25.1392 55.9578C23.2818 56.681 21.4339 57.2635 18.8411 57.4345C18.4302 57.1425 18.0273 56.8397 17.6332 56.5262C16.3923 55.539 15.2385 54.4472 14.1849 53.2643C16.9311 52.8207 19.3423 51.9388 21.7734 50.958C22.2682 50.7585 22.7633 50.5552 23.2625 50.35C26.6379 48.9636 30.1991 47.5009 35.0865 46.6194C39.8446 45.761 44.1542 47.3665 48.5103 48.9892L48.5135 48.9904C48.9892 49.1678 49.4655 49.3451 49.943 49.5196Z" fill="url(#paint8_linear_28_314)"/>
<path d="M49.943 49.5196C52.2684 50.3691 54.6883 51.1615 57.0543 51.2354C56.5484 51.9244 56.011 52.5892 55.4444 53.2276C55.1895 53.5145 54.929 53.7962 54.6625 54.0724C54.3862 54.0574 54.0956 54.0342 53.7901 54.0034C52.4977 53.8723 51.0814 53.6196 49.4929 53.3363L49.4923 53.3362C49.1907 53.2824 48.8833 53.2276 48.5691 53.1722C44.7118 52.4926 40.0735 51.7752 35.2659 52.6707C31.4447 53.3824 28.8464 54.4478 26.6091 55.365C26.1042 55.572 25.6173 55.7715 25.1392 55.9578C23.2818 56.681 21.4339 57.2635 18.8411 57.4345C18.4302 57.1425 18.0273 56.8397 17.6332 56.5262C16.3923 55.539 15.2385 54.4472 14.1849 53.2643C16.9311 52.8207 19.3423 51.9388 21.7734 50.958C22.2682 50.7585 22.7633 50.5552 23.2625 50.35C26.6379 48.9636 30.1991 47.5009 35.0865 46.6194C39.8446 45.761 44.1542 47.3665 48.5103 48.9892L48.5135 48.9904C48.9892 49.1678 49.4655 49.3451 49.943 49.5196Z" fill="#F9EFE3"/>
<path d="M49.943 49.5196C52.2684 50.3691 54.6883 51.1615 57.0543 51.2354C56.5484 51.9244 56.011 52.5892 55.4444 53.2276C55.1895 53.5145 54.929 53.7962 54.6625 54.0724C54.3862 54.0574 54.0956 54.0342 53.7901 54.0034C52.4977 53.8723 51.0814 53.6196 49.4929 53.3363L49.4923 53.3362C49.1907 53.2824 48.8833 53.2276 48.5691 53.1722C44.7118 52.4926 40.0735 51.7752 35.2659 52.6707C31.4447 53.3824 28.8464 54.4478 26.6091 55.365C26.1042 55.572 25.6173 55.7715 25.1392 55.9578C23.2818 56.681 21.4339 57.2635 18.8411 57.4345C18.4302 57.1425 18.0273 56.8397 17.6332 56.5262C16.3923 55.539 15.2385 54.4472 14.1849 53.2643C16.9311 52.8207 19.3423 51.9388 21.7734 50.958C22.2682 50.7585 22.7633 50.5552 23.2625 50.35C26.6379 48.9636 30.1991 47.5009 35.0865 46.6194C39.8446 45.761 44.1542 47.3665 48.5103 48.9892L48.5135 48.9904C48.9892 49.1678 49.4655 49.3451 49.943 49.5196Z" fill="url(#paint9_linear_28_314)"/>
<path d="M49.943 49.5196C52.2684 50.3691 54.6883 51.1615 57.0543 51.2354C56.5484 51.9244 56.011 52.5892 55.4444 53.2276C55.1895 53.5145 54.929 53.7962 54.6625 54.0724C54.3862 54.0574 54.0956 54.0342 53.7901 54.0034C52.4977 53.8723 51.0814 53.6196 49.4929 53.3363L49.4923 53.3362C49.1907 53.2824 48.8833 53.2276 48.5691 53.1722C44.7118 52.4926 40.0735 51.7752 35.2659 52.6707C31.4447 53.3824 28.8464 54.4478 26.6091 55.365C26.1042 55.572 25.6173 55.7715 25.1392 55.9578C23.2818 56.681 21.4339 57.2635 18.8411 57.4345C18.4302 57.1425 18.0273 56.8397 17.6332 56.5262C16.3923 55.539 15.2385 54.4472 14.1849 53.2643C16.9311 52.8207 19.3423 51.9388 21.7734 50.958C22.2682 50.7585 22.7633 50.5552 23.2625 50.35C26.6379 48.9636 30.1991 47.5009 35.0865 46.6194C39.8446 45.761 44.1542 47.3665 48.5103 48.9892L48.5135 48.9904C48.9892 49.1678 49.4655 49.3451 49.943 49.5196Z" fill="#F9EFE3"/>
<path d="M48.8913 56.5274C49.7416 56.6792 50.5852 56.83 51.4046 56.9593C46.7829 60.4476 41.0329 62.513 34.7982 62.513C30.6802 62.513 26.7762 61.6126 23.269 59.9973C24.3479 59.713 25.3392 59.3642 26.3174 58.9833C26.8574 58.773 27.3844 58.5575 27.9142 58.3408L27.9144 58.3406C30.128 57.4351 32.3935 56.5085 35.8604 55.8626C40.0336 55.0854 44.1523 55.6909 48.0055 56.3699C48.3 56.4217 48.5944 56.4742 48.8881 56.5268L48.8913 56.5274Z" fill="url(#paint10_linear_28_314)"/>
<path d="M48.8913 56.5274C49.7416 56.6792 50.5852 56.83 51.4046 56.9593C46.7829 60.4476 41.0329 62.513 34.7982 62.513C30.6802 62.513 26.7762 61.6126 23.269 59.9973C24.3479 59.713 25.3392 59.3642 26.3174 58.9833C26.8574 58.773 27.3844 58.5575 27.9142 58.3408L27.9144 58.3406C30.128 57.4351 32.3935 56.5085 35.8604 55.8626C40.0336 55.0854 44.1523 55.6909 48.0055 56.3699C48.3 56.4217 48.5944 56.4742 48.8881 56.5268L48.8913 56.5274Z" fill="#F9EFE3"/>
<path d="M48.8913 56.5274C49.7416 56.6792 50.5852 56.83 51.4046 56.9593C46.7829 60.4476 41.0329 62.513 34.7982 62.513C30.6802 62.513 26.7762 61.6126 23.269 59.9973C24.3479 59.713 25.3392 59.3642 26.3174 58.9833C26.8574 58.773 27.3844 58.5575 27.9142 58.3408L27.9144 58.3406C30.128 57.4351 32.3935 56.5085 35.8604 55.8626C40.0336 55.0854 44.1523 55.6909 48.0055 56.3699C48.3 56.4217 48.5944 56.4742 48.8881 56.5268L48.8913 56.5274Z" fill="url(#paint11_linear_28_314)"/>
<path d="M48.8913 56.5274C49.7416 56.6792 50.5852 56.83 51.4046 56.9593C46.7829 60.4476 41.0329 62.513 34.7982 62.513C30.6802 62.513 26.7762 61.6126 23.269 59.9973C24.3479 59.713 25.3392 59.3642 26.3174 58.9833C26.8574 58.773 27.3844 58.5575 27.9142 58.3408L27.9144 58.3406C30.128 57.4351 32.3935 56.5085 35.8604 55.8626C40.0336 55.0854 44.1523 55.6909 48.0055 56.3699C48.3 56.4217 48.5944 56.4742 48.8881 56.5268L48.8913 56.5274Z" fill="#F9EFE3"/>
<path fill-rule="evenodd" clip-rule="evenodd" d="M34.7983 69.659C53.9849 69.659 69.5387 54.105 69.5387 34.9184C69.5387 15.7317 53.9849 0.177734 34.7983 0.177734C15.6116 0.177734 0.0576172 15.7317 0.0576172 34.9184C0.0576172 54.105 15.6116 69.659 34.7983 69.659ZM4.2601 30.5745C4.38409 29.6948 4.54522 28.827 4.74186 27.9729C7.91832 14.1706 20.6437 4.07684 34.7983 4.07684C50.3571 4.07684 63.2251 15.598 65.3362 30.5745C65.4273 31.2214 65.4981 31.8712 65.5483 32.5226C65.7731 35.4432 65.586 38.3962 64.9864 41.2632C64.6933 42.6644 64.3053 44.031 63.829 45.3553C63.5847 46.0351 63.3171 46.7038 63.0273 47.3602C62.5723 48.3909 62.0627 49.392 61.5018 50.3595C60.4604 52.1567 59.2428 53.839 57.8726 55.3827C57.2734 56.0578 56.6451 56.7066 55.9897 57.3268C50.4637 62.5542 43.0054 65.7599 34.7983 65.7599C28.5608 65.7599 22.7558 63.9084 17.9031 60.7248C17.1133 60.2067 16.3489 59.6534 15.6118 59.0671C13.5977 57.4647 11.7888 55.6159 10.2305 53.5661C9.81998 53.0259 9.42671 52.4719 9.05189 51.9047C8.32297 50.8023 7.66304 49.6503 7.07819 48.4548C6.78476 47.855 6.51019 47.2442 6.25531 46.6232C5.08461 43.7716 4.35731 40.7486 4.08254 37.6843C4.02206 37.0086 3.98351 36.3308 3.96707 35.6524C3.92588 33.9563 4.02308 32.2563 4.2601 30.5745Z" fill="url(#paint12_linear_28_314)"/>
<path fill-rule="evenodd" clip-rule="evenodd" d="M34.7983 69.659C53.9849 69.659 69.5387 54.105 69.5387 34.9184C69.5387 15.7317 53.9849 0.177734 34.7983 0.177734C15.6116 0.177734 0.0576172 15.7317 0.0576172 34.9184C0.0576172 54.105 15.6116 69.659 34.7983 69.659ZM4.2601 30.5745C4.38409 29.6948 4.54522 28.827 4.74186 27.9729C7.91832 14.1706 20.6437 4.07684 34.7983 4.07684C50.3571 4.07684 63.2251 15.598 65.3362 30.5745C65.4273 31.2214 65.4981 31.8712 65.5483 32.5226C65.7731 35.4432 65.586 38.3962 64.9864 41.2632C64.6933 42.6644 64.3053 44.031 63.829 45.3553C63.5847 46.0351 63.3171 46.7038 63.0273 47.3602C62.5723 48.3909 62.0627 49.392 61.5018 50.3595C60.4604 52.1567 59.2428 53.839 57.8726 55.3827C57.2734 56.0578 56.6451 56.7066 55.9897 57.3268C50.4637 62.5542 43.0054 65.7599 34.7983 65.7599C28.5608 65.7599 22.7558 63.9084 17.9031 60.7248C17.1133 60.2067 16.3489 59.6534 15.6118 59.0671C13.5977 57.4647 11.7888 55.6159 10.2305 53.5661C9.81998 53.0259 9.42671 52.4719 9.05189 51.9047C8.32297 50.8023 7.66304 49.6503 7.07819 48.4548C6.78476 47.855 6.51019 47.2442 6.25531 46.6232C5.08461 43.7716 4.35731 40.7486 4.08254 37.6843C4.02206 37.0086 3.98351 36.3308 3.96707 35.6524C3.92588 33.9563 4.02308 32.2563 4.2601 30.5745Z" fill="#F9EFE3"/>
<path fill-rule="evenodd" clip-rule="evenodd" d="M34.7983 69.659C53.9849 69.659 69.5387 54.105 69.5387 34.9184C69.5387 15.7317 53.9849 0.177734 34.7983 0.177734C15.6116 0.177734 0.0576172 15.7317 0.0576172 34.9184C0.0576172 54.105 15.6116 69.659 34.7983 69.659ZM4.2601 30.5745C4.38409 29.6948 4.54522 28.827 4.74186 27.9729C7.91832 14.1706 20.6437 4.07684 34.7983 4.07684C50.3571 4.07684 63.2251 15.598 65.3362 30.5745C65.4273 31.2214 65.4981 31.8712 65.5483 32.5226C65.7731 35.4432 65.586 38.3962 64.9864 41.2632C64.6933 42.6644 64.3053 44.031 63.829 45.3553C63.5847 46.0351 63.3171 46.7038 63.0273 47.3602C62.5723 48.3909 62.0627 49.392 61.5018 50.3595C60.4604 52.1567 59.2428 53.839 57.8726 55.3827C57.2734 56.0578 56.6451 56.7066 55.9897 57.3268C50.4637 62.5542 43.0054 65.7599 34.7983 65.7599C28.5608 65.7599 22.7558 63.9084 17.9031 60.7248C17.1133 60.2067 16.3489 59.6534 15.6118 59.0671C13.5977 57.4647 11.7888 55.6159 10.2305 53.5661C9.81998 53.0259 9.42671 52.4719 9.05189 51.9047C8.32297 50.8023 7.66304 49.6503 7.07819 48.4548C6.78476 47.855 6.51019 47.2442 6.25531 46.6232C5.08461 43.7716 4.35731 40.7486 4.08254 37.6843C4.02206 37.0086 3.98351 36.3308 3.96707 35.6524C3.92588 33.9563 4.02308 32.2563 4.2601 30.5745Z" fill="url(#paint13_linear_28_314)"/>
<path fill-rule="evenodd" clip-rule="evenodd" d="M34.7983 69.659C53.9849 69.659 69.5387 54.105 69.5387 34.9184C69.5387 15.7317 53.9849 0.177734 34.7983 0.177734C15.6116 0.177734 0.0576172 15.7317 0.0576172 34.9184C0.0576172 54.105 15.6116 69.659 34.7983 69.659ZM4.2601 30.5745C4.38409 29.6948 4.54522 28.827 4.74186 27.9729C7.91832 14.1706 20.6437 4.07684 34.7983 4.07684C50.3571 4.07684 63.2251 15.598 65.3362 30.5745C65.4273 31.2214 65.4981 31.8712 65.5483 32.5226C65.7731 35.4432 65.586 38.3962 64.9864 41.2632C64.6933 42.6644 64.3053 44.031 63.829 45.3553C63.5847 46.0351 63.3171 46.7038 63.0273 47.3602C62.5723 48.3909 62.0627 49.392 61.5018 50.3595C60.4604 52.1567 59.2428 53.839 57.8726 55.3827C57.2734 56.0578 56.6451 56.7066 55.9897 57.3268C50.4637 62.5542 43.0054 65.7599 34.7983 65.7599C28.5608 65.7599 22.7558 63.9084 17.9031 60.7248C17.1133 60.2067 16.3489 59.6534 15.6118 59.0671C13.5977 57.4647 11.7888 55.6159 10.2305 53.5661C9.81998 53.0259 9.42671 52.4719 9.05189 51.9047C8.32297 50.8023 7.66304 49.6503 7.07819 48.4548C6.78476 47.855 6.51019 47.2442 6.25531 46.6232C5.08461 43.7716 4.35731 40.7486 4.08254 37.6843C4.02206 37.0086 3.98351 36.3308 3.96707 35.6524C3.92588 33.9563 4.02308 32.2563 4.2601 30.5745Z" fill="#F9EFE3"/>
<defs>
<linearGradient id="paint0_linear_28_314" x1="7.95875" y1="1.56594" x2="69.5387" y2="96.6888" gradientUnits="userSpaceOnUse">
<stop stop-color="#BD9147"/>
<stop offset="1" stop-color="#D5B56A"/>
</linearGradient>
<linearGradient id="paint1_linear_28_314" x1="7.95875" y1="1.56594" x2="69.5387" y2="96.6888" gradientUnits="userSpaceOnUse">
<stop stop-color="#BD9147"/>
<stop offset="1" stop-color="#D5B56A"/>
</linearGradient>
<linearGradient id="paint2_linear_28_314" x1="7.95875" y1="1.56594" x2="69.5387" y2="96.6888" gradientUnits="userSpaceOnUse">
<stop stop-color="#BD9147"/>
<stop offset="1" stop-color="#D5B56A"/>
</linearGradient>
<linearGradient id="paint3_linear_28_314" x1="7.95875" y1="1.56594" x2="69.5387" y2="96.6888" gradientUnits="userSpaceOnUse">
<stop stop-color="#BD9147"/>
<stop offset="1" stop-color="#D5B56A"/>
</linearGradient>
<linearGradient id="paint4_linear_28_314" x1="7.95875" y1="1.56594" x2="69.5387" y2="96.6888" gradientUnits="userSpaceOnUse">
<stop stop-color="#BD9147"/>
<stop offset="1" stop-color="#D5B56A"/>
</linearGradient>
<linearGradient id="paint5_linear_28_314" x1="7.95875" y1="1.56594" x2="69.5387" y2="96.6888" gradientUnits="userSpaceOnUse">
<stop stop-color="#BD9147"/>
<stop offset="1" stop-color="#D5B56A"/>
</linearGradient>
<linearGradient id="paint6_linear_28_314" x1="7.95875" y1="1.56594" x2="69.5387" y2="96.6888" gradientUnits="userSpaceOnUse">
<stop stop-color="#BD9147"/>
<stop offset="1" stop-color="#D5B56A"/>
</linearGradient>
<linearGradient id="paint7_linear_28_314" x1="7.95875" y1="1.56594" x2="69.5387" y2="96.6888" gradientUnits="userSpaceOnUse">
<stop stop-color="#BD9147"/>
<stop offset="1" stop-color="#D5B56A"/>
</linearGradient>
<linearGradient id="paint8_linear_28_314" x1="7.95875" y1="1.56594" x2="69.5387" y2="96.6888" gradientUnits="userSpaceOnUse">
<stop stop-color="#BD9147"/>
<stop offset="1" stop-color="#D5B56A"/>
</linearGradient>
<linearGradient id="paint9_linear_28_314" x1="7.95875" y1="1.56594" x2="69.5387" y2="96.6888" gradientUnits="userSpaceOnUse">
<stop stop-color="#BD9147"/>
<stop offset="1" stop-color="#D5B56A"/>
</linearGradient>
<linearGradient id="paint10_linear_28_314" x1="7.95875" y1="1.56594" x2="69.5387" y2="96.6888" gradientUnits="userSpaceOnUse">
<stop stop-color="#BD9147"/>
<stop offset="1" stop-color="#D5B56A"/>
</linearGradient>
<linearGradient id="paint11_linear_28_314" x1="7.95875" y1="1.56594" x2="69.5387" y2="96.6888" gradientUnits="userSpaceOnUse">
<stop stop-color="#BD9147"/>
<stop offset="1" stop-color="#D5B56A"/>
</linearGradient>
<linearGradient id="paint12_linear_28_314" x1="7.95875" y1="1.56594" x2="69.5387" y2="96.6888" gradientUnits="userSpaceOnUse">
<stop stop-color="#BD9147"/>
<stop offset="1" stop-color="#D5B56A"/>
</linearGradient>
<linearGradient id="paint13_linear_28_314" x1="7.95875" y1="1.56594" x2="69.5387" y2="96.6888" gradientUnits="userSpaceOnUse">
<stop stop-color="#BD9147"/>
<stop offset="1" stop-color="#D5B56A"/>
</linearGradient>
</defs>
</svg>
