<svg width="56" height="57" viewBox="0 0 56 57" fill="none" xmlns="http://www.w3.org/2000/svg">
<path d="M28.4662 2.75015C28.6544 1.58732 29.7537 0.798496 30.9165 0.986753C30.9885 1.00053 31.2201 1.04382 31.3414 1.07084C31.5841 1.12488 31.9226 1.20809 32.3446 1.33102C33.1886 1.57685 34.3677 1.98183 35.7829 2.63063C38.6162 3.92958 42.3866 6.20186 46.2993 10.1145C50.2119 14.0271 52.4841 17.7975 53.7831 20.6308C54.4319 22.046 54.8369 23.2251 55.0827 24.0691C55.2056 24.4911 55.2888 24.8296 55.3429 25.0723C55.3699 25.1936 55.3896 25.2911 55.4034 25.363L55.4198 25.4518C55.608 26.6146 54.8264 27.7593 53.6636 27.9476C52.5041 28.1353 51.4117 27.3503 51.2188 26.1929C51.2129 26.1618 51.1966 26.0783 51.1791 25.9996C51.144 25.8421 51.0833 25.5923 50.9871 25.262C50.7946 24.6013 50.4604 23.6192 49.9054 22.4086C48.7967 19.9904 46.8032 16.6512 43.2829 13.1309C39.7625 9.61053 36.4233 7.61698 34.0051 6.50835C32.7945 5.95335 31.8124 5.6191 31.1517 5.42664C30.8214 5.33043 30.4062 5.23513 30.2487 5.20005C29.0913 5.00717 28.2784 3.90966 28.4662 2.75015Z" fill="#F9EFE3"/>
<path fill-rule="evenodd" clip-rule="evenodd" d="M29.1096 12.56C29.4332 11.4274 30.6137 10.7715 31.7464 11.0951L31.1604 13.146C31.7464 11.0951 31.7464 11.0951 31.7464 11.0951L31.7505 11.0963L31.7548 11.0976L31.7643 11.1003L31.7864 11.1069L31.8426 11.1244C31.8855 11.1382 31.9391 11.156 32.0029 11.1787C32.1306 11.224 32.2994 11.2884 32.5065 11.3772C32.9208 11.5547 33.4869 11.829 34.1823 12.2405C35.5743 13.0643 37.4745 14.4327 39.7069 16.6651C41.9392 18.8975 43.3076 20.7977 44.1315 22.1897C44.543 22.885 44.8172 23.4512 44.9948 23.8655C45.0835 24.0725 45.148 24.2413 45.1933 24.3691C45.2159 24.4329 45.2338 24.4864 45.2475 24.5293L45.265 24.5856L45.2716 24.6076L45.2744 24.6171L45.2757 24.6215C45.2757 24.6215 45.2768 24.6256 43.226 25.2115L45.2768 24.6256C45.6004 25.7582 44.9446 26.9388 43.8119 27.2624C42.6889 27.5832 41.5188 26.9412 41.1836 25.8262L41.1731 25.7956C41.1579 25.7528 41.1265 25.6687 41.0739 25.5459C40.9686 25.3003 40.7778 24.8987 40.4604 24.3624C39.8263 23.2909 38.6811 21.6721 36.6905 19.6815C34.6999 17.6909 33.081 16.5457 32.0096 15.9116C31.4733 15.5941 31.0716 15.4033 30.8261 15.2981C30.7032 15.2454 30.6191 15.2141 30.5764 15.1989L30.5457 15.1884C29.4307 14.8532 28.7887 13.683 29.1096 12.56Z" fill="#F9EFE3"/>
<path fill-rule="evenodd" clip-rule="evenodd" d="M4.99798 9.93596C9.77589 5.15805 17.8387 5.52126 21.1655 11.4824L23.0112 14.7896C25.1837 18.6824 24.2579 23.594 21.0776 26.8132C21.0353 26.8712 20.8108 27.1981 20.7828 27.7692C20.7471 28.4981 21.006 30.1839 23.6179 32.7958C26.229 35.4068 27.9145 35.6664 28.6438 35.6309C29.2153 35.6031 29.5425 35.3785 29.6006 35.3361C32.8198 32.1558 37.7313 31.23 41.6241 33.4025L44.9313 35.2482C50.8925 38.575 51.2557 46.6378 46.4778 51.4157C43.9221 53.9714 40.5239 56.2422 36.5305 56.3936C30.6126 56.618 20.7863 55.0897 11.0552 45.3586C1.32401 35.6274 -0.204256 25.8011 0.0200906 19.8832C0.171479 15.8898 2.4423 12.4916 4.99798 9.93596ZM17.4405 13.5612C15.737 10.5088 11.1592 9.8075 8.01437 12.9524C5.80938 15.1573 4.37587 17.5912 4.28285 20.0448C4.09576 24.9799 5.31419 33.5848 14.0715 42.3422C22.8289 51.0995 31.4338 52.3179 36.3689 52.1309C38.8225 52.0378 41.2564 50.6043 43.4614 48.3993C46.6062 45.2545 45.9049 40.6767 42.8525 38.9732L39.5452 37.1275C37.488 35.9793 34.5982 36.371 32.5696 38.3995C32.3704 38.5986 31.1019 39.7822 28.851 39.8917C26.5469 40.0038 23.7578 38.9684 20.6015 35.8122C17.4442 32.6549 16.4093 29.865 16.5221 27.5605C16.6323 25.3096 17.816 24.0423 18.0141 23.8442C20.0426 21.8156 20.4344 18.9258 19.2862 16.8685L17.4405 13.5612Z" fill="#F9EFE3"/>
</svg>
