<svg width="54" height="18" viewBox="0 0 54 18" fill="none" xmlns="http://www.w3.org/2000/svg">
<path d="M8.81596 8.79297L39.2625 8.79297L53.5391 8.79297C48.7802 9.63778 39.2625 12.5102 39.2625 17.2413" stroke="#181D24" stroke-width="0.904162"/>
<path d="M8.81596 8.79297L39.2625 8.79297L53.5391 8.79297C48.7802 9.63778 39.2625 12.5102 39.2625 17.2413" stroke="#3B0608" stroke-width="0.904162"/>
<path d="M8.81596 8.79492L39.2625 8.79492L53.5391 8.79492C48.7802 7.95011 39.2625 5.0777 39.2625 0.34655" stroke="#181D24" stroke-width="0.904162"/>
<path d="M8.81596 8.79492L39.2625 8.79492L53.5391 8.79492C48.7802 7.95011 39.2625 5.0777 39.2625 0.34655" stroke="#3B0608" stroke-width="0.904162"/>
<circle cx="5.12183" cy="8.79614" r="3.82453" transform="rotate(90 5.12183 8.79614)" stroke="#181D24" stroke-width="0.904162"/>
<circle cx="5.12183" cy="8.79614" r="3.82453" transform="rotate(90 5.12183 8.79614)" stroke="#3B0608" stroke-width="0.904162"/>
</svg>
